<?xml version="1.0" standalone="no"?>
<!DOCTYPE svg PUBLIC "-//W3C//DTD SVG 1.1//EN" "http://www.w3.org/Graphics/SVG/1.1/DTD/svg11.dtd" >
<svg>
<metadata>
Created by FontForge 20090914 at Tue Mar 18 09:07:12 2014
 By www-data
Copyright (c) 2005 Dalton Maag Ltd. All rights reserved. This font may not be altered in any way without prior consent of Dalton Maag Ltd. DaMa is a trademark of Dalton Maag Ltd
</metadata>
<defs>
<font id="VodafoneLt-Regular" horiz-adv-x="501" >
  <font-face 
    font-family="Vodafone Lt"
    font-weight="400"
    font-stretch="normal"
    units-per-em="1000"
    panose-1="2 11 6 6 4 2 2 2 2 4"
    ascent="800"
    descent="-200"
    x-height="476.999"
    cap-height="667"
    bbox="-207 -220 1000 899"
    underline-thickness="70"
    underline-position="-115"
    unicode-range="U+000D-U+FB02"
  />
<missing-glyph horiz-adv-x="205" 
 />
    <glyph glyph-name=".notdef" horiz-adv-x="205" 
 />
    <glyph glyph-name=".null" horiz-adv-x="950" 
 />
    <glyph glyph-name=".null" horiz-adv-x="950" 
 />
    <glyph glyph-name="nonmarkingreturn" unicode="&#xd;" horiz-adv-x="500" 
 />
    <glyph glyph-name="space" unicode=" " horiz-adv-x="205" 
 />
    <glyph glyph-name="exclam" unicode="!" horiz-adv-x="167" 
d="M84 -11c-11.333 0 -20.666 3.83301 -27.999 11.5s-11 18.167 -11 31.5s3.66699 23.666 11 30.999s16.666 11 27.999 11s20.833 -3.66699 28.5 -11s11.5 -17.666 11.5 -30.999s-3.83301 -23.833 -11.5 -31.5s-17.167 -11.5 -28.5 -11.5zM59 207v460h50v-460h-50z" />
    <glyph glyph-name="quotedbl" unicode="&#x22;" horiz-adv-x="274" 
d="M51 371v296h47v-296h-47zM176 371v296h48v-296h-48z" />
    <glyph glyph-name="numbersign" unicode="#" horiz-adv-x="553" 
d="M165 74v173h-160v47h160v149h-160v46h160v178h45v-178h133v178h46v-178h159v-46h-159v-149h159v-47h-159v-173h-46v173h-133v-173h-45zM210 294h133v149h-133v-149z" />
    <glyph glyph-name="dollar" unicode="$" 
d="M226 -134l-0.000976562 124c-21.333 0.666992 -41 3.5 -59 8.5s-34.333 11.333 -49 19s-27.667 16 -39 25s-21 17.833 -29 26.5l33 41c15.333 -19.333 36 -36 62 -50s53 -21.333 81 -22v297c-44 18 -78.333 37.667 -103 59s-40.167 42.5 -46.5 63.5s-9.5 41.5 -9.5 61.5
c0 24.667 4.16699 46.667 12.5 66s19.833 35.5 34.5 48.5s31.667 23.167 51 30.5s39.666 11.333 60.999 12v123h44v-123c38.667 -1.33301 71.334 -10.5 98.001 -27.5s47.667 -36.167 63 -57.5l-33 -32c-15.333 19.333 -33.5 35.5 -54.5 48.5s-45.5 20.167 -73.5 21.5v-254
c28.667 -13.333 53.5 -26.5 74.5 -39.5s38.333 -27.333 52 -43s23.834 -33.5 30.501 -53.5s10 -43.333 10 -70c0 -50 -14.333 -91.167 -43 -123.5s-70 -50.833 -124 -55.5v-124h-44zM269.999 38c36 3.33301 64.168 16.167 84.501 38.5s30.5 52.5 30.5 90.5
c0.666992 20.667 -1.83301 38.667 -7.5 54s-13.834 28.833 -24.501 40.5s-23.167 22.167 -37.5 31.5s-29.5 18 -45.5 26v-281zM226 390.001v239c-34 -1.33301 -60.5 -11.333 -79.5 -30s-28.5 -43 -28.5 -73c0 -29.333 6.66699 -53.833 20 -73.5s28 -33.5 44 -41.5
s30.667 -15 44 -21z" />
    <glyph glyph-name="percent" unicode="%" horiz-adv-x="681" 
d="M59 -7l-31 35l591 644l31 -33zM517 -7c-18.667 0 -36.168 3.83008 -52.501 11.4971s-30.5 18.167 -42.5 31.5s-21.5 28.833 -28.5 46.5s-10.5 36.834 -10.5 57.501c-0.666992 22.667 3.33301 43.334 12 62.001s19.834 34.334 33.501 47.001s28.5 22 44.5 28
s30.667 9 44 9c31.333 0 57.666 -9.16699 78.999 -27.5s36.166 -39 44.499 -62s12.5 -41.833 12.5 -56.5c0 -30 -7.66699 -57.667 -23 -83s-33.166 -42.333 -53.499 -51s-40.166 -13 -59.499 -13zM516.999 35.9971c19.333 0 36.833 6.66992 52.5 20.0029
s26 28.166 31 44.499s7.5 29.5 7.5 39.5c0 25.333 -6 46.5 -18 63.5s-25 28.167 -39 33.5s-25.333 8 -34 8c-21.333 0 -39.5 -7 -54.5 -21s-24.667 -28.833 -29 -44.5s-6.5 -28.834 -6.5 -39.501c0 -14 2.33301 -27.333 7 -40s11 -23.834 19 -33.501
s17.5 -17.167 28.5 -22.5s22.833 -8 35.5 -8zM165.999 380c-19.333 0 -37.1699 3.8291 -53.5029 11.4961s-30.5 18.167 -42.5 31.5s-21.5 28.833 -28.5 46.5s-10.5 36.834 -10.5 57.501c0 22.667 4.16699 43.334 12.5 62.001s19.333 34.334 33 47.001s28.5 22 44.5 28
s31 9 45 9c30.667 0 56.834 -9.66699 78.501 -29s36.334 -40.166 44.001 -62.499s11.5 -40.5 11.5 -54.5c0 -30 -7.66699 -57.667 -23 -83c-15.333 -24.667 -33.166 -41.5 -53.499 -50.5s-39.5 -13.5 -57.5 -13.5zM164.995 421.996c21.333 0 39.168 6.50293 53.501 19.5029
s24.166 27.667 29.499 44s8 30.166 8 41.499c0 25.333 -6.5 46.5 -19.5 63.5s-26 28 -39 33s-23.833 7.5 -32.5 7.5c-22 0 -40.667 -7.16699 -56 -21.5s-25 -29 -29 -44s-6 -27.833 -6 -38.5c0 -14.667 2.33301 -28.334 7 -41.001s11 -23.834 19 -33.501
s17.5 -17.167 28.5 -22.5s23.167 -8 36.5 -8z" />
    <glyph glyph-name="ampersand" unicode="&#x26;" horiz-adv-x="554" 
d="M201 -11c-28.667 0 -53.8359 4.66797 -75.5029 14.001s-40 22.333 -55 39s-26.333 36 -34 58s-11.5 45.667 -11.5 71c0 48 12.833 89.667 38.5 125s60.5 65.333 104.5 90l30 17c-15.333 21.333 -29.666 44.5 -42.999 69.5s-20 50.167 -20 75.5
c0 38 12.833 68.333 38.5 91s59.834 34 102.501 34c32 0 60.333 -7.33301 85 -22s44.334 -40.334 59.001 -77.001l-36 -25c-13.333 30 -28.833 51.333 -46.5 64s-38.167 19 -61.5 19c-28 0 -50.167 -7.83301 -66.5 -23.5s-24.5 -35.167 -24.5 -58.5c0 -24 7 -48 21 -72
s26 -42.333 36 -55l146 -218l105 182l35 -26l-110 -194l114 -167h-55l-83 123c-24.667 -44 -52.5 -77.333 -83.5 -100s-67.5 -34 -109.5 -34zM202.998 33.001c32.667 0 62 11.001 88 33.001s50 53.333 72 94l-143 208l-27 -15c-36.667 -20.667 -65.667 -45.334 -87 -74.001
s-32 -64 -32 -106c0 -19.333 2.83301 -37.5 8.5 -54.5s14 -31.833 25 -44.5s24.5 -22.667 40.5 -30s34.333 -11 55 -11z" />
    <glyph glyph-name="quotesingle" unicode="'" horiz-adv-x="148" 
d="M51 371v296h46v-296h-46z" />
    <glyph glyph-name="parenleft" unicode="(" horiz-adv-x="254" 
d="M226 -49c-27.333 17.333 -52 39.168 -74 65.501s-41 56.166 -57 89.499s-28.333 69.833 -37 109.5s-13 81.834 -13 126.501c0 91.333 16.333 170 49 236s76 117 130 153l25 -32c-48 -38 -85.667 -87.333 -113 -148s-41 -130.334 -41 -209.001s13.833 -148 41.5 -208
s64.5 -109 110.5 -147z" />
    <glyph glyph-name="parenright" unicode=")" horiz-adv-x="253" 
d="M28 -49l-21 36c46 38 82.833 87 110.5 147s41.5 129.333 41.5 208s-13.667 148.334 -41 209.001s-65 110 -113 148l25 32c54 -36 97.333 -87 130 -153s49 -144.667 49 -236c0 -66.667 -9.66699 -128 -29 -184c-18.667 -54.667 -42 -98.334 -70 -131.001
s-55.333 -58 -82 -76z" />
    <glyph glyph-name="asterisk" unicode="*" horiz-adv-x="390" 
d="M175 321v152l-118 -84l-21 36l127 87l-127 90l22 35l117 -85v145h39v-145l119 84l21 -33l-127 -90l127 -89l-20 -35l-120 84v-152h-39z" />
    <glyph glyph-name="plus" unicode="+" 
d="M227 85v223h-191v48h191v222h47v-222h190v-48h-190v-223h-47z" />
    <glyph glyph-name="comma" unicode="," horiz-adv-x="158" 
d="M57 -97l-17.001 22c8.66699 8.66699 17.167 19 25.5 31s13.166 23.667 14.499 35c-12 0 -22.167 4.5 -30.5 13.5s-12.5 19.833 -12.5 32.5s3.66699 23 11 31s17.333 12 30 12c14.667 0 25.834 -5.5 33.501 -16.5s11.5 -24.167 11.5 -39.5
c0 -23.333 -6.66699 -45.833 -20 -67.5s-28.666 -39.5 -45.999 -53.5z" />
    <glyph glyph-name="hyphen" unicode="-" horiz-adv-x="292" 
d="M46 239v53h201v-53h-201z" />
    <glyph glyph-name="period" unicode="." horiz-adv-x="161" 
d="M84 -11c-11.333 0 -21 4 -29 12s-12 19 -12 33c0 13.333 4 24 12 32s17.667 12 29 12s21.166 -4 29.499 -12s12.5 -18.667 12.5 -32c0 -14 -4.16699 -25 -12.5 -33s-18.166 -12 -29.499 -12z" />
    <glyph glyph-name="slash" unicode="/" horiz-adv-x="450" 
d="M45 -23l-40 25l401 756l39 -23z" />
    <glyph glyph-name="zero" unicode="0" 
d="M251 -14c-37.333 0 -69.501 10.166 -96.501 30.499s-49.167 46.833 -66.5 79.5s-30.166 69.334 -38.499 110.001s-12.5 81.667 -12.5 123s4.16699 82.5 12.5 123.5s21.166 77.833 38.499 110.5s39.5 59.167 66.5 79.5s59.167 30.5 96.5 30.5c52 0 95 -20.667 129 -62
c34 -40 56.667 -87 68 -141c10.667 -51.333 16 -98.333 16 -141c0 -66 -10 -127.5 -30 -184.5s-46.167 -97.667 -78.5 -122s-67.166 -36.5 -104.499 -36.5zM250.999 33.999c39.333 0 71.333 18.334 96 55.001c26 36.667 43 77.667 51 123c8 46 12 85.333 12 118
c0 56.667 -7 108.5 -21 155.5s-33.5 81.833 -58.5 104.5s-51.5 34 -79.5 34c-28.667 0 -53 -8.83301 -73 -26.5s-36.5 -40.667 -49.5 -69s-22.5 -60 -28.5 -95s-9 -69.5 -9 -103.5c0 -32.667 3 -66.5 9 -101.5s15.5 -66.833 28.5 -95.5s29.5 -52.334 49.5 -71.001
s44.333 -28 73 -28z" />
    <glyph glyph-name="one" unicode="1" 
d="M263 0v598l-148 -106l-25 39l177 129h48v-660h-52z" />
    <glyph glyph-name="two" unicode="2" 
d="M59 0l-0.00195312 43.998c0 36 5.33301 66 16 90s30.334 49 59.001 75l122 105c40.667 34 68 58.333 82 73c28.667 30 43 66.667 43 110c0 40 -11.5 71.333 -34.5 94s-55.5 34 -97.5 34c-35.333 0 -66.166 -8.16699 -92.499 -24.5s-51.833 -36.833 -76.5 -61.5l-26 40
c14.667 18 33.834 34.333 57.501 49s48 25.834 73 33.501s47.5 11.5 67.5 11.5c48 0 86.833 -11.167 116.5 -33.5s48.5 -46.833 56.5 -73.5s12 -49 12 -67c0 -43.333 -10.333 -78.666 -31 -105.999c-24.667 -30.667 -59.334 -64.667 -104.001 -102l-130 -110
c-23.333 -19.333 -39 -39 -47 -59s-12 -44.667 -12 -74h329v-48h-383z" />
    <glyph glyph-name="three" unicode="3" 
d="M228 -14c-37.333 0 -70.833 4.83008 -100.5 14.4971s-50.834 19.834 -63.501 30.501s-22 19 -28 25l24 48c21.333 -22 46.333 -39.167 75 -51.5s59 -18.5 91 -18.5c48 0 86.167 13.333 114.5 40s42.5 64 42.5 112c0.666992 39.333 -9.16602 72.333 -29.499 99
s-43.833 44 -70.5 52s-51 11.667 -73 11c-22 0 -39.333 -1 -52 -3v43c17.333 28.667 50 68.334 98 119.001c46 49.333 82.667 84 110 104h-307v48h367v-58c-26 -16.667 -62.667 -48.667 -110 -96s-81 -86 -101 -116h15c52.667 0 95.5 -11.667 128.5 -35
s54.167 -50.333 63.5 -81c10 -31.333 15 -58.666 15 -81.999c0 -47.333 -11 -87.5 -33 -120.5s-48.833 -55.333 -80.5 -67s-63.5 -17.5 -95.5 -17.5z" />
    <glyph glyph-name="four" unicode="4" 
d="M339 0v163h-298v56l311 441h36v-449h69v-48h-69v-163h-49zM88 211h251v357z" />
    <glyph glyph-name="five" unicode="5" 
d="M237 -14c-34 0 -65.4961 4.50195 -94.4961 13.502s-50.667 18.167 -65 27.5s-24.166 16.666 -29.499 21.999l22 49c17.333 -15.333 40.666 -29.666 69.999 -42.999s61.666 -20 96.999 -20s64.666 8.16699 87.999 24.5s40.166 37.833 50.499 64.5s15.5 53 15.5 79
c0 45.333 -10.667 81.666 -32 108.999c-20.667 27.333 -46.834 45.666 -78.501 54.999s-60.834 14 -87.501 14c-23.333 0 -44.333 -1.16699 -63 -3.5s-32.667 -5.16602 -42 -8.49902v291h323v-48h-273v-189c34.667 3.33301 56 5 64 5c54 0 100.667 -11 140 -33
c38 -20.667 64.333 -49 79 -85c14.667 -34 22 -69.667 22 -107c0 -32.667 -5 -62.334 -15 -89.001s-24.167 -49.5 -42.5 -68.5s-40.166 -33.667 -65.499 -44s-53 -15.5 -83 -15.5z" />
    <glyph glyph-name="six" unicode="6" 
d="M265 -14c-33.333 0 -62.833 6.33008 -88.5 18.9971s-47.334 30.834 -65.001 54.501s-31 52 -40 85s-13.5 69.833 -13.5 110.5c0 60.667 9.33301 117.667 28 171c18.667 54 41.334 96.5 68.001 127.5s55 55.167 85 72.5c22 13.333 46.333 23.666 73 30.999s54 11 82 11
l11 -42c-32.667 -1.33301 -63.167 -6.66602 -91.5 -15.999s-54.166 -23.666 -77.499 -42.999c-30 -24 -54.5 -53.333 -73.5 -88s-32.5 -73 -40.5 -115c18.667 15.333 40 28.333 64 39s53 16 87 16c42 0 78.333 -11.667 109 -35c21.333 -17.333 38 -36.833 50 -58.5
s19.833 -43.167 23.5 -64.5s5.5 -39.666 5.5 -54.999c0 -50.667 -10 -93.334 -30 -128.001c-14.667 -25.333 -32.334 -44.666 -53.001 -57.999s-41.167 -22.333 -61.5 -27s-37.5 -7 -51.5 -7zM265 31.9971c44 0 79.334 15.666 106.001 46.999s40 73 40 125
c0 42 -8.66699 76.167 -26 102.5s-37.5 44 -60.5 53s-43.833 13.5 -62.5 13.5c-30 0 -58.167 -6.66699 -84.5 -20s-47.833 -28 -64.5 -44c-2.66699 -16 -4 -36.333 -4 -61c0 -30.667 3 -59.167 9 -85.5s15.5 -49.166 28.5 -68.499s29.167 -34.5 48.5 -45.5
s42.666 -16.5 69.999 -16.5z" />
    <glyph glyph-name="seven" unicode="7" 
d="M157 0c12 116 38.5 226.333 79.5 331s92.833 198.334 155.5 281.001h-337v48h398v-39c-27.333 -36.667 -52.166 -73.834 -74.499 -111.501s-42.833 -76.167 -61.5 -115.5c-24.667 -53.333 -44.834 -105 -60.501 -155s-26.667 -95.333 -33 -136s-10.833 -75 -13.5 -103
h-53z" />
    <glyph glyph-name="eight" unicode="8" 
d="M250 -14c-32 0 -60.502 4.66504 -85.502 13.998s-46.167 22.333 -63.5 39s-30.5 36.667 -39.5 60s-13.5 48.666 -13.5 75.999c0 46.667 11.333 83.5 34 110.5s51 46.833 85 59.5c-18.667 6 -35 14.833 -49 26.5s-25.667 24.834 -35 39.501s-16.166 29.834 -20.499 45.501
s-5.83301 30.834 -4.5 45.501c-0.666992 28.667 5 54 17 76s27.5 40.167 46.5 54.5s39.833 24.666 62.5 30.999s44.667 9.5 66 9.5c46 0 84.5 -10.667 115.5 -32s51.833 -45.166 62.5 -71.499s15.334 -48.833 14.001 -67.5c0.666992 -28.667 -5.83301 -55.667 -19.5 -81
s-29.5 -43.666 -47.5 -54.999s-32 -18.333 -42 -21c34 -12.667 62.333 -32.5 85 -59.5s34 -63.833 34 -110.5c0 -44.667 -12 -82.834 -36 -114.501s-52 -52 -84 -61s-59.333 -13.5 -82 -13.5zM249.998 32.998c46 0 82.832 11.834 110.499 35.501s41.5 59.5 41.5 107.5
c0 32.667 -9.66699 61.167 -29 85.5s-40.666 40.666 -63.999 48.999s-43 12.5 -59 12.5c-38 0 -69.833 -10.167 -95.5 -30.5s-41.5 -41.333 -47.5 -63s-9 -39.5 -9 -53.5c0 -48 13.833 -83.833 41.5 -107.5s64.5 -35.5 110.5 -35.5zM249.997 367.999
c32 0 59.168 6.83203 81.501 20.499s38.166 30.834 47.499 51.501s14 41.667 14 63c0 38 -12.833 68.333 -38.5 91s-60.5 34 -104.5 34c-42.667 0 -77 -11.333 -103 -34s-39 -53 -39 -91c0 -42 13.167 -75 39.5 -99s60.5 -36 102.5 -36z" />
    <glyph glyph-name="nine" unicode="9" 
d="M86 -11l9.00195 46.9971c17.333 0 39.333 2.66699 66 8c25.333 5.33301 46.833 12.5 64.5 21.5s32.5 19.167 44.5 30.5c36.667 32.667 62.5 63.334 77.5 92.001s29.5 66.334 43.5 113.001c-16 -12.667 -37.667 -24.834 -65 -36.501s-57 -17.5 -89 -17.5
c-29.333 0 -55.833 5.33301 -79.5 16s-43.834 25.5 -60.501 44.5s-29.5 41.333 -38.5 67s-13.5 53.834 -13.5 84.501c0 51.333 11.667 94.5 35 129.5s50.166 57.833 80.499 68.5s57.166 16 80.499 16c52 0 95 -15.5 129 -46.5s55.833 -67.5 65.5 -109.5
s14.5 -77.333 14.5 -106c0 -50 -6.16699 -98.5 -18.5 -145.5s-29.666 -86.667 -51.999 -119s-45.166 -58.166 -68.499 -77.499c-28.667 -24 -61.334 -43.333 -98.001 -58s-79 -22 -127 -22zM243.002 292.997c32 0 60.667 6.83398 86 20.501s47 28.167 65 43.5
c2 16 3 34.333 3 55c0 52.667 -8.66699 96.167 -26 130.5s-38.5 57 -63.5 68s-47.167 16.5 -66.5 16.5c-44.667 0 -80.167 -15.167 -106.5 -45.5s-39.5 -70.5 -39.5 -120.5c0 -50.667 13 -91.334 39 -122.001s62.333 -46 109 -46z" />
    <glyph glyph-name="colon" unicode=":" horiz-adv-x="161" 
d="M89 392c-11.333 0 -21 4 -29 12s-12 19 -12 33c0 13.333 4 24 12 32s17.667 12 29 12s21.166 -4 29.499 -12s12.5 -18.667 12.5 -32c0 -14 -4.16699 -25 -12.5 -33s-18.166 -12 -29.499 -12zM89 -11c-11.333 0 -21 4 -29 12s-12 19 -12 33c0 13.333 4 24 12 32
s17.667 12 29 12s21.166 -4 29.499 -12s12.5 -18.667 12.5 -32c0 -14 -4.16699 -25 -12.5 -33s-18.166 -12 -29.499 -12z" />
    <glyph glyph-name="semicolon" unicode=";" horiz-adv-x="164" 
d="M68 -97l-17.001 22c8.66699 8.66699 17.167 19 25.5 31s13.166 23.667 14.499 35c-12 0 -22.167 4.5 -30.5 13.5s-12.5 19.833 -12.5 32.5s3.66699 23 11 31s17.333 12 30 12c14.667 0 25.834 -5.5 33.501 -16.5s11.5 -24.167 11.5 -39.5
c0 -23.333 -6.66699 -45.833 -20 -67.5s-28.666 -39.5 -45.999 -53.5zM83.999 392c-11.333 0 -21 4 -29 12s-12 19 -12 33c0 13.333 4 24 12 32s17.667 12 29 12s21.166 -4 29.499 -12s12.5 -18.667 12.5 -32c0 -14 -4.16699 -25 -12.5 -33s-18.166 -12 -29.499 -12z" />
    <glyph glyph-name="less" unicode="&#x3c;" 
d="M435 151l-380 160v44l374 155l18 -46l-317 -130l323 -135z" />
    <glyph glyph-name="equal" unicode="=" 
d="M36 196v48h429v-48h-429zM36 379v48h429v-48h-429z" />
    <glyph glyph-name="greater" unicode="&#x3e;" 
d="M72 151l-17 48l322 135l-316 130l19 46l373 -155v-44z" />
    <glyph glyph-name="question" unicode="?" horiz-adv-x="341" 
d="M164 -11c-11.333 0 -20.666 3.83301 -27.999 11.5s-11 18.167 -11 31.5s3.66699 23.666 11 30.999s16.666 11 27.999 11s20.833 -3.66699 28.5 -11s11.5 -17.666 11.5 -30.999s-3.83301 -23.833 -11.5 -31.5s-17.167 -11.5 -28.5 -11.5zM139 192l0.000976562 30.002
c0 30 6.66699 55.667 20 77s28.666 42.333 45.999 63c19.333 22 34.333 41.5 45 58.5s18.5 33.833 23.5 50.5s7.5 33.334 7.5 50.001c0 34 -10 60 -30 78s-47 27 -81 27c-30 0 -55 -7.66699 -75 -23s-38 -33.666 -54 -54.999l-32 32c17.333 25.333 40 47.166 68 65.499
s59.667 27.5 95 27.5c52 0 92 -13.667 120 -41s42 -65 42 -113c0 -32.667 -7.83301 -63.334 -23.5 -92.001s-36.5 -57.334 -62.5 -86.001c-27.333 -30.667 -44 -53.334 -50 -68.001c-7.33301 -16 -11 -34.333 -11 -55v-26h-48z" />
    <glyph glyph-name="at" unicode="@" horiz-adv-x="719" 
d="M435 -157c-54 0 -101.166 6.33594 -141.499 19.0029s-74.833 29.667 -103.5 51s-52.167 45.666 -70.5 72.999s-32.833 55.333 -43.5 84s-18 57.334 -22 86.001s-6 54.667 -6 78c0 64 7.16699 121.667 21.5 173s35.5 95.166 63.5 131.499s62.667 64.166 104 83.499
s89.333 29 144 29c62 0 112.333 -12.333 151 -37c39.333 -24.667 65.666 -53.834 78.999 -87.501s20 -64.167 20 -91.5v-415h-48v48c-16 -13.333 -35.167 -24.833 -57.5 -34.5s-47.5 -14.5 -75.5 -14.5c-24 0 -46.333 5 -67 15s-38.5 24 -53.5 42s-26.833 39.833 -35.5 65.5
s-13 54.167 -13 85.5c-1.33301 34 3.33398 63.833 14.001 89.5s24.5 47 41.5 64s35.667 29.5 56 37.5s39.5 11.333 57.5 10c30 0 55.333 -4 76 -12s39.667 -17.667 57 -29v38c0 28 -4.16699 53.167 -12.5 75.5s-21.166 40.5 -38.499 54.5
c-18.667 16 -40.334 28.5 -65.001 37.5s-53.334 13.5 -86.001 13.5c-70.667 0 -128.5 -20.333 -173.5 -61s-74.5 -89 -88.5 -145s-21 -111.333 -21 -166c0 -63.333 13 -123 39 -179c26 -55.333 66 -96.833 120 -124.5s115.333 -41.5 184 -41.5c66 0 137.333 14.333 214 43
l14 -45c-21.333 -10 -50.833 -19.833 -88.5 -29.5s-86.167 -14.5 -145.5 -14.5zM452.001 66.0029c28 0 52.5 5.33301 73.5 16s39.833 22.667 56.5 36v219c-17.333 12 -35.833 22.167 -55.5 30.5s-43.5 12.5 -71.5 12.5c-40 0 -70.333 -14.167 -91 -42.5
s-31 -65.5 -31 -111.5c0 -21.333 2.66699 -41.666 8 -60.999s13 -36.333 23 -51s22.333 -26.334 37 -35.001s31.667 -13 51 -13z" />
    <glyph glyph-name="A" unicode="A" horiz-adv-x="533" 
d="M5 0l236 667h48l239 -667h-55l-78 214h-260l-76 -214h-54zM151 264h228l-115 340z" />
    <glyph glyph-name="B" unicode="B" horiz-adv-x="500" 
d="M76 0v666.999h172c60.667 0 106.667 -13.5 138 -40.5s47 -68.833 47 -125.5c0 -82 -40.667 -131 -122 -147c46 -3.33301 83.167 -18.666 111.5 -45.999s42.5 -68.333 42.5 -123c0 -29.333 -4.5 -55.333 -13.5 -78s-21.5 -42 -37.5 -58s-35 -28.167 -57 -36.5
s-46.333 -12.5 -73 -12.5h-208zM128 48.999h152c42 0 74.167 12.333 96.5 37s33.5 58 33.5 100c0 50 -14.5 86 -43.5 108s-69.5 33 -121.5 33h-117v-278zM128 375.999h114c44.667 0 78.667 11.5 102 34.5s35 53.5 35 91.5c0 40 -11.167 69.333 -33.5 88s-54.5 28 -96.5 28
h-121v-242z" />
    <glyph glyph-name="C" unicode="C" horiz-adv-x="542" 
d="M312 -12c-41.333 0 -78.168 8.00195 -110.501 24.002s-59.833 38.833 -82.5 68.5s-39.834 65.667 -51.501 108s-17.5 89.833 -17.5 142.5c0 56.667 6.5 106.667 19.5 150s31 79.666 54 108.999s50.167 51.666 81.5 66.999s65.333 23 102 23
c46.667 0 87.334 -11.833 122.001 -35.5s61 -54.5 79 -92.5l-42 -33c-14 28 -31.833 50.667 -53.5 68s-41.5 29 -59.5 35s-33 8.66699 -45 8c-45.333 0 -84.666 -14.667 -117.999 -44c-31.333 -28.667 -53.666 -66.667 -66.999 -114c-12 -46 -18 -93.333 -18 -142
c0 -43.333 4.83301 -83 14.5 -119s23.667 -66.833 42 -92.5s40.5 -45.667 66.5 -60s55.333 -21.5 88 -21.5c36 0 67.333 7.66699 94 23s50.667 37 72 65l30 -42c-12 -15.333 -28.667 -31.333 -50 -48c-18 -14 -40.833 -25.333 -68.5 -34s-54.834 -13 -81.501 -13z" />
    <glyph glyph-name="D" unicode="D" horiz-adv-x="583" 
d="M76 0l0.000976562 667.001h156c28 0 54.667 -2.33301 80 -7s48.666 -12.667 69.999 -24c48 -23.333 85.5 -59.333 112.5 -108s40.5 -110.334 40.5 -185.001c0 -92 -17.5 -165.333 -52.5 -220s-83.5 -91 -145.5 -109c-32 -9.33301 -67 -14 -105 -14h-156zM128.001 49.001
l95.002 -0.000976562c17.333 0 35.166 1 53.499 3s35.166 6 50.499 12c46.667 17.333 84 48.333 112 93s42 105.334 42 182.001c0 58.667 -9 107.834 -27 147.501s-44 70.5 -78 92.5c-20 13.333 -42.833 23.166 -68.5 29.499s-52.5 9.5 -80.5 9.5h-99v-569z" />
    <glyph glyph-name="E" unicode="E" horiz-adv-x="476" 
d="M76 0v667h356v-49h-305v-240h221v-49h-221v-280h323v-49h-374z" />
    <glyph glyph-name="F" unicode="F" horiz-adv-x="430" 
d="M76 0v667h349v-49h-298v-250h220v-49h-220v-319h-51z" />
    <glyph glyph-name="G" unicode="G" horiz-adv-x="568" 
d="M318 -13c-40 0 -76.333 7.49902 -109 22.499s-60.834 37 -84.501 66s-42 64.833 -55 107.5s-19.5 92 -19.5 148c0 80.667 14.667 149.667 44 207c28.667 56 62.667 93.667 102 113c40 19.333 78 29 114 29c28 0 52.833 -4.16699 74.5 -12.5s40.834 -19 57.501 -32
s30.5 -27 41.5 -42s19.5 -28.167 25.5 -39.5l-39 -31c-16 32.667 -38.5 58.834 -67.5 78.501s-59.833 29.5 -92.5 29.5c-28 0 -54.333 -6.33301 -79 -19s-46.334 -31.5 -65.001 -56.5s-33.5 -56.333 -44.5 -94s-16.5 -81.5 -16.5 -131.5
c0 -44.667 5.16699 -85.167 15.5 -121.5s24.833 -67.333 43.5 -93s41.167 -45.5 67.5 -59.5s55.5 -21 87.5 -21c34 0 62.5 2.5 85.5 7.5s41.833 10.5 56.5 16.5v209h-119v49h171v-293c-21.333 -9.33301 -49.166 -17.833 -83.499 -25.5s-71.5 -11.5 -111.5 -11.5z" />
    <glyph glyph-name="H" unicode="H" horiz-adv-x="601" 
d="M76 0v667h52v-297h346v297h51v-667h-51v320h-346v-320h-52z" />
    <glyph glyph-name="I" unicode="I" horiz-adv-x="204" 
d="M76 0v667h52v-667h-52z" />
    <glyph glyph-name="J" unicode="J" horiz-adv-x="353" 
d="M142 -11c-29.333 0 -56.501 4.33496 -81.501 13.002s-41.167 17 -48.5 25l18 47c4.66699 -6.66699 15.167 -13.334 31.5 -20.001s30.833 -11.334 43.5 -14.001s25.667 -4 39 -4c34 0 57.167 9 69.5 27s18.5 44.333 18.5 79v525h52v-533c0 -34 -4.33301 -59.667 -13 -77
c-9.33301 -20 -24.666 -36.333 -45.999 -49s-49 -19 -83 -19z" />
    <glyph glyph-name="K" unicode="K" horiz-adv-x="519" 
d="M76 0l0.000976562 666.998h52v-300h105c18.667 0 34.5 5.83301 47.5 17.5s26.5 33.167 40.5 64.5l97 218h56l-101 -227c-10.667 -23.333 -21.167 -42.666 -31.5 -57.999s-22.166 -25.666 -35.499 -30.999c18.667 -5.33301 33.167 -13.5 43.5 -24.5
s20.166 -28.167 29.499 -51.5l110 -275h-56l-84 206c-16.667 38.667 -28.834 64.5 -36.501 77.5s-17.167 22.167 -28.5 27.5s-24.333 8 -39 8h-117v-319h-52z" />
    <glyph glyph-name="L" unicode="L" horiz-adv-x="450" 
d="M76 0v667h52v-618h307v-49h-359z" />
    <glyph glyph-name="M" unicode="M" horiz-adv-x="698" 
d="M333 -11l-192 580l-24 -569h-51l30 667h67l198 -605l184 605h64l30 -667h-50l-25 561l-178 -572h-53z" />
    <glyph glyph-name="N" unicode="N" horiz-adv-x="613" 
d="M76 0v667h55l355 -562v562h51v-667h-45l-365 575v-575h-51z" />
    <glyph glyph-name="O" unicode="O" horiz-adv-x="617" 
d="M309 -13c-44 0 -82.168 9.83496 -114.501 29.502s-59.333 45.667 -81 78s-37.667 69.333 -48 111s-15.5 84.5 -15.5 128.5c0 69.333 12.333 132 37 188c16 39.333 37.667 71.5 65 96.5s55 41.5 83 49.5s52.667 12 74 12c62.667 0 114 -20 154 -60
c40.667 -38.667 68 -85.334 82 -140.001c14.667 -52.667 22 -101.334 22 -146.001c0 -72 -12.333 -135.667 -37 -191c-17.333 -40 -39.666 -72.167 -66.999 -96.5s-54.333 -40.333 -81 -48s-51 -11.5 -73 -11.5zM308.999 36.002c48 0 88.5 17.499 121.5 52.499
s55.167 75.833 66.5 122.5c10.667 44.667 16 85.667 16 123c0 58.667 -9.33301 111 -28 157c-18 48 -42.833 83.333 -74.5 106s-65.5 34 -101.5 34c-35.333 0 -66 -8.66699 -92 -26s-47.333 -40.166 -64 -68.499s-29 -60.166 -37 -95.499s-12 -71 -12 -107
c0 -56.667 9.66699 -110.334 29 -161.001c20 -50 45.667 -85.333 77 -106s64.333 -31 99 -31z" />
    <glyph glyph-name="P" unicode="P" horiz-adv-x="504" 
d="M76 0v667h198c64 0 113.333 -16.5 148 -49.5s52 -81.833 52 -146.5c0 -31.333 -5 -59 -15 -83s-23.833 -44 -41.5 -60s-38.667 -28 -63 -36s-50.833 -12 -79.5 -12h-147v-280h-52zM128 329h147.001c44 0 78.833 12.833 104.5 38.5s38.5 60.5 38.5 104.5
c0 46 -11.833 81.833 -35.5 107.5s-59.834 38.5 -108.501 38.5h-146v-289z" />
    <glyph glyph-name="Q" unicode="Q" horiz-adv-x="617" 
d="M584 -33c-26.667 34 -59.999 68.002 -99.999 102.002c-20.667 -25.333 -45.5 -45.333 -74.5 -60s-62.5 -22 -100.5 -22c-44 0 -82.167 9.83301 -114.5 29.5s-59.333 45.667 -81 78s-37.667 69.333 -48 111s-15.5 84.5 -15.5 128.5c0 69.333 12.333 132 37 188
c16 39.333 37.667 71.5 65 96.5s55 41.5 83 49.5s52.667 12 74 12c62.667 0 114 -20 154 -60c40.667 -38.667 68 -85.334 82 -140.001c14.667 -52.667 22 -101.334 22 -146.001c0 -42 -4.5 -82.333 -13.5 -121s-23.167 -74 -42.5 -106
c35.333 -27.333 71.666 -64.333 108.999 -111zM309.001 36.002c28 0 53 5.49902 75 16.499s41 26.167 57 45.5c-31.333 18 -71.333 35 -120 51l15 45c50 -17.333 93.667 -36.333 131 -57c15.333 28 26.833 59.167 34.5 93.5s11.5 68.833 11.5 103.5
c0 58.667 -9.33301 111 -28 157c-18 48 -42.833 83.333 -74.5 106s-65.5 34 -101.5 34c-35.333 0 -66 -8.66699 -92 -26s-47.333 -40.166 -64 -68.499s-29 -60.166 -37 -95.499s-12 -71 -12 -107c0 -56.667 9.66699 -110.334 29 -161.001c20 -50 45.667 -85.333 77 -106
s64.333 -31 99 -31z" />
    <glyph glyph-name="R" unicode="R" horiz-adv-x="533" 
d="M76 0v667h200c64.667 0 113.667 -15.667 147 -47s50 -76 50 -134c0.666992 -34 -6.16602 -63.333 -20.499 -88s-30 -42.334 -47 -53.001s-31.167 -17.667 -42.5 -21c21.333 -6.66699 36.666 -19.5 45.999 -38.5s18.333 -43.5 27 -73.5
c2.66699 -14 12.667 -50.333 30 -109l27 -103h-55l-28 104c-23.333 78 -37.333 124 -42 138c-6.66699 18.667 -16.667 33.334 -30 44.001s-30 16 -50 16h-160v-302h-52zM128 351h144c48 0 84.333 11 109 33s37 56 37 102c0 42 -12.167 74.5 -36.5 97.5
s-59.833 34.5 -106.5 34.5h-147v-267z" />
    <glyph glyph-name="S" unicode="S" horiz-adv-x="480" 
d="M236 -13c-32 1.33301 -64.832 8.00293 -98.499 20.0029s-58.334 24.167 -74.001 36.5s-26.167 21.833 -31.5 28.5l29 48c9.33301 -10 20.5 -20 33.5 -30s27.333 -19 43 -27s32 -14.5 49 -19.5s34.167 -7.5 51.5 -7.5c24.667 -1.33301 46.334 1.66699 65.001 9
s34.167 17.166 46.5 29.499s21.666 26.666 27.999 42.999s9.16602 33.166 8.49902 50.499c0 20 -2.83301 37.667 -8.5 53s-14.167 29 -25.5 41s-25.833 22.833 -43.5 32.5s-38.5 19.167 -62.5 28.5l-68 24c-40 14 -71.833 34.167 -95.5 60.5s-35.5 60.5 -35.5 102.5
c0 36.667 10 68.667 30 96c20.667 28 45.834 47.333 75.501 58s58.5 16 86.5 16c46.667 0 86.167 -8.66699 118.5 -26s58.166 -38 77.499 -62l-32 -39c-16 20 -37.167 38 -63.5 54s-58.5 24 -96.5 24c-40 0.666992 -73 -8.83301 -99 -28.5s-39.333 -48.5 -40 -86.5
c0 -32 9.5 -57.333 28.5 -76s43.833 -33.667 74.5 -45l65 -24c32 -11.333 58.833 -23.666 80.5 -36.999s38.834 -28 51.501 -44s21.834 -33.5 27.501 -52.5s8.5 -39.5 8.5 -61.5c0 -62.667 -18.333 -109.834 -55 -141.501s-86.334 -47.5 -149.001 -47.5z" />
    <glyph glyph-name="T" unicode="T" horiz-adv-x="455" 
d="M201 0v618h-196v49h445v-49h-197v-618h-52z" />
    <glyph glyph-name="U" unicode="U" horiz-adv-x="591" 
d="M296 -13c-32 0 -61.833 5.16699 -89.5 15.5s-51.667 25.5 -72 45.5s-36.333 44.5 -48 73.5s-17.5 62.5 -17.5 100.5v445h51v-430c0 -60.667 15 -109.167 45 -145.5s73.333 -54.5 130 -54.5s100.167 17.667 130.5 53s45.5 84.333 45.5 147v430h52v-445
c0 -38 -6 -71.5 -18 -100.5s-28.167 -53.5 -48.5 -73.5s-44.333 -35.167 -72 -45.5s-57.167 -15.5 -88.5 -15.5z" />
    <glyph glyph-name="V" unicode="V" horiz-adv-x="521" 
d="M231 0l-226 667h58l196 -596l204 596h53l-233 -667h-52z" />
    <glyph glyph-name="W" unicode="W" horiz-adv-x="718" 
d="M161 0l-151 667h53l126 -556l145 556h49l152 -559l121 559h52l-149 -667h-45l-156 566l-153 -566h-44z" />
    <glyph glyph-name="X" unicode="X" horiz-adv-x="465" 
d="M5 0l196 346l-179 321h61l149 -277l150 277h59l-179 -318l198 -349h-63l-166 306l-168 -306h-58z" />
    <glyph glyph-name="Y" unicode="Y" horiz-adv-x="499" 
d="M220 0v321l-215 346h59l183 -295l190 295h57l-222 -345v-322h-52z" />
    <glyph glyph-name="Z" unicode="Z" horiz-adv-x="518" 
d="M42 0v51l372 567h-356v49h408v-55l-369 -563h383v-49h-438z" />
    <glyph glyph-name="bracketleft" unicode="[" horiz-adv-x="194" 
d="M70 -143v879h119v-44h-72v-790h72v-45h-119z" />
    <glyph glyph-name="backslash" unicode="\" horiz-adv-x="447" 
d="M402 -18l-397 753l41 24l396 -751z" />
    <glyph glyph-name="bracketright" unicode="]" horiz-adv-x="194" 
d="M5 -143v45h72v790h-72v44h120v-879h-120z" />
    <glyph glyph-name="asciicircum" unicode="^" horiz-adv-x="476" 
d="M104 298l-43 19l154 352h44l157 -345l-44 -20l-135 301z" />
    <glyph glyph-name="underscore" unicode="_" horiz-adv-x="488" 
d="M0 -220v70h500v-70h-500z" />
    <glyph glyph-name="grave" unicode="`" horiz-adv-x="290" 
d="M172 545l-167 127l37 41l155 -139z" />
    <glyph glyph-name="a" unicode="a" horiz-adv-x="438" 
d="M196 -11c-21.333 0 -41.167 3.16797 -59.5 9.50098s-34.166 15.666 -47.499 27.999s-23.833 27.333 -31.5 45s-11.5 38.167 -11.5 61.5c0 46.667 16.667 84 50 112c32 28 70 45.667 114 53c42.667 6.66699 81.667 10.667 117 12v19c0 37.333 -8 65.666 -24 84.999
c-18 20.667 -44.333 31 -79 31c-26.667 0 -50.834 -5.33301 -72.501 -16s-40.167 -21.667 -55.5 -33l-18 40c5.33301 4.66699 13 10 23 16s21.5 11.833 34.5 17.5s27.167 10.334 42.5 14.001s31.333 5.5 48 5.5c50.667 0 89 -14.667 115 -44c23.333 -27.333 35 -66 35 -116
v-329h-44l-3 42c-14 -14.667 -32 -27.167 -54 -37.5s-48.333 -15.5 -79 -15.5zM202.999 33.001c25.333 0 48.668 5.66699 70.001 17s39.333 25 54 41v175c-78.667 -2 -136.667 -13.833 -174 -35.5s-56 -54.5 -56 -98.5c0 -19.333 3.66699 -35.5 11 -48.5
s16.5 -23.5 27.5 -31.5s22.667 -13.5 35 -16.5s23.166 -3.83301 32.499 -2.5z" />
    <glyph glyph-name="b" unicode="b" horiz-adv-x="488" 
d="M222 -11c-32 0 -61.166 3.16699 -87.499 9.5s-48.166 13.5 -65.499 21.5v647h49v-213c14 8.66699 31 16.667 51 24s43 11 69 11c49.333 0 90.5 -14.833 123.5 -44.5s54.5 -63.5 64.5 -101.5s15 -72 15 -102c0 -38.667 -5.66699 -73.5 -17 -104.5
s-26.833 -57.5 -46.5 -79.5s-42.834 -38.833 -69.501 -50.5s-55.334 -17.5 -86.001 -17.5zM213.001 33c30.667 0 57.498 6.33105 80.498 18.998s42 29.334 57 50.001s25.667 43.5 32 68.5s9.5 48.833 9.5 71.5c0 44 -9 82.667 -27 116c-17.333 33.333 -38.666 56 -63.999 68
s-49.666 18 -72.999 18c-22 0 -42.167 -3.66699 -60.5 -11s-34.833 -16.666 -49.5 -27.999v-353c14.667 -6 30.667 -10.667 48 -14s33 -5 47 -5z" />
    <glyph glyph-name="c" unicode="c" horiz-adv-x="438" 
d="M251 -11c-29.333 0 -56.499 5.49805 -81.499 16.498s-46.5 27.167 -64.5 48.5s-32.167 47.333 -42.5 78s-15.5 66 -15.5 106c0 60.667 11 110.667 33 150c15.333 26.667 33.166 47.834 53.499 63.501s40.333 25.834 60 30.501s36.5 7 50.5 7c30 0 58 -7.16699 84 -21.5
s45.167 -29.333 57.5 -45s19.5 -26.834 21.5 -33.501l-36 -25c-17.333 26.667 -35.333 46.834 -54 60.501s-43 20.5 -73 20.5c-32 0 -60.333 -11.333 -85 -34s-41.167 -49.5 -49.5 -80.5s-12.5 -61.5 -12.5 -91.5c0 -31.333 3.66699 -59.5 11 -84.5s18 -46.5 32 -64.5
s30.667 -31.833 50 -41.5s41 -14.5 65 -14.5c24.667 0 47 4.33301 67 13s40.667 24 62 46l19 -43c-14 -14.667 -33.667 -28.5 -59 -41.5s-56.333 -19.5 -93 -19.5z" />
    <glyph glyph-name="d" unicode="d" horiz-adv-x="490" 
d="M244 -11c-35.333 0 -65.667 7.66797 -91 23.001s-46 35.333 -62 60s-27.333 51.834 -34 81.501s-10 58.5 -10 86.5c0 36 5 69.167 15 99.5s24 56.666 42 78.999s39.833 39.666 65.5 51.999s54.5 18.5 86.5 18.5c28 0 51.333 -3.33301 70 -10s33.667 -13.667 45 -21v209
h50v-667h-45l-5 42c-14.667 -15.333 -32.5 -28 -53.5 -38s-45.5 -15 -73.5 -15zM249.999 33.001c25.333 0 48.335 5.99902 69.002 17.999s38 26.667 52 44v312c-10.667 9.33301 -25.834 18 -45.501 26s-40.834 12 -63.501 12c-29.333 0 -54.666 -6.66699 -75.999 -20
s-38.833 -30.166 -52.5 -50.499s-23.334 -42.833 -29.001 -67.5s-8.5 -47.667 -8.5 -69c0 -62 13.333 -111.667 40 -149s64.667 -56 114 -56z" />
    <glyph glyph-name="e" unicode="e" horiz-adv-x="468" 
d="M255 -11c-66.667 0 -117.999 22 -153.999 66s-54 105.333 -54 184c0 56.667 10 104.667 30 144c20.667 40 46.167 67.667 76.5 83s59.833 23 88.5 23c48.667 0 88.167 -15.5 118.5 -46.5s49.833 -64.833 58.5 -101.5s13 -68 13 -94h-336c0 -68 13.5 -120.667 40.5 -158
s66.833 -56 119.5 -56c56.667 0 104.334 20.333 143.001 61l15 -45c-9.33301 -9.33301 -21 -18.333 -35 -27c-12.667 -8 -30.834 -15.5 -54.501 -22.5s-46.834 -10.5 -69.501 -10.5zM100.001 291l276 -0.000976562c-2 36.667 -11 67.334 -27 92.001
c-16 25.333 -33.833 42 -53.5 50s-37.5 12 -53.5 12c-36 0 -66.833 -12.167 -92.5 -36.5s-42.167 -63.5 -49.5 -117.5z" />
    <glyph glyph-name="f" unicode="f" horiz-adv-x="257" 
d="M89 0v433h-67v44h68v54c0 51.333 11.333 89.333 34 114c21.333 23.333 50.333 35 87 35c20 0 37.167 -2.16699 51.5 -6.5s25.5 -8.5 33.5 -12.5l-11 -42c-8 4 -18.5 7.83301 -31.5 11.5s-27.167 5.5 -42.5 5.5c-22 0 -38.667 -6.66699 -50 -20
c-14.667 -16.667 -22 -46 -22 -88v-51h105v-44h-105v-433h-50z" />
    <glyph glyph-name="g" unicode="g" horiz-adv-x="475" 
d="M231 -198c-32 0 -64.998 4.66406 -98.998 13.9971c-31.333 8.66699 -51.333 16.334 -60 23.001l15 46c14.667 -9.33301 34.667 -18.166 60 -26.499s54 -12.5 86 -12.5c48 0 83.333 11.5 106 34.5s34 59.5 34 109.5v34c-12.667 -8.66699 -29.334 -16.667 -50.001 -24
s-45 -11 -73 -11c-28.667 0 -55.167 5.66699 -79.5 17s-45.5 27.5 -63.5 48.5s-32.167 46.833 -42.5 77.5s-15.5 65.667 -15.5 105c0 54 11.667 101.667 35 143c16.667 28.667 37.5 51.834 62.5 69.501s48.833 28.667 71.5 33s42.667 6.5 60 6.5c30 0 57.667 -2 83 -6
s46 -8 62 -12v-493c0 -52.667 -15.333 -95.167 -46 -127.5s-79.334 -48.5 -146.001 -48.5zM261.002 32.9971c23.333 0 45.001 4.50098 65.001 13.501s35.667 18.833 47 29.5v357c-11.333 3.33301 -24.833 6.16602 -40.5 8.49902s-33.167 3.5 -52.5 3.5
c-24 0 -47 -4.66699 -69 -14s-41.333 -23 -58 -41s-29.834 -40 -39.501 -66s-14.5 -55.667 -14.5 -89s4.33301 -62.5 13 -87.5s20.5 -46 35.5 -63s32.167 -29.833 51.5 -38.5s40 -13 62 -13z" />
    <glyph glyph-name="h" unicode="h" horiz-adv-x="495" 
d="M69 0l0.000976562 667h49v-232c17.333 14 38.166 26.5 62.499 37.5s52.5 16.5 84.5 16.5c44 0 79 -9 105 -27s44 -44 54 -78c6 -21.333 9 -50 9 -86v-298h-50v295c0 32.667 -3 57.667 -9 75c-17.333 49.333 -56 74 -116 74c-28 0 -53.5 -5.83301 -76.5 -17.5
s-44.167 -25.167 -63.5 -40.5v-386h-49z" />
    <glyph glyph-name="i" unicode="i" horiz-adv-x="187" 
d="M69 0v477h49v-477h-49zM93 578c-10 0 -18.5 3.33301 -25.5 10s-10.5 16.667 -10.5 30c0 12 3.5 21.5 10.5 28.5s15.5 10.5 25.5 10.5s18.5 -3.5 25.5 -10.5s10.5 -16.5 10.5 -28.5c0 -13.333 -3.5 -23.333 -10.5 -30s-15.5 -10 -25.5 -10z" />
    <glyph glyph-name="j" unicode="j" horiz-adv-x="187" 
d="M18 -196l-20 41c26.667 18 45.167 38.667 55.5 62s15.5 53.333 15.5 90v480h49v-480c0 -49.333 -8.33301 -88.833 -25 -118.5s-41.667 -54.5 -75 -74.5zM96 578c-10 0 -18.5 3.33301 -25.5 10s-10.5 16.667 -10.5 30c0 12 3.5 21.5 10.5 28.5s15.5 10.5 25.5 10.5
s18.5 -3.5 25.5 -10.5s10.5 -16.5 10.5 -28.5c0 -13.333 -3.5 -23.333 -10.5 -30s-15.5 -10 -25.5 -10z" />
    <glyph glyph-name="k" unicode="k" horiz-adv-x="439" 
d="M69 0l-0.000976562 666.998h49v-377h78c19.333 0 36 6.33301 50 19s28 35 42 67l44 101h53l-50 -110c-10.667 -23.333 -21.667 -43 -33 -59s-23.666 -26.667 -36.999 -32c18.667 -5.33301 33.5 -13.166 44.5 -23.499s21.167 -27.166 30.5 -50.499l80 -202h-52l-57 141
c-17.333 37.333 -29 61.333 -35 72s-15.333 18.667 -28 24s-26 8 -40 8h-90v-245h-49z" />
    <glyph glyph-name="l" unicode="l" horiz-adv-x="219" 
d="M148 -11c-26 0 -45.668 5.83203 -59.001 17.499s-20.666 24.834 -21.999 39.501s-2 26.667 -2 36v585h49v-573c0 -23.333 2.5 -39.833 7.5 -49.5s16.167 -14.5 33.5 -14.5c13.333 0 30 5 50 15l9 -40c-8.66699 -4.66699 -19 -8.5 -31 -11.5s-23.667 -4.5 -35 -4.5z" />
    <glyph glyph-name="m" unicode="m" horiz-adv-x="757" 
d="M69 0l0.000976562 477h45l3 -45c15.333 12.667 35 25.334 59 38.001s52 19 84 19c54.667 0 94.667 -19 120 -57c17.333 15.333 38.666 28.666 63.999 39.999s55 17 89 17c56 0 97.167 -16 123.5 -48s39.5 -78.333 39.5 -139v-302h-51v306c0 44.667 -10 78.667 -30 102
s-49 35 -87 35c-28 0 -52.833 -5.33301 -74.5 -16s-40.167 -22.667 -55.5 -36c4 -10 7.33301 -22.167 10 -36.5s4 -30.166 4 -47.499v-307h-50v311c0 34.667 -5.83301 61.667 -17.5 81s-26.5 32.666 -44.5 39.999s-34.333 11 -49 11c-24.667 0 -48.5 -6.16699 -71.5 -18.5
s-43.5 -26.833 -61.5 -43.5v-381h-49z" />
    <glyph glyph-name="n" unicode="n" horiz-adv-x="495" 
d="M69 0l0.000976562 477.003h44l5 -45c17.333 15.333 38.166 28.666 62.499 39.999s52.5 17 84.5 17c44.667 0 80 -8.83301 106 -26.5s43.667 -43.834 53 -78.501c6.66699 -20.667 10 -49.334 10 -86.001v-298h-50v295c0 32.667 -3 57.667 -9 75
c-17.333 49.333 -56 74 -116 74c-28.667 0 -54.667 -6 -78 -18s-44.333 -26.667 -63 -44v-382h-49z" />
    <glyph glyph-name="o" unicode="o" horiz-adv-x="497" 
d="M248 -11c-48 0 -88.333 15.001 -121 45.001c-29.333 26 -50 57.5 -62 94.5s-18 74.833 -18 113.5c0 50 9.66699 95 29 135s44.333 68.667 75 86s63 26 97 26c46.667 0 86.667 -14.667 120 -44c22 -20 39.333 -42.667 52 -68s21 -50.5 25 -75.5s6 -45.5 6 -61.5
c0 -52.667 -10.333 -99.334 -31 -140.001c-20 -40 -45.167 -68.5 -75.5 -85.5s-62.5 -25.5 -96.5 -25.5zM248 33.001c28.667 -1.33301 52.8301 5.50098 72.4971 20.501s35.667 33.333 48 55s21 44.667 26 69s7.16699 45.5 6.5 63.5c0.666992 44 -7.66602 82.667 -24.999 116
s-38.166 56.666 -62.499 69.999s-46.166 19.333 -65.499 18c-36.667 0 -67.667 -12.667 -93 -38c-23.333 -23.333 -39 -49.333 -47 -78s-12 -57.667 -12 -87c0 -26 3.16699 -51.5 9.5 -76.5s15.833 -47.333 28.5 -67s28.5 -35.5 47.5 -47.5s41.167 -18 66.5 -18z" />
    <glyph glyph-name="p" unicode="p" horiz-adv-x="488" 
d="M69 -193l0.000976562 670.002h44l5 -41c15.333 14 33.666 26.333 54.999 37s47 16 77 16c44 0 81.667 -13 113 -39c22.667 -19.333 39.334 -41.333 50.001 -66s18 -49.834 22 -75.501s6 -47.5 6 -65.5c0 -57.333 -11.333 -106.333 -34 -147
c-17.333 -31.333 -37.5 -55 -60.5 -71s-45 -26 -66 -30s-39.5 -6 -55.5 -6c-23.333 0 -43.833 2.66699 -61.5 8s-32.834 11.666 -45.501 18.999v-209h-49zM220.001 33.002c52 0 93.498 18.333 124.498 55s46.5 87.334 46.5 152.001c0.666992 48.667 -7.33301 89.5 -24 122.5
s-37 55.167 -61 66.5s-46 16.666 -66 15.999c-25.333 0 -48.166 -6 -68.499 -18s-38.166 -25.667 -53.499 -41v-319c12 -9.33301 26.5 -17.333 43.5 -24s36.5 -10 58.5 -10z" />
    <glyph glyph-name="q" unicode="q" horiz-adv-x="490" 
d="M371 -193l0.000976562 216.999c-12.667 -8.66699 -29.334 -16.667 -50.001 -24s-45 -11 -73 -11c-28.667 0 -55.167 5.66699 -79.5 17s-45.5 27.5 -63.5 48.5s-32.167 46.833 -42.5 77.5s-15.5 65.667 -15.5 105c0 54 11.667 101.667 35 143
c16.667 28.667 37.5 51.834 62.5 69.501s48.833 28.667 71.5 33s42.667 6.5 60 6.5c30 0 57.667 -2 83 -6s46 -8 62 -12v-664h-50zM259.001 32.999c23.333 0 45.001 4.50098 65.001 13.501s35.667 18.833 47 29.5v357c-11.333 3.33301 -24.833 6.16602 -40.5 8.49902
s-33.167 3.5 -52.5 3.5c-24 0 -47 -4.66699 -69 -14s-41.333 -23 -58 -41s-29.834 -40 -39.501 -66s-14.5 -55.667 -14.5 -89s4.33301 -62.5 13 -87.5s20.5 -46 35.5 -63s32.167 -29.833 51.5 -38.5s40 -13 62 -13z" />
    <glyph glyph-name="r" unicode="r" horiz-adv-x="292" 
d="M69 0l-0.000976562 477h43l4 -49c14 14 32.5 27.5 55.5 40.5s43.5 19.5 61.5 19.5c16.667 0 34.667 -2.33301 54 -7l-7 -48c-12 4.66699 -26 7 -42 7c-21.333 0 -42.166 -6.16699 -62.499 -18.5s-39.5 -27.5 -57.5 -45.5v-376h-49z" />
    <glyph glyph-name="s" unicode="s" horiz-adv-x="377" 
d="M188 -11c-39.333 0 -71 5.99902 -95 17.999s-41.333 23.333 -52 34l19 45c11.333 -11.333 28 -23 50 -35s48 -18 78 -18c34 0 60.167 7.5 78.5 22.5s27.5 36.5 27.5 64.5s-8.66699 50.667 -26 68c-18 18 -49.667 35.333 -95 52c-43.333 15.333 -74.333 32.833 -93 52.5
s-28 46.167 -28 79.5c0 26.667 8.16699 49.334 24.5 68.001s35.833 31.5 58.5 38.5s42.667 10.5 60 10.5c34 0 63.333 -6 88 -18s43.334 -24.667 56.001 -38l-21 -39c-19.333 16.667 -39 29.5 -59 38.5s-42.667 13.5 -68 13.5c-30 0 -52.333 -6.66699 -67 -20
s-22 -30.333 -22 -51c0 -12 1.83301 -22.333 5.5 -31s9.83398 -16.834 18.501 -24.501s20.5 -14.834 35.5 -21.501s33.5 -14 55.5 -22c42 -15.333 73.667 -34.166 95 -56.499s32 -54.166 32 -95.499c0 -24.667 -4.83301 -45.667 -14.5 -63s-22.334 -31.5 -38.001 -42.5
s-32.834 -18.667 -51.501 -23s-36 -6.5 -52 -6.5z" />
    <glyph glyph-name="t" unicode="t" horiz-adv-x="291" 
d="M194 -11c-44 0 -72.666 17.667 -85.999 53c-6 14 -9 32.333 -9 55v336h-78v44h78v127h49v-127h119v-44h-119v-332c0 -25.333 4.83301 -43 14.5 -53s23.167 -15 40.5 -15c15.333 0 34.666 7.33301 57.999 22l20 -37c-9.33301 -7.33301 -20.333 -14 -33 -20
s-30.667 -9 -54 -9z" />
    <glyph glyph-name="u" unicode="u" horiz-adv-x="494" 
d="M229 -12c-84 0 -136.669 34.665 -158.002 103.998c-6.66699 20.667 -10 49 -10 85v300h49v-298c0 -33.333 3.33301 -58 10 -74c9.33301 -25.333 23.5 -43.666 42.5 -54.999s43.5 -17 73.5 -17c28.667 0 54.334 6 77.001 18s43.667 26.667 63 44v382h49v-477h-45l-4 45
c-17.333 -15.333 -37.666 -28.666 -60.999 -39.999s-52 -17 -86 -17z" />
    <glyph glyph-name="v" unicode="v" horiz-adv-x="413" 
d="M181 0l-176 477h54l149 -414l149 414h51l-174 -477h-53z" />
    <glyph glyph-name="w" unicode="w" horiz-adv-x="628" 
d="M144 0l-139 477h54l113 -410l120 410h44l120 -408l115 408h52l-143 -477h-51l-116 393l-119 -393h-50z" />
    <glyph glyph-name="x" unicode="x" horiz-adv-x="371" 
d="M5 0l154 244l-146 233h55l118 -192l119 192h53l-146 -232l154 -245h-54l-126 204l-127 -204h-54z" />
    <glyph glyph-name="y" unicode="y" horiz-adv-x="448" 
d="M-4 -192l-6 43.999h8c42 0 80.667 12 116 36s62.333 57 81 99l-186 490h55l163 -438c28 58.667 56 125.834 84 201.501s53 154.5 75 236.5h52c-23.333 -92 -48.833 -173 -76.5 -243s-54.167 -132.333 -79.5 -187c-28.667 -60 -54.667 -105.833 -78 -137.5
s-53.333 -56.5 -90 -74.5s-76 -27 -118 -27z" />
    <glyph glyph-name="z" unicode="z" horiz-adv-x="426" 
d="M41 0v52l290 381h-279v44h329v-53l-290 -380h297v-44h-347z" />
    <glyph glyph-name="braceleft" unicode="{" horiz-adv-x="221" 
d="M206 -65c-24.667 0 -45.667 5.16992 -63 15.5029s-29.333 24.833 -36 43.5s-10 39 -10 61v150c0 38 -6.16699 64.5 -18.5 79.5s-32.166 24.833 -59.499 29.5v38c27.333 4.66699 47.166 14.5 59.499 29.5s18.5 41.5 18.5 79.5v150c0 32.667 6.5 58.667 19.5 78
s28 31.166 45 35.499s31.833 6.5 44.5 6.5l5 -38c-26.667 -1.33301 -44 -9.33301 -52 -24s-12 -37 -12 -67v-141c0 -36.667 -5.33301 -64.834 -16 -84.501s-30.334 -34.167 -59.001 -43.5c28.667 -9.33301 48.334 -23.833 59.001 -43.5s16 -47.834 16 -84.501v-141
c0 -30 4 -52.333 12 -67s25.333 -22.667 52 -24z" />
    <glyph glyph-name="bar" unicode="|" horiz-adv-x="187" 
d="M70 -74v812h47v-812h-47z" />
    <glyph glyph-name="braceright" unicode="}" horiz-adv-x="221" 
d="M15 -65l-5.00098 37.998c26.667 1.33301 44 9.33301 52 24s12 37 12 67v141c0 36.667 5.33301 64.834 16 84.501s30.334 34.167 59.001 43.5c-28.667 9.33301 -48.334 23.833 -59.001 43.5s-16 47.834 -16 84.501v141c0 30 -4 52.333 -12 67s-25.333 22.667 -52 24l5 38
c28.667 0 51.334 -6.83301 68.001 -20.5s27.667 -29.667 33 -48s8 -35.5 8 -51.5v-150c0 -38 6.16699 -64.5 18.5 -79.5s32.166 -24.833 59.499 -29.5v-38c-27.333 -4.66699 -47.166 -14.5 -59.499 -29.5s-18.5 -41.5 -18.5 -79.5v-150c0 -32 -5.66699 -56.833 -17 -74.5
s-25.5 -29.667 -42.5 -36s-33.5 -9.5 -49.5 -9.5z" />
    <glyph glyph-name="asciitilde" unicode="~" horiz-adv-x="412" 
d="M295 522c-17.333 0 -33.834 4.83496 -49.501 14.502s-32.167 21.167 -49.5 34.5c-28 22 -51 33 -69 33c-25.333 0 -44.333 -8 -57 -24s-20.667 -34.333 -24 -55h-42c5.33301 40 18.5 70.5 39.5 91.5s49.5 31.5 85.5 31.5c20 0 37.333 -3.83301 52 -11.5
s28 -16.167 40 -25.5c34.667 -28.667 60.334 -43 77.001 -43c21.333 0 37 7.66699 47 23s16.333 34.666 19 57.999h44c-2 -34.667 -11.333 -62.334 -28 -83.001s-33 -33.167 -49 -37.5s-28 -6.5 -36 -6.5z" />
    <glyph glyph-name="uni00A0" unicode="&#xa0;" horiz-adv-x="246" 
 />
    <glyph glyph-name="exclamdown" unicode="&#xa1;" horiz-adv-x="167" 
d="M61 -194v460h50v-460h-50zM86 399c-11.333 0 -20.666 3.66699 -27.999 11s-11 17.666 -11 30.999s3.66699 23.833 11 31.5s16.666 11.5 27.999 11.5s20.833 -3.83301 28.5 -11.5s11.5 -18.167 11.5 -31.5s-3.83301 -23.666 -11.5 -30.999s-17.167 -11 -28.5 -11z" />
    <glyph glyph-name="cent" unicode="&#xa2;" 
d="M243 -4l-0.000976562 145.001c-43.333 7.33301 -78.833 27.333 -106.5 60s-41.5 78 -41.5 136c0 39.333 8 73.666 24 102.999c16.667 29.333 36.334 49.833 59.001 61.5s44.334 19.167 65.001 22.5v143h38v-142c24.667 -1.33301 46.667 -7 66 -17
s34.666 -20.667 45.999 -32l-30 -34c-10 10 -21.667 18.333 -35 25s-29 10.667 -47 12v-292c31.333 2.66699 59 16 83 40l28 -35c-12.667 -14 -29.167 -25.833 -49.5 -35.5s-40.833 -15.167 -61.5 -16.5v-144h-38zM242.999 188.001v290c-28 -4 -51.333 -18 -70 -42
s-28 -57 -28 -99c0 -46 8.83301 -80.833 26.5 -104.5s41.5 -38.5 71.5 -44.5z" />
    <glyph glyph-name="sterling" unicode="&#xa3;" 
d="M111 0v260.999h-64v47h64v166c0 64.667 14.667 114 44 148s71 51 125 51c36 0 68 -9.16699 96 -27.5s49.667 -40.166 65 -65.499l-39 -32c-16 24.667 -32.833 43.667 -50.5 57s-41.167 20 -70.5 20c-78 0 -117 -51.667 -117 -155v-162h208v-47h-208v-213h278v-48h-331z
" />
    <glyph glyph-name="currency" unicode="&#xa4;" horiz-adv-x="645" 
d="M53 37l-20 23.0029l146 167c-16.667 25.333 -28.834 49.666 -36.501 72.999s-11.5 46.666 -11.5 69.999s3.5 46 10.5 68s18.167 45.667 33.5 71l-142 160l25 25l139 -159c23.333 19.333 45.5 33.166 66.5 41.499s42.167 12.5 63.5 12.5s41.833 -3.83301 61.5 -11.5
s40.834 -20.5 63.501 -38.5l134 155l26 -25l-137 -154c17.333 -26 29.666 -50.5 36.999 -73.5s11 -46.833 11 -71.5c0 -25.333 -4 -50 -12 -74s-21.333 -49 -40 -75l141 -162l-21 -22l-141 161c-23.333 -16.667 -44.666 -28.667 -63.999 -36s-39 -11 -59 -11
c-41.333 0 -83.333 17 -126 51zM327 184.003c34 0 64.333 10.335 91 31.002c28 21.333 47.333 46 58 74s16 54.667 16 80c0 38.667 -9.33301 72.667 -28 102c-18 30 -39.667 51.5 -65 64.5s-49.333 19.5 -72 19.5c-34 0 -64.667 -10.667 -92 -32
c-26.667 -20.667 -45.5 -45 -56.5 -73s-16.5 -55 -16.5 -81c0 -25.333 4.33301 -49.333 13 -72s20.5 -42.334 35.5 -59.001s32.5 -29.834 52.5 -39.501s41.333 -14.5 64 -14.5z" />
    <glyph glyph-name="yen" unicode="&#xa5;" 
d="M216 0v217h-145v47h145v51l-27 48h-118v47h93l-139 249h58l160 -295l170 295h55l-146 -249h91v-47h-117l-28 -47v-52h144v-47h-144v-217h-52z" />
    <glyph glyph-name="brokenbar" unicode="&#xa6;" horiz-adv-x="187" 
d="M70 -74v276h47v-276h-47zM70 462v276h47v-276h-47z" />
    <glyph glyph-name="section" unicode="&#xa7;" horiz-adv-x="400" 
d="M190 -146c-30 0 -55.3311 4.49609 -75.998 13.4961s-38.667 20.5 -54 34.5l25 42c14 -14.667 29.667 -26 47 -34s35.666 -12 54.999 -12c30 0 53.167 6.66699 69.5 20s24.5 32.666 24.5 57.999c0 24.667 -8.66699 47.334 -26 68.001s-48.666 48.334 -93.999 83.001
c-42 30 -69.667 56 -83 78s-20 47 -20 75c0 38 11.333 68.833 34 92.5s51 40.5 85 50.5c-28 23.333 -49.833 48.333 -65.5 75s-22.5 51.667 -20.5 75c0 34 11.167 60.667 33.5 80s53.5 29 93.5 29c30 0 54.5 -5.16699 73.5 -15.5s34.167 -22.166 45.5 -35.499l-26 -36
c-10.667 12.667 -23.834 23.167 -39.501 31.5s-34.167 12.5 -55.5 12.5c-52 0 -78 -22.333 -78 -67c0 -24 8.66699 -46.5 26 -67.5s43 -46.5 77 -76.5c44 -40.667 73.333 -72 88 -94c15.333 -21.333 23 -48.666 23 -81.999c0 -24.667 -6.83301 -47.5 -20.5 -68.5
s-28.834 -36.5 -45.501 -46.5s-29.667 -16 -39 -18c29.333 -24 50.666 -46.667 63.999 -68s20 -46.666 20 -75.999c0.666992 -20.667 -3.66602 -38.667 -12.999 -54s-21 -28 -35 -38s-29.5 -17.333 -46.5 -22s-32.5 -7 -46.5 -7zM212.002 144.996
c25.333 9.33301 47.001 23 65.001 41s27 40 27 66c0 20.667 -6.66699 41.334 -20 62.001c-12.667 19.333 -38.334 46 -77.001 80c-30 -7.33301 -54.167 -20.5 -72.5 -39.5s-27.5 -43.5 -27.5 -73.5c0 -24.667 6.16699 -44.334 18.5 -59.001s26.833 -28.667 43.5 -42z" />
    <glyph glyph-name="dieresis" unicode="&#xa8;" horiz-adv-x="290" 
d="M59 601c-10 0 -18.5 3.33301 -25.5 10s-10.5 16.667 -10.5 30c0 12 3.5 21.5 10.5 28.5s15.5 10.5 25.5 10.5s18.5 -3.5 25.5 -10.5s10.5 -16.5 10.5 -28.5c0 -13.333 -3.5 -23.333 -10.5 -30s-15.5 -10 -25.5 -10zM230 601c-10 0 -18.5 3.33301 -25.5 10
s-10.5 16.667 -10.5 30c0 12 3.5 21.5 10.5 28.5s15.5 10.5 25.5 10.5s18.5 -3.5 25.5 -10.5s10.5 -16.5 10.5 -28.5c0 -13.333 -3.5 -23.333 -10.5 -30s-15.5 -10 -25.5 -10z" />
    <glyph glyph-name="copyright" unicode="&#xa9;" horiz-adv-x="786" 
d="M393 -77c-54 0 -102.501 10.167 -145.501 30.5s-79.5 47.5 -109.5 81.5s-52.833 73.667 -68.5 119s-23.5 93 -23.5 143s7.83301 97.5 23.5 142.5s38.5 84.5 68.5 118.5s66.5 61 109.5 81s91.5 30 145.5 30c76.667 0 143.334 -20.667 200.001 -62
c56 -40.667 94.333 -90 115 -148c21.333 -58.667 32 -112.667 32 -162c0 -50 -7.83301 -97.667 -23.5 -143s-38.5 -85 -68.5 -119s-66.5 -61.167 -109.5 -81.5s-91.5 -30.5 -145.5 -30.5zM392.999 -35c66.667 0 124.5 18.834 173.5 56.501s82.5 82.5 100.5 134.5
c18 50.667 27 97.667 27 141c0 64.667 -15 124 -45 178c-30 55.333 -68.333 94.333 -115 117c-47.333 24 -94.333 36 -141 36c-47.333 0 -89.666 -9.16699 -126.999 -27.5s-68.833 -42.833 -94.5 -73.5s-45.334 -66 -59.001 -106s-20.5 -81.333 -20.5 -124
s6.83301 -84 20.5 -124s33.334 -75.333 59.001 -106s57.167 -55.334 94.5 -74.001s79.666 -28 126.999 -28zM398.999 72.001c-24 0 -46.665 4.33203 -67.998 12.999s-40 22.167 -56 40.5s-28.667 41.5 -38 69.5s-14 61.333 -14 100c0 56 9.66699 101.667 29 137
c13.333 24.667 30 44.334 50 59.001s38.167 23.667 54.5 27s30.833 5 43.5 5c34 0 61.833 -8 83.5 -24s38.167 -34 49.5 -54l-36 -21c-10.667 17.333 -23.167 31.333 -37.5 42s-34.833 16 -61.5 16c-38 0 -69 -16 -93 -48s-36 -78.333 -36 -139
c0 -58.667 12.333 -103.667 37 -135s56 -47 94 -47c23.333 0 43.166 5.5 59.499 16.5s30.166 25.5 41.499 43.5l34 -25c-14 -22.667 -31.667 -41 -53 -55s-49 -21 -83 -21z" />
    <glyph glyph-name="ordfeminine" unicode="&#xaa;" horiz-adv-x="313" 
d="M145 364c-18 0 -34.167 3.00098 -48.5 9.00098s-26.5 14.167 -36.5 24.5s-17 22.166 -21 35.499s-6 26.666 -6 39.999c0 26 6.33301 47.5 19 64.5s29.167 30.667 49.5 41s42.333 17.5 66 21.5s45.167 6 64.5 6v19c0 24.667 -6.33301 42.834 -19 54.501s-30 17.5 -52 17.5
c-16 0 -31 -2.66699 -45 -8s-28.667 -14.333 -44 -27l-18 31c12 10.667 27.333 20.5 46 29.5s40 13.5 64 13.5c36 0 63.667 -10 83 -30s29 -51 29 -93v-240h-39l-3 29c-8 -7.33301 -19.333 -15.5 -34 -24.5s-33 -13.5 -55 -13.5zM147 405.001c18 0 34.333 3.83496 49 11.502
s26.667 17.167 36 28.5v123c-38 0 -69.667 -5.33301 -95 -16s-41.833 -23.334 -49.5 -38.001s-11.5 -28.334 -11.5 -41.001c0 -23.333 7 -40.5 21 -51.5s30.667 -16.5 50 -16.5z" />
    <glyph glyph-name="guillemotleft" unicode="&#xab;" horiz-adv-x="467" 
d="M221 59l-183 191l167 199l31 -29l-140 -166l154 -165zM395 59l-187 191l171 199l30 -29l-145 -166l159 -164z" />
    <glyph glyph-name="logicalnot" unicode="&#xac;" 
d="M417 85v223h-381v48h428v-271h-47z" />
    <glyph glyph-name="uni00AD" unicode="&#xad;" horiz-adv-x="292" 
d="M46 239v53h201v-53h-201z" />
    <glyph glyph-name="registered" unicode="&#xae;" horiz-adv-x="786" 
d="M393 -77c-54 0 -102.501 10.167 -145.501 30.5s-79.5 47.5 -109.5 81.5s-52.833 73.667 -68.5 119s-23.5 93 -23.5 143s7.83301 97.5 23.5 142.5s38.5 84.5 68.5 118.5s66.5 61 109.5 81s91.5 30 145.5 30c76.667 0 143.334 -20.667 200.001 -62
c56 -40.667 94.333 -90 115 -148c21.333 -58.667 32 -112.667 32 -162c0 -50 -7.83301 -97.667 -23.5 -143s-38.5 -85 -68.5 -119s-66.5 -61.167 -109.5 -81.5s-91.5 -30.5 -145.5 -30.5zM392.999 -35c66.667 0 124.5 18.834 173.5 56.501s82.5 82.5 100.5 134.5
c18 50.667 27 97.667 27 141c0 64.667 -15 124 -45 178c-30 55.333 -68.333 94.333 -115 117c-47.333 24 -94.333 36 -141 36c-47.333 0 -89.666 -9.16699 -126.999 -27.5s-68.833 -42.833 -94.5 -73.5s-45.334 -66 -59.001 -106s-20.5 -81.333 -20.5 -124
s6.83301 -84 20.5 -124s33.334 -75.333 59.001 -106s57.167 -55.334 94.5 -74.001s79.666 -28 126.999 -28zM268.999 84.001l0.000976562 434.001h135c44 0 77.833 -10.5 101.5 -31.5s35.5 -49.833 35.5 -86.5c0 -19.333 -2.66699 -36 -8 -50s-12.833 -25.667 -22.5 -35
s-20.834 -16.833 -33.501 -22.5s-26 -9.83398 -40 -12.501l112 -196h-51l-109 193h-77v-193h-43zM312 317.002h89c30.667 0 54.167 6.33301 70.5 19s24.5 34 24.5 64c0 25.333 -8 44.833 -24 58.5s-38.333 20.5 -67 20.5h-93v-162z" />
    <glyph glyph-name="macron" unicode="&#xaf;" horiz-adv-x="290" 
d="M5 607v46h279v-46h-279z" />
    <glyph glyph-name="degree" unicode="&#xb0;" horiz-adv-x="343" 
d="M180 388c-18.667 0 -36.335 3.66309 -53.002 10.9961s-31.167 17.333 -43.5 30s-22.166 27.334 -29.499 44.001s-11 34.667 -11 54c0 20 4.33301 38.833 13 56.5s20 32.834 34 45.501s29 22.167 45 28.5s31 9.5 45 9.5c22 0 41.667 -4.66699 59 -14
s31.833 -21.166 43.5 -35.499s20.334 -29.666 26.001 -45.999s8.5 -31.166 8.5 -44.499c0 -30.667 -9 -57.834 -27 -81.501s-37.833 -39.167 -59.5 -46.5s-38.5 -11 -50.5 -11zM179.999 429.996c21.333 0 40 6.33203 56 18.999s26.5 26.5 31.5 41.5s7.5 27.167 7.5 36.5
c0 22 -6 40.333 -18 55s-25.167 25.334 -39.5 32.001s-26.833 10 -37.5 10c-26.667 0 -49 -9.5 -67 -28.5s-27 -41.833 -27 -68.5c0 -20.667 5.66699 -39.667 17 -57c12 -16 24.667 -26.667 38 -32s26.333 -8 39 -8z" />
    <glyph glyph-name="plusminus" unicode="&#xb1;" 
d="M36 0v48h428v-48h-428zM227 85v223h-191v48h191v222h47v-222h190v-48h-190v-223h-47z" />
    <glyph glyph-name="twosuperior" unicode="&#xb2;" horiz-adv-x="276" 
d="M40 335l-0.00195312 39c0 16 2.5 30.667 7.5 44s15.833 26.333 32.5 39l59 45c20.667 15.333 35 28.5 43 39.5s12 24.833 12 41.5c0 14 -4.16699 25.5 -12.5 34.5s-22.833 13.5 -43.5 13.5c-18.667 0 -35.5 -4.5 -50.5 -13.5s-27.167 -18.5 -36.5 -28.5l-20 36
c4.66699 8 18.834 18 42.501 30s46.5 18 68.5 18c34.667 0 59.834 -8.5 75.501 -25.5s23.5 -37.167 23.5 -60.5s-5.33301 -42.5 -16 -57.5s-26.667 -30.5 -48 -46.5l-65 -50c-12 -9.33301 -19.333 -18.333 -22 -27s-4 -18.667 -4 -30h160v-41h-206z" />
    <glyph glyph-name="threesuperior" unicode="&#xb3;" horiz-adv-x="276" 
d="M127 332c-25.333 0 -46.999 3.99805 -64.999 11.998s-30 15 -36 21l16 38c7.33301 -7.33301 18.666 -14.666 33.999 -21.999s32.666 -11 51.999 -11c22.667 0 40.834 5.66699 54.501 17s20.5 27 20.5 47c0 24.667 -8.66699 42.5 -26 53.5s-40 16.5 -68 16.5
c-10 0 -19 -0.666992 -27 -2v33c10 13.333 23.667 28 41 44s37.666 32 60.999 48h-137v42h198v-44c-24 -14.667 -46.167 -29.667 -66.5 -45s-35.833 -29.666 -46.5 -42.999c38.667 0 67.834 -9.66699 87.501 -29s29.5 -42 29.5 -68c0 -32 -10.833 -58 -32.5 -78
s-51.5 -30 -89.5 -30z" />
    <glyph glyph-name="acute" unicode="&#xb4;" horiz-adv-x="290" 
d="M73 545l-24 29l155 139l37 -41z" />
    <glyph glyph-name="mu" unicode="&#xb5;" horiz-adv-x="505" 
d="M71 -193l-0.000976562 670h49v-318c0 -42 12 -73.5 36 -94.5s56 -31.5 96 -31.5c30 0 55.333 6.5 76 19.5s39.667 29.5 57 49.5v375h49v-477h-44l-5 45c-17.333 -18 -36.166 -31.833 -56.499 -41.5s-47.5 -14.5 -81.5 -14.5c-35.333 0 -62.5 5 -81.5 15
s-34.167 22.333 -45.5 37v-234h-49z" />
    <glyph glyph-name="paragraph" unicode="&#xb6;" horiz-adv-x="464" 
d="M221 -145l-0.00195312 433.999c-39.333 0 -74.666 10.667 -105.999 32c-15.333 10.667 -28.166 22.5 -38.499 35.5s-18.5 26.333 -24.5 40s-10.333 27.334 -13 41.001s-4 27.167 -4 40.5c0 26 4.5 50.5 13.5 73.5s21.5 43 37.5 60s34.5 30.5 55.5 40.5s43.5 15 67.5 15
h58v-812h-46zM349.998 -145.001v812h47v-812h-47z" />
    <glyph glyph-name="periodcentered" unicode="&#xb7;" horiz-adv-x="272" 
d="M136 325c-11.333 0 -21 4 -29 12s-12 19 -12 33c0 13.333 4 24 12 32s17.667 12 29 12s21.166 -4 29.499 -12s12.5 -18.667 12.5 -32c0 -14 -4.16699 -25 -12.5 -33s-18.166 -12 -29.499 -12z" />
    <glyph glyph-name="cedilla" unicode="&#xb8;" horiz-adv-x="290" 
d="M91 -174l48 130h59l-68 -130h-39z" />
    <glyph glyph-name="onesuperior" unicode="&#xb9;" horiz-adv-x="276" 
d="M137 335v282l-76 -45l-20 36l100 61h41v-334h-45z" />
    <glyph glyph-name="ordmasculine" unicode="&#xba;" horiz-adv-x="362" 
d="M181 366c-24.667 0 -46.1689 5.33203 -64.502 15.999s-33.666 24.834 -45.999 42.501s-21.666 37.667 -27.999 60s-9.5 45.5 -9.5 69.5c0 26.667 3.83301 51.667 11.5 75s18.5 43.333 32.5 60s30 29 48 37s36.667 12 56 12c36.667 0 67.167 -12.5 91.5 -37.5
s40 -51.667 47 -80s10.5 -50.833 10.5 -67.5c0 -38 -7.33301 -72.167 -22 -102.5s-33.5 -52 -56.5 -65s-46.5 -19.5 -70.5 -19.5zM180.998 404.999c18.667 0 34.834 4.83008 48.501 14.4971s24.667 22.334 33 38.001s14.333 32.334 18 50.001s5.5 33.167 5.5 46.5
c0 28.667 -5.5 55 -16.5 79s-25.333 41 -43 51s-32.834 15 -45.501 15c-24.667 0 -46 -9 -64 -27c-17.333 -17.333 -28.5 -36.833 -33.5 -58.5s-7.5 -41.5 -7.5 -59.5c0 -31.333 5.33301 -59.166 16 -83.499s23.667 -41.333 39 -51s32 -14.5 50 -14.5z" />
    <glyph glyph-name="guillemotright" unicode="&#xbb;" horiz-adv-x="467" 
d="M88 59l-30 29l145 167l-159 163l28 31l187 -191zM262 60l-31 28l140 167l-154 164l29 30l183 -191z" />
    <glyph glyph-name="onequarter" unicode="&#xbc;" horiz-adv-x="680" 
d="M67 -7l-31 35l591 644l31 -33zM133 335v282l-76 -45l-20 36l100 61h41v-334h-45zM553 0v77h-159v40l166 217h37v-217h42v-40h-42v-77h-44zM441 117h112v147z" />
    <glyph glyph-name="onehalf" unicode="&#xbd;" horiz-adv-x="680" 
d="M43 -7l-31 35l591 644l31 -33zM129 335v282l-76 -45l-20 36l100 61h41v-334h-45zM426 4l-0.00195312 39c0 16 2.5 30.667 7.5 44s15.833 26.333 32.5 39l59 45c20.667 15.333 35 28.5 43 39.5s12 24.833 12 41.5c0 14 -4.16699 25.5 -12.5 34.5s-22.833 13.5 -43.5 13.5
c-18.667 0 -35.5 -4.5 -50.5 -13.5s-27.167 -18.5 -36.5 -28.5l-20 36c4.66699 8 18.834 18 42.501 30s46.5 18 68.5 18c34.667 0 59.834 -8.5 75.501 -25.5s23.5 -37.167 23.5 -60.5s-5.33301 -42.5 -16 -57.5s-26.667 -30.5 -48 -46.5l-65 -50
c-12 -9.33301 -19.333 -18.333 -22 -27s-4 -18.667 -4 -30h160v-41h-206z" />
    <glyph glyph-name="threequarters" unicode="&#xbe;" horiz-adv-x="680" 
d="M107 -7l-31 35l591 644l31 -33zM155 332c-25.333 0 -46.999 3.99805 -64.999 11.998s-30 15 -36 21l16 38c7.33301 -7.33301 18.666 -14.666 33.999 -21.999s32.666 -11 51.999 -11c22.667 0 40.834 5.66699 54.501 17s20.5 27 20.5 47c0 24.667 -8.66699 42.5 -26 53.5
s-40 16.5 -68 16.5c-10 0 -19 -0.666992 -27 -2v33c10 13.333 23.667 28 41 44s37.666 32 60.999 48h-137v42h198v-44c-24 -14.667 -46.167 -29.667 -66.5 -45s-35.833 -29.666 -46.5 -42.999c38.667 0 67.834 -9.66699 87.501 -29s29.5 -42 29.5 -68
c0 -32 -10.833 -58 -32.5 -78s-51.5 -30 -89.5 -30zM568.001 -0.00195312v77h-159v40l166 217h37v-217h42v-40h-42v-77h-44zM456.001 116.998h112v147z" />
    <glyph glyph-name="questiondown" unicode="&#xbf;" horiz-adv-x="341" 
d="M173.061 490.996c11.3291 0 20.6592 -3.83203 27.9902 -11.4961s10.9961 -18.1602 10.9961 -31.4883s-3.66504 -23.6572 -10.9961 -30.9883s-16.6611 -10.9961 -27.9902 -10.9961s-20.8262 3.66504 -28.4902 10.9961s-11.4961 17.6602 -11.4961 30.9883
s3.83203 23.8242 11.4961 31.4883s17.1611 11.4961 28.4902 11.4961zM198.051 288.07l0.000976562 -29.9883c0 -29.9893 -6.66406 -55.6465 -19.9922 -76.9717c-13.3291 -21.3252 -28.6572 -42.3174 -45.9844 -62.9766
c-19.3262 -21.9922 -34.3203 -41.4854 -44.9834 -58.4785c-10.6631 -16.9941 -18.4932 -33.8213 -23.4912 -50.4814c-4.99902 -16.6611 -7.49805 -33.3223 -7.49805 -49.9834c0 -33.9873 9.99609 -59.9775 29.9893 -77.9707s46.9834 -26.9902 80.9707 -26.9902
c29.9893 0 54.9805 7.66406 74.9736 22.9912c19.9922 15.3281 37.9854 33.6553 53.9795 54.9805l31.9883 -31.9883c-17.3271 -25.3242 -39.9854 -47.1494 -67.9746 -65.4766s-59.6445 -27.4902 -94.9658 -27.4902c-51.9805 0 -91.9658 13.6621 -119.955 40.9854
c-27.9902 27.3232 -41.9854 64.9766 -41.9854 112.959c0 32.6543 7.83008 63.3096 23.4912 91.9658s36.4873 57.3125 62.4775 85.9688c27.3232 30.6553 43.9834 53.3135 49.9805 67.9746c7.33105 15.9941 10.9961 34.3213 10.9961 54.9805v25.9902h47.9824z" />
    <glyph glyph-name="Agrave" unicode="&#xc0;" horiz-adv-x="533" 
d="M5 0l236 667h48l239 -667h-55l-78 214h-260l-76 -214h-54zM151 264h228l-115 340zM340 711l-167 127l37 41l155 -139z" />
    <glyph glyph-name="Aacute" unicode="&#xc1;" horiz-adv-x="533" 
d="M5 0l236 667h48l239 -667h-55l-78 214h-260l-76 -214h-54zM151 264h228l-115 340zM202 711l-24 29l155 139l37 -41z" />
    <glyph glyph-name="Acircumflex" unicode="&#xc2;" horiz-adv-x="533" 
d="M5 0l236 667h48l239 -667h-55l-78 214h-260l-76 -214h-54zM151 264h228l-115 340zM165 708l-29 26l113 150h31l113 -150l-29 -26l-100 129z" />
    <glyph glyph-name="Atilde" unicode="&#xc3;" horiz-adv-x="533" 
d="M5 0l236 667h48l239 -667h-55l-78 214h-260l-76 -214h-54zM151 264h228l-115 340zM330 740c-13.333 0 -26.5029 3.33496 -39.5029 10.002s-24.167 13.667 -33.5 21c-27.333 19.333 -47 29 -59 29c-11.333 0 -21.666 -4.33301 -30.999 -13s-18.333 -23.334 -27 -44.001
l-35 15c10.667 28.667 24.334 49.5 41.001 62.5s36 19.5 58 19.5c13.333 0 26 -3 38 -9s24 -13.333 36 -22c22.667 -18 41.334 -27 56.001 -27c10 0 19.833 4.66699 29.5 14s19.167 25.666 28.5 48.999l35 -17c-12 -32 -26.667 -54.667 -44 -68s-35 -20 -53 -20z" />
    <glyph glyph-name="Adieresis" unicode="&#xc4;" horiz-adv-x="533" 
d="M5 0l236 667h48l239 -667h-55l-78 214h-260l-76 -214h-54zM151 264h228l-115 340zM178 767c-10 0 -18.5 3.33301 -25.5 10s-10.5 16.667 -10.5 30c0 12 3.5 21.5 10.5 28.5s15.5 10.5 25.5 10.5s18.5 -3.5 25.5 -10.5s10.5 -16.5 10.5 -28.5
c0 -13.333 -3.5 -23.333 -10.5 -30s-15.5 -10 -25.5 -10zM349 767c-10 0 -18.5 3.33301 -25.5 10s-10.5 16.667 -10.5 30c0 12 3.5 21.5 10.5 28.5s15.5 10.5 25.5 10.5s18.5 -3.5 25.5 -10.5s10.5 -16.5 10.5 -28.5c0 -13.333 -3.5 -23.333 -10.5 -30s-15.5 -10 -25.5 -10z
" />
    <glyph glyph-name="Aring" unicode="&#xc5;" horiz-adv-x="533" 
d="M5 0l236 667h48l239 -667h-55l-78 214h-260l-76 -214h-54zM151 264h228l-115 340zM262 700c-17.333 0 -31.999 3.33496 -43.999 10.002s-21.833 15.167 -29.5 25.5s-12.834 21.166 -15.501 32.499s-4 21.666 -4 30.999c0 22.667 5.33301 42 16 58s23.167 27 37.5 33
s27.5 9 39.5 9c22 0 41 -7 57 -21s26.167 -28.667 30.5 -44s6.5 -27 6.5 -35c0 -22 -5.83301 -42 -17.5 -60s-24.5 -29 -38.5 -33s-26.667 -6 -38 -6zM263.001 735.002c16.667 0 29.835 5.83301 39.502 17.5s14.5 27.167 14.5 46.5c0 18 -5.33301 33.333 -16 46
s-23.334 19 -38.001 19s-27.334 -6.33301 -38.001 -19s-16 -28 -16 -46c0 -19.333 5 -34.833 15 -46.5s23 -17.5 39 -17.5z" />
    <glyph glyph-name="AE" unicode="&#xc6;" horiz-adv-x="793" 
d="M-5 0l386 667h368v-49h-305v-240h221v-49h-221v-280h323v-49h-373v214h-222l-124 -214h-53zM199 264h195v340z" />
    <glyph glyph-name="Ccedilla" unicode="&#xc7;" horiz-adv-x="542" 
d="M312 -12c-41.333 0 -78.168 8.00195 -110.501 24.002s-59.833 38.833 -82.5 68.5s-39.834 65.667 -51.501 108s-17.5 89.833 -17.5 142.5c0 56.667 6.5 106.667 19.5 150s31 79.666 54 108.999s50.167 51.666 81.5 66.999s65.333 23 102 23
c46.667 0 87.334 -11.833 122.001 -35.5s61 -54.5 79 -92.5l-42 -33c-14 28 -31.833 50.667 -53.5 68s-41.5 29 -59.5 35s-33 8.66699 -45 8c-45.333 0 -84.666 -14.667 -117.999 -44c-31.333 -28.667 -53.666 -66.667 -66.999 -114c-12 -46 -18 -93.333 -18 -142
c0 -43.333 4.83301 -83 14.5 -119s23.667 -66.833 42 -92.5s40.5 -45.667 66.5 -60s55.333 -21.5 88 -21.5c36 0 67.333 7.66699 94 23s50.667 37 72 65l30 -42c-12 -15.333 -28.667 -31.333 -50 -48c-18 -14 -40.833 -25.333 -68.5 -34s-54.834 -13 -81.501 -13z
M235.998 -173.998l48 130h59l-68 -130h-39z" />
    <glyph glyph-name="Egrave" unicode="&#xc8;" horiz-adv-x="476" 
d="M76 0v667h356v-49h-305v-240h221v-49h-221v-280h323v-49h-374zM314 711l-167 127l37 41l155 -139z" />
    <glyph glyph-name="Eacute" unicode="&#xc9;" horiz-adv-x="476" 
d="M76 0v667h356v-49h-305v-240h221v-49h-221v-280h323v-49h-374zM193 711l-24 29l155 139l37 -41z" />
    <glyph glyph-name="Ecircumflex" unicode="&#xca;" horiz-adv-x="476" 
d="M76 0v667h356v-49h-305v-240h221v-49h-221v-280h323v-49h-374zM154 708l-29 26l113 150h31l113 -150l-29 -26l-100 129z" />
    <glyph glyph-name="Edieresis" unicode="&#xcb;" horiz-adv-x="476" 
d="M76 0v667h356v-49h-305v-240h221v-49h-221v-280h323v-49h-374zM173 767c-10 0 -18.5 3.33301 -25.5 10s-10.5 16.667 -10.5 30c0 12 3.5 21.5 10.5 28.5s15.5 10.5 25.5 10.5s18.5 -3.5 25.5 -10.5s10.5 -16.5 10.5 -28.5c0 -13.333 -3.5 -23.333 -10.5 -30
s-15.5 -10 -25.5 -10zM344 767c-10 0 -18.5 3.33301 -25.5 10s-10.5 16.667 -10.5 30c0 12 3.5 21.5 10.5 28.5s15.5 10.5 25.5 10.5s18.5 -3.5 25.5 -10.5s10.5 -16.5 10.5 -28.5c0 -13.333 -3.5 -23.333 -10.5 -30s-15.5 -10 -25.5 -10z" />
    <glyph glyph-name="Igrave" unicode="&#xcc;" horiz-adv-x="204" 
d="M76 0v667h52v-667h-52zM172 711l-167 127l37 41l155 -139z" />
    <glyph glyph-name="Iacute" unicode="&#xcd;" horiz-adv-x="204" 
d="M76 0v667h52v-667h-52zM50 711l-24 29l155 139l37 -41z" />
    <glyph glyph-name="Icircumflex" unicode="&#xce;" horiz-adv-x="204" 
d="M76 0v667h52v-667h-52zM9 708l-29 26l113 150h31l113 -150l-29 -26l-100 129z" />
    <glyph glyph-name="Idieresis" unicode="&#xcf;" horiz-adv-x="204" 
d="M76 0v667h52v-667h-52zM22 767c-10 0 -18.5 3.33301 -25.5 10s-10.5 16.667 -10.5 30c0 12 3.5 21.5 10.5 28.5s15.5 10.5 25.5 10.5s18.5 -3.5 25.5 -10.5s10.5 -16.5 10.5 -28.5c0 -13.333 -3.5 -23.333 -10.5 -30s-15.5 -10 -25.5 -10zM193 767
c-10 0 -18.5 3.33301 -25.5 10s-10.5 16.667 -10.5 30c0 12 3.5 21.5 10.5 28.5s15.5 10.5 25.5 10.5s18.5 -3.5 25.5 -10.5s10.5 -16.5 10.5 -28.5c0 -13.333 -3.5 -23.333 -10.5 -30s-15.5 -10 -25.5 -10z" />
    <glyph glyph-name="Eth" unicode="&#xd0;" horiz-adv-x="579" 
d="M72 0l0.000976562 313.001h-68v49h68v305h156c28 0 54.667 -2.33301 80 -7s48.666 -12.667 69.999 -24c48 -23.333 85.5 -59.333 112.5 -108s40.5 -110.334 40.5 -185.001c0 -92 -17.5 -165.333 -52.5 -220s-83.5 -91 -145.5 -109c-32 -9.33301 -67 -14 -105 -14h-156z
M124.001 49.001l95.002 -0.000976562c17.333 0 35.166 1 53.499 3s35.166 6 50.499 12c46.667 17.333 84 48.333 112 93s42 105.334 42 182.001c0 58.667 -9 107.834 -27 147.501s-44 70.5 -78 92.5c-20 13.333 -42.833 23.166 -68.5 29.499s-52.5 9.5 -80.5 9.5h-99v-256
h167v-49h-167v-264z" />
    <glyph glyph-name="Ntilde" unicode="&#xd1;" horiz-adv-x="613" 
d="M76 0v667h55l355 -562v562h51v-667h-45l-365 575v-575h-51zM385 740c-13.333 0 -26.5029 3.33496 -39.5029 10.002s-24.167 13.667 -33.5 21c-27.333 19.333 -47 29 -59 29c-11.333 0 -21.666 -4.33301 -30.999 -13s-18.333 -23.334 -27 -44.001l-35 15
c10.667 28.667 24.334 49.5 41.001 62.5s36 19.5 58 19.5c13.333 0 26 -3 38 -9s24 -13.333 36 -22c22.667 -18 41.334 -27 56.001 -27c10 0 19.833 4.66699 29.5 14s19.167 25.666 28.5 48.999l35 -17c-12 -32 -26.667 -54.667 -44 -68s-35 -20 -53 -20z" />
    <glyph glyph-name="Ograve" unicode="&#xd2;" horiz-adv-x="617" 
d="M309 -13c-44 0 -82.168 9.83496 -114.501 29.502s-59.333 45.667 -81 78s-37.667 69.333 -48 111s-15.5 84.5 -15.5 128.5c0 69.333 12.333 132 37 188c16 39.333 37.667 71.5 65 96.5s55 41.5 83 49.5s52.667 12 74 12c62.667 0 114 -20 154 -60
c40.667 -38.667 68 -85.334 82 -140.001c14.667 -52.667 22 -101.334 22 -146.001c0 -72 -12.333 -135.667 -37 -191c-17.333 -40 -39.666 -72.167 -66.999 -96.5s-54.333 -40.333 -81 -48s-51 -11.5 -73 -11.5zM308.999 36.002c48 0 88.5 17.499 121.5 52.499
s55.167 75.833 66.5 122.5c10.667 44.667 16 85.667 16 123c0 58.667 -9.33301 111 -28 157c-18 48 -42.833 83.333 -74.5 106s-65.5 34 -101.5 34c-35.333 0 -66 -8.66699 -92 -26s-47.333 -40.166 -64 -68.499s-29 -60.166 -37 -95.499s-12 -71 -12 -107
c0 -56.667 9.66699 -110.334 29 -161.001c20 -50 45.667 -85.333 77 -106s64.333 -31 99 -31zM393.999 711.001l-167 127l37 41l155 -139z" />
    <glyph glyph-name="Oacute" unicode="&#xd3;" horiz-adv-x="617" 
d="M309 -13c-44 0 -82.168 9.83496 -114.501 29.502s-59.333 45.667 -81 78s-37.667 69.333 -48 111s-15.5 84.5 -15.5 128.5c0 69.333 12.333 132 37 188c16 39.333 37.667 71.5 65 96.5s55 41.5 83 49.5s52.667 12 74 12c62.667 0 114 -20 154 -60
c40.667 -38.667 68 -85.334 82 -140.001c14.667 -52.667 22 -101.334 22 -146.001c0 -72 -12.333 -135.667 -37 -191c-17.333 -40 -39.666 -72.167 -66.999 -96.5s-54.333 -40.333 -81 -48s-51 -11.5 -73 -11.5zM308.999 36.002c48 0 88.5 17.499 121.5 52.499
s55.167 75.833 66.5 122.5c10.667 44.667 16 85.667 16 123c0 58.667 -9.33301 111 -28 157c-18 48 -42.833 83.333 -74.5 106s-65.5 34 -101.5 34c-35.333 0 -66 -8.66699 -92 -26s-47.333 -40.166 -64 -68.499s-29 -60.166 -37 -95.499s-12 -71 -12 -107
c0 -56.667 9.66699 -110.334 29 -161.001c20 -50 45.667 -85.333 77 -106s64.333 -31 99 -31zM246.999 711.001l-24 29l155 139l37 -41z" />
    <glyph glyph-name="Ocircumflex" unicode="&#xd4;" horiz-adv-x="617" 
d="M309 -13c-44 0 -82.168 9.83496 -114.501 29.502s-59.333 45.667 -81 78s-37.667 69.333 -48 111s-15.5 84.5 -15.5 128.5c0 69.333 12.333 132 37 188c16 39.333 37.667 71.5 65 96.5s55 41.5 83 49.5s52.667 12 74 12c62.667 0 114 -20 154 -60
c40.667 -38.667 68 -85.334 82 -140.001c14.667 -52.667 22 -101.334 22 -146.001c0 -72 -12.333 -135.667 -37 -191c-17.333 -40 -39.666 -72.167 -66.999 -96.5s-54.333 -40.333 -81 -48s-51 -11.5 -73 -11.5zM308.999 36.002c48 0 88.5 17.499 121.5 52.499
s55.167 75.833 66.5 122.5c10.667 44.667 16 85.667 16 123c0 58.667 -9.33301 111 -28 157c-18 48 -42.833 83.333 -74.5 106s-65.5 34 -101.5 34c-35.333 0 -66 -8.66699 -92 -26s-47.333 -40.166 -64 -68.499s-29 -60.166 -37 -95.499s-12 -71 -12 -107
c0 -56.667 9.66699 -110.334 29 -161.001c20 -50 45.667 -85.333 77 -106s64.333 -31 99 -31zM214.999 708.001l-29 26l113 150h31l113 -150l-29 -26l-100 129z" />
    <glyph glyph-name="Otilde" unicode="&#xd5;" horiz-adv-x="617" 
d="M309 -13c-44 0 -82.168 9.83496 -114.501 29.502s-59.333 45.667 -81 78s-37.667 69.333 -48 111s-15.5 84.5 -15.5 128.5c0 69.333 12.333 132 37 188c16 39.333 37.667 71.5 65 96.5s55 41.5 83 49.5s52.667 12 74 12c62.667 0 114 -20 154 -60
c40.667 -38.667 68 -85.334 82 -140.001c14.667 -52.667 22 -101.334 22 -146.001c0 -72 -12.333 -135.667 -37 -191c-17.333 -40 -39.666 -72.167 -66.999 -96.5s-54.333 -40.333 -81 -48s-51 -11.5 -73 -11.5zM308.999 36.002c48 0 88.5 17.499 121.5 52.499
s55.167 75.833 66.5 122.5c10.667 44.667 16 85.667 16 123c0 58.667 -9.33301 111 -28 157c-18 48 -42.833 83.333 -74.5 106s-65.5 34 -101.5 34c-35.333 0 -66 -8.66699 -92 -26s-47.333 -40.166 -64 -68.499s-29 -60.166 -37 -95.499s-12 -71 -12 -107
c0 -56.667 9.66699 -110.334 29 -161.001c20 -50 45.667 -85.333 77 -106s64.333 -31 99 -31zM377.999 740.001c-13.333 0 -26.5029 3.33496 -39.5029 10.002s-24.167 13.667 -33.5 21c-27.333 19.333 -47 29 -59 29c-11.333 0 -21.666 -4.33301 -30.999 -13
s-18.333 -23.334 -27 -44.001l-35 15c10.667 28.667 24.334 49.5 41.001 62.5s36 19.5 58 19.5c13.333 0 26 -3 38 -9s24 -13.333 36 -22c22.667 -18 41.334 -27 56.001 -27c10 0 19.833 4.66699 29.5 14s19.167 25.666 28.5 48.999l35 -17c-12 -32 -26.667 -54.667 -44 -68
s-35 -20 -53 -20z" />
    <glyph glyph-name="Odieresis" unicode="&#xd6;" horiz-adv-x="617" 
d="M309 -13c-44 0 -82.168 9.83496 -114.501 29.502s-59.333 45.667 -81 78s-37.667 69.333 -48 111s-15.5 84.5 -15.5 128.5c0 69.333 12.333 132 37 188c16 39.333 37.667 71.5 65 96.5s55 41.5 83 49.5s52.667 12 74 12c62.667 0 114 -20 154 -60
c40.667 -38.667 68 -85.334 82 -140.001c14.667 -52.667 22 -101.334 22 -146.001c0 -72 -12.333 -135.667 -37 -191c-17.333 -40 -39.666 -72.167 -66.999 -96.5s-54.333 -40.333 -81 -48s-51 -11.5 -73 -11.5zM308.999 36.002c48 0 88.5 17.499 121.5 52.499
s55.167 75.833 66.5 122.5c10.667 44.667 16 85.667 16 123c0 58.667 -9.33301 111 -28 157c-18 48 -42.833 83.333 -74.5 106s-65.5 34 -101.5 34c-35.333 0 -66 -8.66699 -92 -26s-47.333 -40.166 -64 -68.499s-29 -60.166 -37 -95.499s-12 -71 -12 -107
c0 -56.667 9.66699 -110.334 29 -161.001c20 -50 45.667 -85.333 77 -106s64.333 -31 99 -31zM223.999 767.001c-10 0 -18.5 3.33301 -25.5 10s-10.5 16.667 -10.5 30c0 12 3.5 21.5 10.5 28.5s15.5 10.5 25.5 10.5s18.5 -3.5 25.5 -10.5s10.5 -16.5 10.5 -28.5
c0 -13.333 -3.5 -23.333 -10.5 -30s-15.5 -10 -25.5 -10zM394.999 767.001c-10 0 -18.5 3.33301 -25.5 10s-10.5 16.667 -10.5 30c0 12 3.5 21.5 10.5 28.5s15.5 10.5 25.5 10.5s18.5 -3.5 25.5 -10.5s10.5 -16.5 10.5 -28.5c0 -13.333 -3.5 -23.333 -10.5 -30
s-15.5 -10 -25.5 -10z" />
    <glyph glyph-name="multiply" unicode="&#xd7;" 
d="M102 140l-33 35l149 156l-149 157l33 35l148 -157l149 157l34 -35l-150 -157l150 -156l-34 -35l-149 157z" />
    <glyph glyph-name="Oslash" unicode="&#xd8;" horiz-adv-x="618" 
d="M85 -22l-37 31l65 87c-21.333 32.667 -37 69.5 -47 110.5s-15 83.5 -15 127.5c0 69.333 12.333 132 37 188c16 39.333 37.667 71.5 65 96.5s54.833 41.5 82.5 49.5s52.5 12 74.5 12c38 0 71.667 -7.33301 101 -22s54.666 -34.667 75.999 -60l64 87l39 -31l-74 -99
c17.333 -32 30.333 -66.833 39 -104.5s13 -76.5 13 -116.5c0 -43.333 -5.16699 -85.833 -15.5 -127.5s-26 -78.667 -47 -111s-47.833 -58.5 -80.5 -78.5s-71 -30 -115 -30c-34.667 0 -65.667 6.33301 -93 19s-51.666 29.667 -72.999 51zM310 36c48 0 88.5 17.5 121.5 52.5
s55.167 75.833 66.5 122.5c10.667 44.667 16 85.667 16 123c0 30 -2.83301 59.833 -8.5 89.5s-14.167 57.5 -25.5 83.5l-303 -406c16 -20 35.167 -35.833 57.5 -47.5s47.5 -17.5 75.5 -17.5zM149 144l304 409.998c-16.667 23.333 -36.667 42 -60 56s-51 21 -83 21
c-35.333 0 -66 -8.66699 -92 -26s-47.333 -40.166 -64 -68.499s-29 -60.166 -37 -95.499s-12 -71 -12 -107c0 -34 3.5 -67.167 10.5 -99.5s18.167 -62.5 33.5 -90.5z" />
    <glyph glyph-name="Ugrave" unicode="&#xd9;" horiz-adv-x="591" 
d="M296 -13c-32 0 -61.833 5.16699 -89.5 15.5s-51.667 25.5 -72 45.5s-36.333 44.5 -48 73.5s-17.5 62.5 -17.5 100.5v445h51v-430c0 -60.667 15 -109.167 45 -145.5s73.333 -54.5 130 -54.5s100.167 17.667 130.5 53s45.5 84.333 45.5 147v430h52v-445
c0 -38 -6 -71.5 -18 -100.5s-28.167 -53.5 -48.5 -73.5s-44.333 -35.167 -72 -45.5s-57.167 -15.5 -88.5 -15.5zM369 711l-167 127l37 41l155 -139z" />
    <glyph glyph-name="Uacute" unicode="&#xda;" horiz-adv-x="591" 
d="M296 -13c-32 0 -61.833 5.16699 -89.5 15.5s-51.667 25.5 -72 45.5s-36.333 44.5 -48 73.5s-17.5 62.5 -17.5 100.5v445h51v-430c0 -60.667 15 -109.167 45 -145.5s73.333 -54.5 130 -54.5s100.167 17.667 130.5 53s45.5 84.333 45.5 147v430h52v-445
c0 -38 -6 -71.5 -18 -100.5s-28.167 -53.5 -48.5 -73.5s-44.333 -35.167 -72 -45.5s-57.167 -15.5 -88.5 -15.5zM255 711l-24 29l155 139l37 -41z" />
    <glyph glyph-name="Ucircumflex" unicode="&#xdb;" horiz-adv-x="591" 
d="M296 -13c-32 0 -61.833 5.16699 -89.5 15.5s-51.667 25.5 -72 45.5s-36.333 44.5 -48 73.5s-17.5 62.5 -17.5 100.5v445h51v-430c0 -60.667 15 -109.167 45 -145.5s73.333 -54.5 130 -54.5s100.167 17.667 130.5 53s45.5 84.333 45.5 147v430h52v-445
c0 -38 -6 -71.5 -18 -100.5s-28.167 -53.5 -48.5 -73.5s-44.333 -35.167 -72 -45.5s-57.167 -15.5 -88.5 -15.5zM203 708l-29 26l113 150h31l113 -150l-29 -26l-100 129z" />
    <glyph glyph-name="Udieresis" unicode="&#xdc;" horiz-adv-x="591" 
d="M296 -13c-32 0 -61.833 5.16699 -89.5 15.5s-51.667 25.5 -72 45.5s-36.333 44.5 -48 73.5s-17.5 62.5 -17.5 100.5v445h51v-430c0 -60.667 15 -109.167 45 -145.5s73.333 -54.5 130 -54.5s100.167 17.667 130.5 53s45.5 84.333 45.5 147v430h52v-445
c0 -38 -6 -71.5 -18 -100.5s-28.167 -53.5 -48.5 -73.5s-44.333 -35.167 -72 -45.5s-57.167 -15.5 -88.5 -15.5zM213 767c-10 0 -18.5 3.33301 -25.5 10s-10.5 16.667 -10.5 30c0 12 3.5 21.5 10.5 28.5s15.5 10.5 25.5 10.5s18.5 -3.5 25.5 -10.5s10.5 -16.5 10.5 -28.5
c0 -13.333 -3.5 -23.333 -10.5 -30s-15.5 -10 -25.5 -10zM384 767c-10 0 -18.5 3.33301 -25.5 10s-10.5 16.667 -10.5 30c0 12 3.5 21.5 10.5 28.5s15.5 10.5 25.5 10.5s18.5 -3.5 25.5 -10.5s10.5 -16.5 10.5 -28.5c0 -13.333 -3.5 -23.333 -10.5 -30s-15.5 -10 -25.5 -10z
" />
    <glyph glyph-name="Yacute" unicode="&#xdd;" horiz-adv-x="499" 
d="M220 0v321l-215 346h59l183 -295l190 295h57l-222 -345v-322h-52zM234 711l-24 29l155 139l37 -41z" />
    <glyph glyph-name="Thorn" unicode="&#xde;" horiz-adv-x="494" 
d="M72 0v667h52v-141h146c64 0 113.333 -16.5 148 -49.5s52 -81.833 52 -146.5c0 -31.333 -5 -59 -15 -83s-23.833 -44 -41.5 -60s-38.667 -28 -63 -36s-50.833 -12 -79.5 -12h-147v-139h-52zM124 188h147.001c44 0 78.833 12.833 104.5 38.5s38.5 60.5 38.5 104.5
c0 46 -11.833 81.833 -35.5 107.5s-59.834 38.5 -108.501 38.5h-146v-289z" />
    <glyph glyph-name="germandbls" unicode="&#xdf;" horiz-adv-x="510" 
d="M338 -11c-26 0 -50.9932 3.66992 -74.9932 11.0029c-22.667 8 -38 14.833 -46 20.5s-14 11.167 -18 16.5l18 44c13.333 -12 30.666 -23 51.999 -33s44.333 -15 69 -15c28 0 50 7.66699 66 23s24 36.333 24 63c0 30.667 -9.66699 54.167 -29 70.5s-47 31.5 -83 45.5
c-32.667 12 -58.834 27.167 -78.501 45.5s-29.5 44.833 -29.5 79.5c0 18.667 4.16699 35.5 12.5 50.5s19.166 27.667 32.499 38s28.333 17.833 45 22.5s32.667 6.66699 48 6h27c-1.33301 52.667 -12.333 92.334 -33 119.001s-48.334 40 -83.001 40
c-36 0 -64.833 -11.5 -86.5 -34.5s-32.5 -59.5 -32.5 -109.5v-492h-49v433h-67v44h67v21c-0.666992 31.333 4.16602 58.666 14.499 81.999s23.666 42.666 39.999 57.999s34.666 26.166 54.999 32.499s39.833 9.5 58.5 9.5c48.667 0 88 -17.667 118 -53s45 -85.333 45 -150
v-44h-73c-30 0 -52.5 -6.5 -67.5 -19.5s-22.5 -30.5 -22.5 -52.5c0 -17.333 3.83301 -31.333 11.5 -42s19.5 -19.667 35.5 -27s34 -14.333 54 -21c44 -16.667 74.833 -36.5 92.5 -59.5s26.5 -53.167 26.5 -90.5c0 -40.667 -12.667 -72.834 -38 -96.501s-59 -35.5 -101 -35.5
z" />
    <glyph glyph-name="agrave" unicode="&#xe0;" horiz-adv-x="438" 
d="M196 -11c-21.333 0 -41.167 3.16797 -59.5 9.50098s-34.166 15.666 -47.499 27.999s-23.833 27.333 -31.5 45s-11.5 38.167 -11.5 61.5c0 46.667 16.667 84 50 112c32 28 70 45.667 114 53c42.667 6.66699 81.667 10.667 117 12v19c0 37.333 -8 65.666 -24 84.999
c-18 20.667 -44.333 31 -79 31c-26.667 0 -50.834 -5.33301 -72.501 -16s-40.167 -21.667 -55.5 -33l-18 40c5.33301 4.66699 13 10 23 16s21.5 11.833 34.5 17.5s27.167 10.334 42.5 14.001s31.333 5.5 48 5.5c50.667 0 89 -14.667 115 -44c23.333 -27.333 35 -66 35 -116
v-329h-44l-3 42c-14 -14.667 -32 -27.167 -54 -37.5s-48.333 -15.5 -79 -15.5zM202.999 33.001c25.333 0 48.668 5.66699 70.001 17s39.333 25 54 41v175c-78.667 -2 -136.667 -13.833 -174 -35.5s-56 -54.5 -56 -98.5c0 -19.333 3.66699 -35.5 11 -48.5
s16.5 -23.5 27.5 -31.5s22.667 -13.5 35 -16.5s23.166 -3.83301 32.499 -2.5zM296.001 545.001l-167 127l37 41l155 -139z" />
    <glyph glyph-name="aacute" unicode="&#xe1;" horiz-adv-x="438" 
d="M196 -11c-21.333 0 -41.167 3.16797 -59.5 9.50098s-34.166 15.666 -47.499 27.999s-23.833 27.333 -31.5 45s-11.5 38.167 -11.5 61.5c0 46.667 16.667 84 50 112c32 28 70 45.667 114 53c42.667 6.66699 81.667 10.667 117 12v19c0 37.333 -8 65.666 -24 84.999
c-18 20.667 -44.333 31 -79 31c-26.667 0 -50.834 -5.33301 -72.501 -16s-40.167 -21.667 -55.5 -33l-18 40c5.33301 4.66699 13 10 23 16s21.5 11.833 34.5 17.5s27.167 10.334 42.5 14.001s31.333 5.5 48 5.5c50.667 0 89 -14.667 115 -44c23.333 -27.333 35 -66 35 -116
v-329h-44l-3 42c-14 -14.667 -32 -27.167 -54 -37.5s-48.333 -15.5 -79 -15.5zM202.999 33.001c25.333 0 48.668 5.66699 70.001 17s39.333 25 54 41v175c-78.667 -2 -136.667 -13.833 -174 -35.5s-56 -54.5 -56 -98.5c0 -19.333 3.66699 -35.5 11 -48.5
s16.5 -23.5 27.5 -31.5s22.667 -13.5 35 -16.5s23.166 -3.83301 32.499 -2.5zM168.001 545.001l-24 29l155 139l37 -41z" />
    <glyph glyph-name="acircumflex" unicode="&#xe2;" horiz-adv-x="438" 
d="M196 -11c-21.333 0 -41.167 3.16797 -59.5 9.50098s-34.166 15.666 -47.499 27.999s-23.833 27.333 -31.5 45s-11.5 38.167 -11.5 61.5c0 46.667 16.667 84 50 112c32 28 70 45.667 114 53c42.667 6.66699 81.667 10.667 117 12v19c0 37.333 -8 65.666 -24 84.999
c-18 20.667 -44.333 31 -79 31c-26.667 0 -50.834 -5.33301 -72.501 -16s-40.167 -21.667 -55.5 -33l-18 40c5.33301 4.66699 13 10 23 16s21.5 11.833 34.5 17.5s27.167 10.334 42.5 14.001s31.333 5.5 48 5.5c50.667 0 89 -14.667 115 -44c23.333 -27.333 35 -66 35 -116
v-329h-44l-3 42c-14 -14.667 -32 -27.167 -54 -37.5s-48.333 -15.5 -79 -15.5zM202.999 33.001c25.333 0 48.668 5.66699 70.001 17s39.333 25 54 41v175c-78.667 -2 -136.667 -13.833 -174 -35.5s-56 -54.5 -56 -98.5c0 -19.333 3.66699 -35.5 11 -48.5
s16.5 -23.5 27.5 -31.5s22.667 -13.5 35 -16.5s23.166 -3.83301 32.499 -2.5zM124.001 542.001l-29 26l113 150h31l113 -150l-29 -26l-100 129z" />
    <glyph glyph-name="atilde" unicode="&#xe3;" horiz-adv-x="438" 
d="M196 -11c-21.333 0 -41.167 3.16797 -59.5 9.50098s-34.166 15.666 -47.499 27.999s-23.833 27.333 -31.5 45s-11.5 38.167 -11.5 61.5c0 46.667 16.667 84 50 112c32 28 70 45.667 114 53c42.667 6.66699 81.667 10.667 117 12v19c0 37.333 -8 65.666 -24 84.999
c-18 20.667 -44.333 31 -79 31c-26.667 0 -50.834 -5.33301 -72.501 -16s-40.167 -21.667 -55.5 -33l-18 40c5.33301 4.66699 13 10 23 16s21.5 11.833 34.5 17.5s27.167 10.334 42.5 14.001s31.333 5.5 48 5.5c50.667 0 89 -14.667 115 -44c23.333 -27.333 35 -66 35 -116
v-329h-44l-3 42c-14 -14.667 -32 -27.167 -54 -37.5s-48.333 -15.5 -79 -15.5zM202.999 33.001c25.333 0 48.668 5.66699 70.001 17s39.333 25 54 41v175c-78.667 -2 -136.667 -13.833 -174 -35.5s-56 -54.5 -56 -98.5c0 -19.333 3.66699 -35.5 11 -48.5
s16.5 -23.5 27.5 -31.5s22.667 -13.5 35 -16.5s23.166 -3.83301 32.499 -2.5zM290.001 574.001c-13.333 0 -26.5029 3.33496 -39.5029 10.002s-24.167 13.667 -33.5 21c-27.333 19.333 -47 29 -59 29c-11.333 0 -21.666 -4.33301 -30.999 -13s-18.333 -23.334 -27 -44.001
l-35 15c10.667 28.667 24.334 49.5 41.001 62.5s36 19.5 58 19.5c13.333 0 26 -3 38 -9s24 -13.333 36 -22c22.667 -18 41.334 -27 56.001 -27c10 0 19.833 4.66699 29.5 14s19.167 25.666 28.5 48.999l35 -17c-12 -32 -26.667 -54.667 -44 -68s-35 -20 -53 -20z" />
    <glyph glyph-name="adieresis" unicode="&#xe4;" horiz-adv-x="438" 
d="M196 -11c-21.333 0 -41.167 3.16797 -59.5 9.50098s-34.166 15.666 -47.499 27.999s-23.833 27.333 -31.5 45s-11.5 38.167 -11.5 61.5c0 46.667 16.667 84 50 112c32 28 70 45.667 114 53c42.667 6.66699 81.667 10.667 117 12v19c0 37.333 -8 65.666 -24 84.999
c-18 20.667 -44.333 31 -79 31c-26.667 0 -50.834 -5.33301 -72.501 -16s-40.167 -21.667 -55.5 -33l-18 40c5.33301 4.66699 13 10 23 16s21.5 11.833 34.5 17.5s27.167 10.334 42.5 14.001s31.333 5.5 48 5.5c50.667 0 89 -14.667 115 -44c23.333 -27.333 35 -66 35 -116
v-329h-44l-3 42c-14 -14.667 -32 -27.167 -54 -37.5s-48.333 -15.5 -79 -15.5zM202.999 33.001c25.333 0 48.668 5.66699 70.001 17s39.333 25 54 41v175c-78.667 -2 -136.667 -13.833 -174 -35.5s-56 -54.5 -56 -98.5c0 -19.333 3.66699 -35.5 11 -48.5
s16.5 -23.5 27.5 -31.5s22.667 -13.5 35 -16.5s23.166 -3.83301 32.499 -2.5zM137.001 601.001c-10 0 -18.5 3.33301 -25.5 10s-10.5 16.667 -10.5 30c0 12 3.5 21.5 10.5 28.5s15.5 10.5 25.5 10.5s18.5 -3.5 25.5 -10.5s10.5 -16.5 10.5 -28.5
c0 -13.333 -3.5 -23.333 -10.5 -30s-15.5 -10 -25.5 -10zM308.001 601.001c-10 0 -18.5 3.33301 -25.5 10s-10.5 16.667 -10.5 30c0 12 3.5 21.5 10.5 28.5s15.5 10.5 25.5 10.5s18.5 -3.5 25.5 -10.5s10.5 -16.5 10.5 -28.5c0 -13.333 -3.5 -23.333 -10.5 -30
s-15.5 -10 -25.5 -10z" />
    <glyph glyph-name="aring" unicode="&#xe5;" horiz-adv-x="438" 
d="M196 -11c-21.333 0 -41.167 3.16797 -59.5 9.50098s-34.166 15.666 -47.499 27.999s-23.833 27.333 -31.5 45s-11.5 38.167 -11.5 61.5c0 46.667 16.667 84 50 112c32 28 70 45.667 114 53c42.667 6.66699 81.667 10.667 117 12v19c0 37.333 -8 65.666 -24 84.999
c-18 20.667 -44.333 31 -79 31c-26.667 0 -50.834 -5.33301 -72.501 -16s-40.167 -21.667 -55.5 -33l-18 40c5.33301 4.66699 13 10 23 16s21.5 11.833 34.5 17.5s27.167 10.334 42.5 14.001s31.333 5.5 48 5.5c50.667 0 89 -14.667 115 -44c23.333 -27.333 35 -66 35 -116
v-329h-44l-3 42c-14 -14.667 -32 -27.167 -54 -37.5s-48.333 -15.5 -79 -15.5zM202.999 33.001c25.333 0 48.668 5.66699 70.001 17s39.333 25 54 41v175c-78.667 -2 -136.667 -13.833 -174 -35.5s-56 -54.5 -56 -98.5c0 -19.333 3.66699 -35.5 11 -48.5
s16.5 -23.5 27.5 -31.5s22.667 -13.5 35 -16.5s23.166 -3.83301 32.499 -2.5zM231.001 534.001c-17.333 0 -31.999 3.33496 -43.999 10.002s-21.833 15.167 -29.5 25.5s-12.834 21.166 -15.501 32.499s-4 21.666 -4 30.999c0 22.667 5.33301 42 16 58s23.167 27 37.5 33
s27.5 9 39.5 9c22 0 41 -7 57 -21s26.167 -28.667 30.5 -44s6.5 -27 6.5 -35c0 -22 -5.83301 -42 -17.5 -60s-24.5 -29 -38.5 -33s-26.667 -6 -38 -6zM232.002 569.003c16.667 0 29.835 5.83301 39.502 17.5s14.5 27.167 14.5 46.5c0 18 -5.33301 33.333 -16 46
s-23.334 19 -38.001 19s-27.334 -6.33301 -38.001 -19s-16 -28 -16 -46c0 -19.333 5 -34.833 15 -46.5s23 -17.5 39 -17.5z" />
    <glyph glyph-name="ae" unicode="&#xe6;" horiz-adv-x="756" 
d="M202 -11c-50 0 -88.498 13.167 -115.498 39.5s-40.5 62.5 -40.5 108.5c0 32.667 9.16699 60.167 27.5 82.5s38 38 59 47s38.5 15.167 52.5 18.5c38 7.33301 78.667 11 122 11h32v33c0 17.333 -2.66699 33.833 -8 49.5s-11.666 27.167 -18.999 34.5
c-20 21.333 -48.333 32 -85 32c-26.667 0 -51.5 -5.33301 -74.5 -16s-41.833 -21.667 -56.5 -33l-18 41c15.333 10 29 18.333 41 25c13.333 6.66699 30.666 12.834 51.999 18.501s40.666 8.5 57.999 8.5c42.667 0 74.834 -8 96.501 -24s38.167 -38 49.5 -66
c16.667 30 38.167 52.5 64.5 67.5s56.5 22.5 90.5 22.5c62 0 108.833 -21.333 140.5 -64s48.167 -100.334 49.5 -173.001h-334c0 -68 13.167 -121.5 39.5 -160.5s65.833 -58.5 118.5 -58.5c56.667 0 104.334 20.333 143.001 61l15 -45
c-9.33301 -9.33301 -21 -18.333 -35 -27c-12.667 -8 -30.834 -15.5 -54.501 -22.5s-46.834 -10.5 -69.501 -10.5c-83.333 0 -141.333 32.667 -174 98c-12.667 -33.333 -34.334 -58 -65.001 -74s-64.667 -24 -102 -24zM208.002 33c30 0 55.501 6.66895 76.501 20.002
s35.5 29 43.5 47s12 33.667 12 47v105h-31c-44.667 0 -81.334 -2.66699 -110.001 -8c-13.333 -2.66699 -26 -6.83398 -38 -12.501s-22.667 -12.834 -32 -21.501s-16.833 -19.167 -22.5 -31.5s-8.5 -26.5 -8.5 -42.5c0 -36 10.333 -62.167 31 -78.5s47 -24.5 79 -24.5z
M390.003 296.002h273.998c-2 38 -12.167 69.167 -30.5 93.5s-37.5 39.833 -57.5 46.5s-35.333 9.66699 -46 9c-35.333 0 -66.166 -12.333 -92.499 -37s-42.166 -62 -47.499 -112z" />
    <glyph glyph-name="ccedilla" unicode="&#xe7;" horiz-adv-x="438" 
d="M251 -11c-29.333 0 -56.499 5.49805 -81.499 16.498s-46.5 27.167 -64.5 48.5s-32.167 47.333 -42.5 78s-15.5 66 -15.5 106c0 60.667 11 110.667 33 150c15.333 26.667 33.166 47.834 53.499 63.501s40.333 25.834 60 30.501s36.5 7 50.5 7c30 0 58 -7.16699 84 -21.5
s45.167 -29.333 57.5 -45s19.5 -26.834 21.5 -33.501l-36 -25c-17.333 26.667 -35.333 46.834 -54 60.501s-43 20.5 -73 20.5c-32 0 -60.333 -11.333 -85 -34s-41.167 -49.5 -49.5 -80.5s-12.5 -61.5 -12.5 -91.5c0 -31.333 3.66699 -59.5 11 -84.5s18 -46.5 32 -64.5
s30.667 -31.833 50 -41.5s41 -14.5 65 -14.5c24.667 0 47 4.33301 67 13s40.667 24 62 46l19 -43c-14 -14.667 -33.667 -28.5 -59 -41.5s-56.333 -19.5 -93 -19.5zM177.001 -174.002l48 130h59l-68 -130h-39z" />
    <glyph glyph-name="egrave" unicode="&#xe8;" horiz-adv-x="468" 
d="M255 -11c-66.667 0 -117.999 22 -153.999 66s-54 105.333 -54 184c0 56.667 10 104.667 30 144c20.667 40 46.167 67.667 76.5 83s59.833 23 88.5 23c48.667 0 88.167 -15.5 118.5 -46.5s49.833 -64.833 58.5 -101.5s13 -68 13 -94h-336c0 -68 13.5 -120.667 40.5 -158
s66.833 -56 119.5 -56c56.667 0 104.334 20.333 143.001 61l15 -45c-9.33301 -9.33301 -21 -18.333 -35 -27c-12.667 -8 -30.834 -15.5 -54.501 -22.5s-46.834 -10.5 -69.501 -10.5zM100.001 291l276 -0.000976562c-2 36.667 -11 67.334 -27 92.001
c-16 25.333 -33.833 42 -53.5 50s-37.5 12 -53.5 12c-36 0 -66.833 -12.167 -92.5 -36.5s-42.167 -63.5 -49.5 -117.5zM317.001 544.999l-167 127l37 41l155 -139z" />
    <glyph glyph-name="eacute" unicode="&#xe9;" horiz-adv-x="468" 
d="M255 -11c-66.667 0 -117.999 22 -153.999 66s-54 105.333 -54 184c0 56.667 10 104.667 30 144c20.667 40 46.167 67.667 76.5 83s59.833 23 88.5 23c48.667 0 88.167 -15.5 118.5 -46.5s49.833 -64.833 58.5 -101.5s13 -68 13 -94h-336c0 -68 13.5 -120.667 40.5 -158
s66.833 -56 119.5 -56c56.667 0 104.334 20.333 143.001 61l15 -45c-9.33301 -9.33301 -21 -18.333 -35 -27c-12.667 -8 -30.834 -15.5 -54.501 -22.5s-46.834 -10.5 -69.501 -10.5zM100.001 291l276 -0.000976562c-2 36.667 -11 67.334 -27 92.001
c-16 25.333 -33.833 42 -53.5 50s-37.5 12 -53.5 12c-36 0 -66.833 -12.167 -92.5 -36.5s-42.167 -63.5 -49.5 -117.5zM187.001 544.999l-24 29l155 139l37 -41z" />
    <glyph glyph-name="ecircumflex" unicode="&#xea;" horiz-adv-x="468" 
d="M255 -11c-66.667 0 -117.999 22 -153.999 66s-54 105.333 -54 184c0 56.667 10 104.667 30 144c20.667 40 46.167 67.667 76.5 83s59.833 23 88.5 23c48.667 0 88.167 -15.5 118.5 -46.5s49.833 -64.833 58.5 -101.5s13 -68 13 -94h-336c0 -68 13.5 -120.667 40.5 -158
s66.833 -56 119.5 -56c56.667 0 104.334 20.333 143.001 61l15 -45c-9.33301 -9.33301 -21 -18.333 -35 -27c-12.667 -8 -30.834 -15.5 -54.501 -22.5s-46.834 -10.5 -69.501 -10.5zM100.001 291l276 -0.000976562c-2 36.667 -11 67.334 -27 92.001
c-16 25.333 -33.833 42 -53.5 50s-37.5 12 -53.5 12c-36 0 -66.833 -12.167 -92.5 -36.5s-42.167 -63.5 -49.5 -117.5zM147.001 541.999l-29 26l113 150h31l113 -150l-29 -26l-100 129z" />
    <glyph glyph-name="edieresis" unicode="&#xeb;" horiz-adv-x="468" 
d="M255 -11c-66.667 0 -117.999 22 -153.999 66s-54 105.333 -54 184c0 56.667 10 104.667 30 144c20.667 40 46.167 67.667 76.5 83s59.833 23 88.5 23c48.667 0 88.167 -15.5 118.5 -46.5s49.833 -64.833 58.5 -101.5s13 -68 13 -94h-336c0 -68 13.5 -120.667 40.5 -158
s66.833 -56 119.5 -56c56.667 0 104.334 20.333 143.001 61l15 -45c-9.33301 -9.33301 -21 -18.333 -35 -27c-12.667 -8 -30.834 -15.5 -54.501 -22.5s-46.834 -10.5 -69.501 -10.5zM100.001 291l276 -0.000976562c-2 36.667 -11 67.334 -27 92.001
c-16 25.333 -33.833 42 -53.5 50s-37.5 12 -53.5 12c-36 0 -66.833 -12.167 -92.5 -36.5s-42.167 -63.5 -49.5 -117.5zM159.001 600.999c-10 0 -18.5 3.33301 -25.5 10s-10.5 16.667 -10.5 30c0 12 3.5 21.5 10.5 28.5s15.5 10.5 25.5 10.5s18.5 -3.5 25.5 -10.5
s10.5 -16.5 10.5 -28.5c0 -13.333 -3.5 -23.333 -10.5 -30s-15.5 -10 -25.5 -10zM330.001 600.999c-10 0 -18.5 3.33301 -25.5 10s-10.5 16.667 -10.5 30c0 12 3.5 21.5 10.5 28.5s15.5 10.5 25.5 10.5s18.5 -3.5 25.5 -10.5s10.5 -16.5 10.5 -28.5
c0 -13.333 -3.5 -23.333 -10.5 -30s-15.5 -10 -25.5 -10z" />
    <glyph glyph-name="igrave" unicode="&#xec;" horiz-adv-x="187" 
d="M74 0v477h49v-477h-49zM173 545l-167 127l37 41l155 -139z" />
    <glyph glyph-name="iacute" unicode="&#xed;" horiz-adv-x="187" 
d="M74 0v477h49v-477h-49zM40 545l-24 29l155 139l37 -41z" />
    <glyph glyph-name="icircumflex" unicode="&#xee;" horiz-adv-x="187" 
d="M74 0v477h49v-477h-49zM6 542l-29 26l113 150h31l113 -150l-29 -26l-100 129z" />
    <glyph glyph-name="idieresis" unicode="&#xef;" horiz-adv-x="187" 
d="M74 0v477h49v-477h-49zM19 601c-10 0 -18.5 3.33301 -25.5 10s-10.5 16.667 -10.5 30c0 12 3.5 21.5 10.5 28.5s15.5 10.5 25.5 10.5s18.5 -3.5 25.5 -10.5s10.5 -16.5 10.5 -28.5c0 -13.333 -3.5 -23.333 -10.5 -30s-15.5 -10 -25.5 -10zM190 601
c-10 0 -18.5 3.33301 -25.5 10s-10.5 16.667 -10.5 30c0 12 3.5 21.5 10.5 28.5s15.5 10.5 25.5 10.5s18.5 -3.5 25.5 -10.5s10.5 -16.5 10.5 -28.5c0 -13.333 -3.5 -23.333 -10.5 -30s-15.5 -10 -25.5 -10z" />
    <glyph glyph-name="eth" unicode="&#xf0;" horiz-adv-x="494" 
d="M248 -11c-28 0 -54.167 5.16797 -78.5 15.501s-45.666 26 -63.999 47s-32.666 47.167 -42.999 78.5s-15.5 68 -15.5 110c0 57.333 10.333 105.666 31 144.999c13.333 27.333 31 49.333 53 66s43 27.167 63 31.5s37.333 6.5 52 6.5c28 0 51.667 -3 71 -9
s36.666 -14.333 51.999 -25c-11.333 26 -26 49.667 -44 71s-37.333 39.666 -58 54.999l-39 -56l-28 20l39 56c-23.333 14.667 -55.333 27.667 -96 39l13 37c35.333 -6.66699 70.333 -20.334 105 -41.001l39 56l28 -19l-39 -55c39.333 -28 71.666 -63.5 96.999 -106.5
s41.833 -86.667 49.5 -131s11.5 -82.833 11.5 -115.5c0 -67.333 -10.333 -122.666 -31 -165.999s-46.667 -72.666 -78 -87.999c-30 -14.667 -60 -22 -90 -22zM248 33.001c24.667 0 46.5029 5.83398 65.5029 17.501s35 28.167 48 49.5s22.333 46.166 28 74.499
s8.5 57.833 8.5 88.5s-2 58.167 -6 82.5s-8 42.833 -12 55.5c-16.667 13.333 -35.334 24 -56.001 32s-46 12 -76 12c-44.667 0 -81.334 -17.667 -110.001 -53s-43 -86 -43 -152c0 -34 4 -63.833 12 -89.5s19 -47.167 33 -64.5s30.167 -30.5 48.5 -39.5
s38.166 -13.5 59.499 -13.5z" />
    <glyph glyph-name="ntilde" unicode="&#xf1;" horiz-adv-x="495" 
d="M69 0l0.000976562 477.003h44l5 -45c17.333 15.333 38.166 28.666 62.499 39.999s52.5 17 84.5 17c44.667 0 80 -8.83301 106 -26.5s43.667 -43.834 53 -78.501c6.66699 -20.667 10 -49.334 10 -86.001v-298h-50v295c0 32.667 -3 57.667 -9 75
c-17.333 49.333 -56 74 -116 74c-28.667 0 -54.667 -6 -78 -18s-44.333 -26.667 -63 -44v-382h-49zM321.001 574.003c-13.333 0 -26.5029 3.33496 -39.5029 10.002s-24.167 13.667 -33.5 21c-27.333 19.333 -47 29 -59 29c-11.333 0 -21.666 -4.33301 -30.999 -13
s-18.333 -23.334 -27 -44.001l-35 15c10.667 28.667 24.334 49.5 41.001 62.5s36 19.5 58 19.5c13.333 0 26 -3 38 -9s24 -13.333 36 -22c22.667 -18 41.334 -27 56.001 -27c10 0 19.833 4.66699 29.5 14s19.167 25.666 28.5 48.999l35 -17c-12 -32 -26.667 -54.667 -44 -68
s-35 -20 -53 -20z" />
    <glyph glyph-name="ograve" unicode="&#xf2;" horiz-adv-x="497" 
d="M248 -11c-48 0 -88.333 15.001 -121 45.001c-29.333 26 -50 57.5 -62 94.5s-18 74.833 -18 113.5c0 50 9.66699 95 29 135s44.333 68.667 75 86s63 26 97 26c46.667 0 86.667 -14.667 120 -44c22 -20 39.333 -42.667 52 -68s21 -50.5 25 -75.5s6 -45.5 6 -61.5
c0 -52.667 -10.333 -99.334 -31 -140.001c-20 -40 -45.167 -68.5 -75.5 -85.5s-62.5 -25.5 -96.5 -25.5zM248 33.001c28.667 -1.33301 52.8301 5.50098 72.4971 20.501s35.667 33.333 48 55s21 44.667 26 69s7.16699 45.5 6.5 63.5c0.666992 44 -7.66602 82.667 -24.999 116
s-38.166 56.666 -62.499 69.999s-46.166 19.333 -65.499 18c-36.667 0 -67.667 -12.667 -93 -38c-23.333 -23.333 -39 -49.333 -47 -78s-12 -57.667 -12 -87c0 -26 3.16699 -51.5 9.5 -76.5s15.833 -47.333 28.5 -67s28.5 -35.5 47.5 -47.5s41.167 -18 66.5 -18z
M331.996 545.002l-167 127l37 41l155 -139z" />
    <glyph glyph-name="oacute" unicode="&#xf3;" horiz-adv-x="497" 
d="M248 -11c-48 0 -88.333 15.001 -121 45.001c-29.333 26 -50 57.5 -62 94.5s-18 74.833 -18 113.5c0 50 9.66699 95 29 135s44.333 68.667 75 86s63 26 97 26c46.667 0 86.667 -14.667 120 -44c22 -20 39.333 -42.667 52 -68s21 -50.5 25 -75.5s6 -45.5 6 -61.5
c0 -52.667 -10.333 -99.334 -31 -140.001c-20 -40 -45.167 -68.5 -75.5 -85.5s-62.5 -25.5 -96.5 -25.5zM248 33.001c28.667 -1.33301 52.8301 5.50098 72.4971 20.501s35.667 33.333 48 55s21 44.667 26 69s7.16699 45.5 6.5 63.5c0.666992 44 -7.66602 82.667 -24.999 116
s-38.166 56.666 -62.499 69.999s-46.166 19.333 -65.499 18c-36.667 0 -67.667 -12.667 -93 -38c-23.333 -23.333 -39 -49.333 -47 -78s-12 -57.667 -12 -87c0 -26 3.16699 -51.5 9.5 -76.5s15.833 -47.333 28.5 -67s28.5 -35.5 47.5 -47.5s41.167 -18 66.5 -18z
M187.996 545.002l-24 29l155 139l37 -41z" />
    <glyph glyph-name="ocircumflex" unicode="&#xf4;" horiz-adv-x="497" 
d="M248 -11c-48 0 -88.333 15.001 -121 45.001c-29.333 26 -50 57.5 -62 94.5s-18 74.833 -18 113.5c0 50 9.66699 95 29 135s44.333 68.667 75 86s63 26 97 26c46.667 0 86.667 -14.667 120 -44c22 -20 39.333 -42.667 52 -68s21 -50.5 25 -75.5s6 -45.5 6 -61.5
c0 -52.667 -10.333 -99.334 -31 -140.001c-20 -40 -45.167 -68.5 -75.5 -85.5s-62.5 -25.5 -96.5 -25.5zM248 33.001c28.667 -1.33301 52.8301 5.50098 72.4971 20.501s35.667 33.333 48 55s21 44.667 26 69s7.16699 45.5 6.5 63.5c0.666992 44 -7.66602 82.667 -24.999 116
s-38.166 56.666 -62.499 69.999s-46.166 19.333 -65.499 18c-36.667 0 -67.667 -12.667 -93 -38c-23.333 -23.333 -39 -49.333 -47 -78s-12 -57.667 -12 -87c0 -26 3.16699 -51.5 9.5 -76.5s15.833 -47.333 28.5 -67s28.5 -35.5 47.5 -47.5s41.167 -18 66.5 -18z
M153.996 542.002l-29 26l113 150h31l113 -150l-29 -26l-100 129z" />
    <glyph glyph-name="otilde" unicode="&#xf5;" horiz-adv-x="497" 
d="M248 -11c-48 0 -88.333 15.001 -121 45.001c-29.333 26 -50 57.5 -62 94.5s-18 74.833 -18 113.5c0 50 9.66699 95 29 135s44.333 68.667 75 86s63 26 97 26c46.667 0 86.667 -14.667 120 -44c22 -20 39.333 -42.667 52 -68s21 -50.5 25 -75.5s6 -45.5 6 -61.5
c0 -52.667 -10.333 -99.334 -31 -140.001c-20 -40 -45.167 -68.5 -75.5 -85.5s-62.5 -25.5 -96.5 -25.5zM248 33.001c28.667 -1.33301 52.8301 5.50098 72.4971 20.501s35.667 33.333 48 55s21 44.667 26 69s7.16699 45.5 6.5 63.5c0.666992 44 -7.66602 82.667 -24.999 116
s-38.166 56.666 -62.499 69.999s-46.166 19.333 -65.499 18c-36.667 0 -67.667 -12.667 -93 -38c-23.333 -23.333 -39 -49.333 -47 -78s-12 -57.667 -12 -87c0 -26 3.16699 -51.5 9.5 -76.5s15.833 -47.333 28.5 -67s28.5 -35.5 47.5 -47.5s41.167 -18 66.5 -18z
M320.996 575.002c-13.333 0 -26.5029 3.33496 -39.5029 10.002s-24.167 13.667 -33.5 21c-27.333 19.333 -47 29 -59 29c-11.333 0 -21.666 -4.33301 -30.999 -13s-18.333 -23.334 -27 -44.001l-35 15c10.667 28.667 24.334 49.5 41.001 62.5s36 19.5 58 19.5
c13.333 0 26 -3 38 -9s24 -13.333 36 -22c22.667 -18 41.334 -27 56.001 -27c10 0 19.833 4.66699 29.5 14s19.167 25.666 28.5 48.999l35 -17c-12 -32 -26.667 -54.667 -44 -68s-35 -20 -53 -20z" />
    <glyph glyph-name="odieresis" unicode="&#xf6;" horiz-adv-x="497" 
d="M248 -11c-48 0 -88.333 15.001 -121 45.001c-29.333 26 -50 57.5 -62 94.5s-18 74.833 -18 113.5c0 50 9.66699 95 29 135s44.333 68.667 75 86s63 26 97 26c46.667 0 86.667 -14.667 120 -44c22 -20 39.333 -42.667 52 -68s21 -50.5 25 -75.5s6 -45.5 6 -61.5
c0 -52.667 -10.333 -99.334 -31 -140.001c-20 -40 -45.167 -68.5 -75.5 -85.5s-62.5 -25.5 -96.5 -25.5zM248 33.001c28.667 -1.33301 52.8301 5.50098 72.4971 20.501s35.667 33.333 48 55s21 44.667 26 69s7.16699 45.5 6.5 63.5c0.666992 44 -7.66602 82.667 -24.999 116
s-38.166 56.666 -62.499 69.999s-46.166 19.333 -65.499 18c-36.667 0 -67.667 -12.667 -93 -38c-23.333 -23.333 -39 -49.333 -47 -78s-12 -57.667 -12 -87c0 -26 3.16699 -51.5 9.5 -76.5s15.833 -47.333 28.5 -67s28.5 -35.5 47.5 -47.5s41.167 -18 66.5 -18z
M167.996 601.002c-10 0 -18.5 3.33301 -25.5 10s-10.5 16.667 -10.5 30c0 12 3.5 21.5 10.5 28.5s15.5 10.5 25.5 10.5s18.5 -3.5 25.5 -10.5s10.5 -16.5 10.5 -28.5c0 -13.333 -3.5 -23.333 -10.5 -30s-15.5 -10 -25.5 -10zM338.996 601.002c-10 0 -18.5 3.33301 -25.5 10
s-10.5 16.667 -10.5 30c0 12 3.5 21.5 10.5 28.5s15.5 10.5 25.5 10.5s18.5 -3.5 25.5 -10.5s10.5 -16.5 10.5 -28.5c0 -13.333 -3.5 -23.333 -10.5 -30s-15.5 -10 -25.5 -10z" />
    <glyph glyph-name="divide" unicode="&#xf7;" 
d="M251 108c-12 0 -22.333 4.5 -31 13.5s-13 20.5 -13 34.5c0 13.333 4.33301 24.5 13 33.5s19 13.5 31 13.5s22.333 -4.5 31 -13.5s13 -20.167 13 -33.5c0 -14 -4.33301 -25.5 -13 -34.5s-19 -13.5 -31 -13.5zM36 308v48h428v-48h-428zM251 459
c-12 0 -22.333 4.66699 -31 14s-13 20.666 -13 33.999c0 14 4.33301 25.5 13 34.5s19 13.5 31 13.5s22.333 -4.5 31 -13.5s13 -20.5 13 -34.5c0 -13.333 -4.33301 -24.666 -13 -33.999s-19 -14 -31 -14z" />
    <glyph glyph-name="oslash" unicode="&#xf8;" horiz-adv-x="497" 
d="M83 -21l-31.002 26.001l46 62c-17.333 23.333 -30.166 50.333 -38.499 81s-12.5 62 -12.5 94c0 50 9.66699 95 29 135s44.333 68.667 75 86s63 26 97 26c26 0 49.667 -4.33301 71 -13s40.333 -20.667 57 -36l41 56l34 -26l-48 -63c15.333 -23.333 27.166 -49 35.499 -77
s12.5 -58 12.5 -90c0 -52.667 -10.333 -99.334 -31 -140.001c-20 -40 -45.167 -68.5 -75.5 -85.5s-62.5 -25.5 -96.5 -25.5c-25.333 0 -48.166 4.16699 -68.499 12.5s-38.166 19.833 -53.499 34.5zM247.998 33.001c28.667 -1.33301 52.833 5.5 72.5 20.5
s35.667 33.333 48 55s21 44.667 26 69s7.16699 45.5 6.5 63.5c0 22 -2.33301 43.667 -7 65s-11.667 41.333 -21 60l-219 -292c12 -12.667 25.833 -22.667 41.5 -30s33.167 -11 52.5 -11zM128.997 108.001l218.001 294c-12.667 13.333 -27 23.833 -43 31.5
s-34.667 11.5 -56 11.5c-36.667 0 -67.667 -12.667 -93 -38c-23.333 -23.333 -39 -49.333 -47 -78s-12 -57.667 -12 -87c0 -24 2.66699 -47.5 8 -70.5s13.666 -44.167 24.999 -63.5z" />
    <glyph glyph-name="ugrave" unicode="&#xf9;" horiz-adv-x="494" 
d="M229 -12c-84 0 -136.669 34.665 -158.002 103.998c-6.66699 20.667 -10 49 -10 85v300h49v-298c0 -33.333 3.33301 -58 10 -74c9.33301 -25.333 23.5 -43.666 42.5 -54.999s43.5 -17 73.5 -17c28.667 0 54.334 6 77.001 18s43.667 26.667 63 44v382h49v-477h-45l-4 45
c-17.333 -15.333 -37.666 -28.666 -60.999 -39.999s-52 -17 -86 -17zM322.998 544.998l-167 127l37 41l155 -139z" />
    <glyph glyph-name="uacute" unicode="&#xfa;" horiz-adv-x="494" 
d="M229 -12c-84 0 -136.669 34.665 -158.002 103.998c-6.66699 20.667 -10 49 -10 85v300h49v-298c0 -33.333 3.33301 -58 10 -74c9.33301 -25.333 23.5 -43.666 42.5 -54.999s43.5 -17 73.5 -17c28.667 0 54.334 6 77.001 18s43.667 26.667 63 44v382h49v-477h-45l-4 45
c-17.333 -15.333 -37.666 -28.666 -60.999 -39.999s-52 -17 -86 -17zM197.998 544.998l-24 29l155 139l37 -41z" />
    <glyph glyph-name="ucircumflex" unicode="&#xfb;" horiz-adv-x="494" 
d="M229 -12c-84 0 -136.669 34.665 -158.002 103.998c-6.66699 20.667 -10 49 -10 85v300h49v-298c0 -33.333 3.33301 -58 10 -74c9.33301 -25.333 23.5 -43.666 42.5 -54.999s43.5 -17 73.5 -17c28.667 0 54.334 6 77.001 18s43.667 26.667 63 44v382h49v-477h-45l-4 45
c-17.333 -15.333 -37.666 -28.666 -60.999 -39.999s-52 -17 -86 -17zM149.998 541.998l-29 26l113 150h31l113 -150l-29 -26l-100 129z" />
    <glyph glyph-name="udieresis" unicode="&#xfc;" horiz-adv-x="494" 
d="M229 -12c-84 0 -136.669 34.665 -158.002 103.998c-6.66699 20.667 -10 49 -10 85v300h49v-298c0 -33.333 3.33301 -58 10 -74c9.33301 -25.333 23.5 -43.666 42.5 -54.999s43.5 -17 73.5 -17c28.667 0 54.334 6 77.001 18s43.667 26.667 63 44v382h49v-477h-45l-4 45
c-17.333 -15.333 -37.666 -28.666 -60.999 -39.999s-52 -17 -86 -17zM165.998 600.998c-10 0 -18.5 3.33301 -25.5 10s-10.5 16.667 -10.5 30c0 12 3.5 21.5 10.5 28.5s15.5 10.5 25.5 10.5s18.5 -3.5 25.5 -10.5s10.5 -16.5 10.5 -28.5c0 -13.333 -3.5 -23.333 -10.5 -30
s-15.5 -10 -25.5 -10zM336.998 600.998c-10 0 -18.5 3.33301 -25.5 10s-10.5 16.667 -10.5 30c0 12 3.5 21.5 10.5 28.5s15.5 10.5 25.5 10.5s18.5 -3.5 25.5 -10.5s10.5 -16.5 10.5 -28.5c0 -13.333 -3.5 -23.333 -10.5 -30s-15.5 -10 -25.5 -10z" />
    <glyph glyph-name="yacute" unicode="&#xfd;" horiz-adv-x="448" 
d="M-4 -192l-6 43.999h8c42 0 80.667 12 116 36s62.333 57 81 99l-186 490h55l163 -438c28 58.667 56 125.834 84 201.501s53 154.5 75 236.5h52c-23.333 -92 -48.833 -173 -76.5 -243s-54.167 -132.333 -79.5 -187c-28.667 -60 -54.667 -105.833 -78 -137.5
s-53.333 -56.5 -90 -74.5s-76 -27 -118 -27zM185 544.999l-24 29l155 139l37 -41z" />
    <glyph glyph-name="thorn" unicode="&#xfe;" horiz-adv-x="490" 
d="M71 -193v860.002h49v-225c14 12.667 31 23.667 51 33s47 14 81 14c44 0 81.667 -13 113 -39c22.667 -19.333 39.334 -41.333 50.001 -66s18 -49.834 22 -75.501s6 -47.5 6 -65.5c0 -57.333 -11.333 -106.333 -34 -147c-17.333 -30.667 -37 -53.5 -59 -68.5
s-44 -25.167 -66 -30.5s-41 -8 -57 -8c-23.333 0 -43.833 2.66699 -61.5 8s-32.834 11.666 -45.501 18.999v-209h-49zM222 33.002c52 0 93.5 18.332 124.5 54.999s46.5 87.334 46.5 152.001c0.666992 50 -7.5 91 -24.5 123s-37.5 53.833 -61.5 65.5s-45.667 17.167 -65 16.5
c-25.333 0 -48.5 -5.16699 -69.5 -15.5s-38.5 -22.833 -52.5 -37.5v-325c12 -9.33301 26.5 -17.333 43.5 -24s36.5 -10 58.5 -10z" />
    <glyph glyph-name="ydieresis" unicode="&#xff;" horiz-adv-x="448" 
d="M-4 -192l-6 43.999h8c42 0 80.667 12 116 36s62.333 57 81 99l-186 490h55l163 -438c28 58.667 56 125.834 84 201.501s53 154.5 75 236.5h52c-23.333 -92 -48.833 -173 -76.5 -243s-54.167 -132.333 -79.5 -187c-28.667 -60 -54.667 -105.833 -78 -137.5
s-53.333 -56.5 -90 -74.5s-76 -27 -118 -27zM144 600.999c-10 0 -18.5 3.33301 -25.5 10s-10.5 16.667 -10.5 30c0 12 3.5 21.5 10.5 28.5s15.5 10.5 25.5 10.5s18.5 -3.5 25.5 -10.5s10.5 -16.5 10.5 -28.5c0 -13.333 -3.5 -23.333 -10.5 -30s-15.5 -10 -25.5 -10z
M315 600.999c-10 0 -18.5 3.33301 -25.5 10s-10.5 16.667 -10.5 30c0 12 3.5 21.5 10.5 28.5s15.5 10.5 25.5 10.5s18.5 -3.5 25.5 -10.5s10.5 -16.5 10.5 -28.5c0 -13.333 -3.5 -23.333 -10.5 -30s-15.5 -10 -25.5 -10z" />
    <glyph glyph-name="Amacron" unicode="&#x100;" horiz-adv-x="533" 
d="M5 0l236 667h48l239 -667h-55l-78 214h-260l-76 -214h-54zM151 264h228l-115 340zM127 773v46h279v-46h-279z" />
    <glyph glyph-name="amacron" unicode="&#x101;" horiz-adv-x="438" 
d="M196 -11c-21.333 0 -41.167 3.16797 -59.5 9.50098s-34.166 15.666 -47.499 27.999s-23.833 27.333 -31.5 45s-11.5 38.167 -11.5 61.5c0 46.667 16.667 84 50 112c32 28 70 45.667 114 53c42.667 6.66699 81.667 10.667 117 12v19c0 37.333 -8 65.666 -24 84.999
c-18 20.667 -44.333 31 -79 31c-26.667 0 -50.834 -5.33301 -72.501 -16s-40.167 -21.667 -55.5 -33l-18 40c5.33301 4.66699 13 10 23 16s21.5 11.833 34.5 17.5s27.167 10.334 42.5 14.001s31.333 5.5 48 5.5c50.667 0 89 -14.667 115 -44c23.333 -27.333 35 -66 35 -116
v-329h-44l-3 42c-14 -14.667 -32 -27.167 -54 -37.5s-48.333 -15.5 -79 -15.5zM202.999 33.001c25.333 0 48.668 5.66699 70.001 17s39.333 25 54 41v175c-78.667 -2 -136.667 -13.833 -174 -35.5s-56 -54.5 -56 -98.5c0 -19.333 3.66699 -35.5 11 -48.5
s16.5 -23.5 27.5 -31.5s22.667 -13.5 35 -16.5s23.166 -3.83301 32.499 -2.5zM87.001 607.001v46h279v-46h-279z" />
    <glyph glyph-name="Abreve" unicode="&#x102;" horiz-adv-x="533" 
d="M5 0l236 667h48l239 -667h-55l-78 214h-260l-76 -214h-54zM151 264h228l-115 340zM265 718c-17.333 0 -34.501 2.66699 -51.501 8s-32.5 13.833 -46.5 25.5s-25.5 26.667 -34.5 45s-13.833 40.5 -14.5 66.5h40c2.66699 -20.667 7.66699 -37.667 15 -51
s16 -23.833 26 -31.5s20.667 -13 32 -16s22.666 -4.5 33.999 -4.5c28.667 0 52.334 8.66699 71.001 26s30.334 43 35.001 77h40c0 -28.667 -5.5 -52.5 -16.5 -71.5s-24 -34.167 -39 -45.5s-30.833 -18.833 -47.5 -22.5s-31 -5.5 -43 -5.5z" />
    <glyph glyph-name="abreve" unicode="&#x103;" horiz-adv-x="438" 
d="M196 -11c-21.333 0 -41.167 3.16797 -59.5 9.50098s-34.166 15.666 -47.499 27.999s-23.833 27.333 -31.5 45s-11.5 38.167 -11.5 61.5c0 46.667 16.667 84 50 112c32 28 70 45.667 114 53c42.667 6.66699 81.667 10.667 117 12v19c0 37.333 -8 65.666 -24 84.999
c-18 20.667 -44.333 31 -79 31c-26.667 0 -50.834 -5.33301 -72.501 -16s-40.167 -21.667 -55.5 -33l-18 40c5.33301 4.66699 13 10 23 16s21.5 11.833 34.5 17.5s27.167 10.334 42.5 14.001s31.333 5.5 48 5.5c50.667 0 89 -14.667 115 -44c23.333 -27.333 35 -66 35 -116
v-329h-44l-3 42c-14 -14.667 -32 -27.167 -54 -37.5s-48.333 -15.5 -79 -15.5zM202.999 33.001c25.333 0 48.668 5.66699 70.001 17s39.333 25 54 41v175c-78.667 -2 -136.667 -13.833 -174 -35.5s-56 -54.5 -56 -98.5c0 -19.333 3.66699 -35.5 11 -48.5
s16.5 -23.5 27.5 -31.5s22.667 -13.5 35 -16.5s23.166 -3.83301 32.499 -2.5zM230.001 552.001c-17.333 0 -34.501 2.66699 -51.501 8s-32.5 13.833 -46.5 25.5s-25.5 26.667 -34.5 45s-13.833 40.5 -14.5 66.5h40c2.66699 -20.667 7.66699 -37.667 15 -51
s16 -23.833 26 -31.5s20.667 -13 32 -16s22.666 -4.5 33.999 -4.5c28.667 0 52.334 8.66699 71.001 26s30.334 43 35.001 77h40c0 -28.667 -5.5 -52.5 -16.5 -71.5s-24 -34.167 -39 -45.5s-30.833 -18.833 -47.5 -22.5s-31 -5.5 -43 -5.5z" />
    <glyph glyph-name="Aogonek" unicode="&#x104;" horiz-adv-x="533" 
d="M5 0l236 667h48l239 -667h-55l-78 214h-260l-76 -214h-54zM151 264h228l-115 340zM466 -191c-22.667 0 -40.999 6.33398 -54.999 19.001s-21 31.667 -21 57c0 17.333 3.5 33.666 10.5 48.999s15.5 29 25.5 41s20 22.167 30 30.5s17.667 14.5 23 18.5l44 -10
c-26 -19.333 -46.167 -38.5 -60.5 -57.5s-21.5 -39.167 -21.5 -60.5c0 -28 11.333 -42 34 -42c11.333 0 24.666 4.66699 39.999 14l12 -42c-18.667 -11.333 -39 -17 -61 -17z" />
    <glyph glyph-name="aogonek" unicode="&#x105;" horiz-adv-x="438" 
d="M196 -11c-21.333 0 -41.167 3.16797 -59.5 9.50098s-34.166 15.666 -47.499 27.999s-23.833 27.333 -31.5 45s-11.5 38.167 -11.5 61.5c0 46.667 16.667 84 50 112c32 28 70 45.667 114 53c42.667 6.66699 81.667 10.667 117 12v19c0 37.333 -8 65.666 -24 84.999
c-18 20.667 -44.333 31 -79 31c-26.667 0 -50.834 -5.33301 -72.501 -16s-40.167 -21.667 -55.5 -33l-18 40c5.33301 4.66699 13 10 23 16s21.5 11.833 34.5 17.5s27.167 10.334 42.5 14.001s31.333 5.5 48 5.5c50.667 0 89 -14.667 115 -44c23.333 -27.333 35 -66 35 -116
v-329h-44l-3 42c-14 -14.667 -32 -27.167 -54 -37.5s-48.333 -15.5 -79 -15.5zM202.999 33.001c25.333 0 48.668 5.66699 70.001 17s39.333 25 54 41v175c-78.667 -2 -136.667 -13.833 -174 -35.5s-56 -54.5 -56 -98.5c0 -19.333 3.66699 -35.5 11 -48.5
s16.5 -23.5 27.5 -31.5s22.667 -13.5 35 -16.5s23.166 -3.83301 32.499 -2.5zM319.001 -192.999c-22.667 0 -40.999 6.33398 -54.999 19.001s-21 31.667 -21 57c0 17.333 3.5 33.666 10.5 48.999s15.5 29 25.5 41s20 22.167 30 30.5s17.667 14.5 23 18.5l44 -10
c-26 -19.333 -46.167 -38.5 -60.5 -57.5s-21.5 -39.167 -21.5 -60.5c0 -28 11.333 -42 34 -42c11.333 0 24.666 4.66699 39.999 14l12 -42c-18.667 -11.333 -39 -17 -61 -17z" />
    <glyph glyph-name="Cacute" unicode="&#x106;" horiz-adv-x="542" 
d="M312 -12c-41.333 0 -78.168 8.00195 -110.501 24.002s-59.833 38.833 -82.5 68.5s-39.834 65.667 -51.501 108s-17.5 89.833 -17.5 142.5c0 56.667 6.5 106.667 19.5 150s31 79.666 54 108.999s50.167 51.666 81.5 66.999s65.333 23 102 23
c46.667 0 87.334 -11.833 122.001 -35.5s61 -54.5 79 -92.5l-42 -33c-14 28 -31.833 50.667 -53.5 68s-41.5 29 -59.5 35s-33 8.66699 -45 8c-45.333 0 -84.666 -14.667 -117.999 -44c-31.333 -28.667 -53.666 -66.667 -66.999 -114c-12 -46 -18 -93.333 -18 -142
c0 -43.333 4.83301 -83 14.5 -119s23.667 -66.833 42 -92.5s40.5 -45.667 66.5 -60s55.333 -21.5 88 -21.5c36 0 67.333 7.66699 94 23s50.667 37 72 65l30 -42c-12 -15.333 -28.667 -31.333 -50 -48c-18 -14 -40.833 -25.333 -68.5 -34s-54.834 -13 -81.501 -13z
M235.998 709.002l-24 29l155 139l37 -41z" />
    <glyph glyph-name="cacute" unicode="&#x107;" horiz-adv-x="438" 
d="M251 -11c-29.333 0 -56.499 5.49805 -81.499 16.498s-46.5 27.167 -64.5 48.5s-32.167 47.333 -42.5 78s-15.5 66 -15.5 106c0 60.667 11 110.667 33 150c15.333 26.667 33.166 47.834 53.499 63.501s40.333 25.834 60 30.501s36.5 7 50.5 7c30 0 58 -7.16699 84 -21.5
s45.167 -29.333 57.5 -45s19.5 -26.834 21.5 -33.501l-36 -25c-17.333 26.667 -35.333 46.834 -54 60.501s-43 20.5 -73 20.5c-32 0 -60.333 -11.333 -85 -34s-41.167 -49.5 -49.5 -80.5s-12.5 -61.5 -12.5 -91.5c0 -31.333 3.66699 -59.5 11 -84.5s18 -46.5 32 -64.5
s30.667 -31.833 50 -41.5s41 -14.5 65 -14.5c24.667 0 47 4.33301 67 13s40.667 24 62 46l19 -43c-14 -14.667 -33.667 -28.5 -59 -41.5s-56.333 -19.5 -93 -19.5zM177.001 533.998l-24 29l155 139l37 -41z" />
    <glyph glyph-name="Ccircumflex" unicode="&#x108;" horiz-adv-x="542" 
d="M312 -12c-41.333 0 -78.168 8.00195 -110.501 24.002s-59.833 38.833 -82.5 68.5s-39.834 65.667 -51.501 108s-17.5 89.833 -17.5 142.5c0 56.667 6.5 106.667 19.5 150s31 79.666 54 108.999s50.167 51.666 81.5 66.999s65.333 23 102 23
c46.667 0 87.334 -11.833 122.001 -35.5s61 -54.5 79 -92.5l-42 -33c-14 28 -31.833 50.667 -53.5 68s-41.5 29 -59.5 35s-33 8.66699 -45 8c-45.333 0 -84.666 -14.667 -117.999 -44c-31.333 -28.667 -53.666 -66.667 -66.999 -114c-12 -46 -18 -93.333 -18 -142
c0 -43.333 4.83301 -83 14.5 -119s23.667 -66.833 42 -92.5s40.5 -45.667 66.5 -60s55.333 -21.5 88 -21.5c36 0 67.333 7.66699 94 23s50.667 37 72 65l30 -42c-12 -15.333 -28.667 -31.333 -50 -48c-18 -14 -40.833 -25.333 -68.5 -34s-54.834 -13 -81.501 -13z
M203.998 708.002l-29 26l113 150h31l113 -150l-29 -26l-100 129z" />
    <glyph glyph-name="ccircumflex" unicode="&#x109;" horiz-adv-x="438" 
d="M251 -11c-29.333 0 -56.499 5.49805 -81.499 16.498s-46.5 27.167 -64.5 48.5s-32.167 47.333 -42.5 78s-15.5 66 -15.5 106c0 60.667 11 110.667 33 150c15.333 26.667 33.166 47.834 53.499 63.501s40.333 25.834 60 30.501s36.5 7 50.5 7c30 0 58 -7.16699 84 -21.5
s45.167 -29.333 57.5 -45s19.5 -26.834 21.5 -33.501l-36 -25c-17.333 26.667 -35.333 46.834 -54 60.501s-43 20.5 -73 20.5c-32 0 -60.333 -11.333 -85 -34s-41.167 -49.5 -49.5 -80.5s-12.5 -61.5 -12.5 -91.5c0 -31.333 3.66699 -59.5 11 -84.5s18 -46.5 32 -64.5
s30.667 -31.833 50 -41.5s41 -14.5 65 -14.5c24.667 0 47 4.33301 67 13s40.667 24 62 46l19 -43c-14 -14.667 -33.667 -28.5 -59 -41.5s-56.333 -19.5 -93 -19.5zM147.001 541.998l-29 26l113 150h31l113 -150l-29 -26l-100 129z" />
    <glyph glyph-name="Cdotaccent" unicode="&#x10a;" horiz-adv-x="542" 
d="M312 -12c-41.333 0 -78.168 8.00195 -110.501 24.002s-59.833 38.833 -82.5 68.5s-39.834 65.667 -51.501 108s-17.5 89.833 -17.5 142.5c0 56.667 6.5 106.667 19.5 150s31 79.666 54 108.999s50.167 51.666 81.5 66.999s65.333 23 102 23
c46.667 0 87.334 -11.833 122.001 -35.5s61 -54.5 79 -92.5l-42 -33c-14 28 -31.833 50.667 -53.5 68s-41.5 29 -59.5 35s-33 8.66699 -45 8c-45.333 0 -84.666 -14.667 -117.999 -44c-31.333 -28.667 -53.666 -66.667 -66.999 -114c-12 -46 -18 -93.333 -18 -142
c0 -43.333 4.83301 -83 14.5 -119s23.667 -66.833 42 -92.5s40.5 -45.667 66.5 -60s55.333 -21.5 88 -21.5c36 0 67.333 7.66699 94 23s50.667 37 72 65l30 -42c-12 -15.333 -28.667 -31.333 -50 -48c-18 -14 -40.833 -25.333 -68.5 -34s-54.834 -13 -81.501 -13z
M313.998 767.002c-10 0 -18.5 3.33301 -25.5 10s-10.5 16.667 -10.5 30c0 12 3.5 21.5 10.5 28.5s15.5 10.5 25.5 10.5s18.5 -3.5 25.5 -10.5s10.5 -16.5 10.5 -28.5c0 -13.333 -3.5 -23.333 -10.5 -30s-15.5 -10 -25.5 -10z" />
    <glyph glyph-name="cdotaccent" unicode="&#x10b;" horiz-adv-x="438" 
d="M251 -11c-29.333 0 -56.499 5.49805 -81.499 16.498s-46.5 27.167 -64.5 48.5s-32.167 47.333 -42.5 78s-15.5 66 -15.5 106c0 60.667 11 110.667 33 150c15.333 26.667 33.166 47.834 53.499 63.501s40.333 25.834 60 30.501s36.5 7 50.5 7c30 0 58 -7.16699 84 -21.5
s45.167 -29.333 57.5 -45s19.5 -26.834 21.5 -33.501l-36 -25c-17.333 26.667 -35.333 46.834 -54 60.501s-43 20.5 -73 20.5c-32 0 -60.333 -11.333 -85 -34s-41.167 -49.5 -49.5 -80.5s-12.5 -61.5 -12.5 -91.5c0 -31.333 3.66699 -59.5 11 -84.5s18 -46.5 32 -64.5
s30.667 -31.833 50 -41.5s41 -14.5 65 -14.5c24.667 0 47 4.33301 67 13s40.667 24 62 46l19 -43c-14 -14.667 -33.667 -28.5 -59 -41.5s-56.333 -19.5 -93 -19.5zM250.001 600.998c-10 0 -18.5 3.33301 -25.5 10s-10.5 16.667 -10.5 30c0 12 3.5 21.5 10.5 28.5
s15.5 10.5 25.5 10.5s18.5 -3.5 25.5 -10.5s10.5 -16.5 10.5 -28.5c0 -13.333 -3.5 -23.333 -10.5 -30s-15.5 -10 -25.5 -10z" />
    <glyph glyph-name="Ccaron" unicode="&#x10c;" horiz-adv-x="542" 
d="M312 -12c-41.333 0 -78.168 8.00195 -110.501 24.002s-59.833 38.833 -82.5 68.5s-39.834 65.667 -51.501 108s-17.5 89.833 -17.5 142.5c0 56.667 6.5 106.667 19.5 150s31 79.666 54 108.999s50.167 51.666 81.5 66.999s65.333 23 102 23
c46.667 0 87.334 -11.833 122.001 -35.5s61 -54.5 79 -92.5l-42 -33c-14 28 -31.833 50.667 -53.5 68s-41.5 29 -59.5 35s-33 8.66699 -45 8c-45.333 0 -84.666 -14.667 -117.999 -44c-31.333 -28.667 -53.666 -66.667 -66.999 -114c-12 -46 -18 -93.333 -18 -142
c0 -43.333 4.83301 -83 14.5 -119s23.667 -66.833 42 -92.5s40.5 -45.667 66.5 -60s55.333 -21.5 88 -21.5c36 0 67.333 7.66699 94 23s50.667 37 72 65l30 -42c-12 -15.333 -28.667 -31.333 -50 -48c-18 -14 -40.833 -25.333 -68.5 -34s-54.834 -13 -81.501 -13z
M289.998 708.002l-113 150l29 26l99 -129l100 129l29 -26l-113 -150h-31z" />
    <glyph glyph-name="ccaron" unicode="&#x10d;" horiz-adv-x="438" 
d="M251 -11c-29.333 0 -56.499 5.49805 -81.499 16.498s-46.5 27.167 -64.5 48.5s-32.167 47.333 -42.5 78s-15.5 66 -15.5 106c0 60.667 11 110.667 33 150c15.333 26.667 33.166 47.834 53.499 63.501s40.333 25.834 60 30.501s36.5 7 50.5 7c30 0 58 -7.16699 84 -21.5
s45.167 -29.333 57.5 -45s19.5 -26.834 21.5 -33.501l-36 -25c-17.333 26.667 -35.333 46.834 -54 60.501s-43 20.5 -73 20.5c-32 0 -60.333 -11.333 -85 -34s-41.167 -49.5 -49.5 -80.5s-12.5 -61.5 -12.5 -91.5c0 -31.333 3.66699 -59.5 11 -84.5s18 -46.5 32 -64.5
s30.667 -31.833 50 -41.5s41 -14.5 65 -14.5c24.667 0 47 4.33301 67 13s40.667 24 62 46l19 -43c-14 -14.667 -33.667 -28.5 -59 -41.5s-56.333 -19.5 -93 -19.5zM235.001 541.998l-113 150l29 26l99 -129l100 129l29 -26l-113 -150h-31z" />
    <glyph glyph-name="Dcaron" unicode="&#x10e;" horiz-adv-x="583" 
d="M76 0l0.000976562 667.001h156c28 0 54.667 -2.33301 80 -7s48.666 -12.667 69.999 -24c48 -23.333 85.5 -59.333 112.5 -108s40.5 -110.334 40.5 -185.001c0 -92 -17.5 -165.333 -52.5 -220s-83.5 -91 -145.5 -109c-32 -9.33301 -67 -14 -105 -14h-156zM128.001 49.001
l95.002 -0.000976562c17.333 0 35.166 1 53.499 3s35.166 6 50.499 12c46.667 17.333 84 48.333 112 93s42 105.334 42 182.001c0 58.667 -9 107.834 -27 147.501s-44 70.5 -78 92.5c-20 13.333 -42.833 23.166 -68.5 29.499s-52.5 9.5 -80.5 9.5h-99v-569zM233.003 708
l-113 150l29 26l99 -129l100 129l29 -26l-113 -150h-31z" />
    <glyph glyph-name="dcaron" unicode="&#x10f;" horiz-adv-x="507" 
d="M244 -11c-35.333 0 -65.667 7.66797 -91 23.001s-46 35.333 -62 60s-27.333 51.834 -34 81.501s-10 58.5 -10 86.5c0 36 5 69.167 15 99.5s24 56.666 42 78.999s39.833 39.666 65.5 51.999s54.5 18.5 86.5 18.5c28 0 51.333 -3.33301 70 -10s33.667 -13.667 45 -21v209
h50v-667h-45l-5 42c-14.667 -15.333 -32.5 -28 -53.5 -38s-45.5 -15 -73.5 -15zM249.999 33.001c25.333 0 48.335 5.99902 69.002 17.999s38 26.667 52 44v312c-10.667 9.33301 -25.834 18 -45.501 26s-40.834 12 -63.501 12c-29.333 0 -54.666 -6.66699 -75.999 -20
s-38.833 -30.166 -52.5 -50.499s-23.334 -42.833 -29.001 -67.5s-8.5 -47.667 -8.5 -69c0 -62 13.333 -111.667 40 -149s64.667 -56 114 -56zM483.001 497v170h64l-24 -170h-40z" />
    <glyph glyph-name="Dcroat" unicode="&#x110;" horiz-adv-x="583" 
d="M76 0l0.000976562 325.001h-74v43h74v299h156c28 0 54.667 -2.33301 80 -7s48.666 -12.667 69.999 -24c48 -23.333 85.5 -59.333 112.5 -108s40.5 -110.334 40.5 -185.001c0 -92 -17.5 -165.333 -52.5 -220s-83.5 -91 -145.5 -109c-32 -9.33301 -67 -14 -105 -14h-156z
M128.001 49.001l95.002 -0.000976562c17.333 0 35.166 1 53.499 3s35.166 6 50.499 12c46.667 17.333 84 48.333 112 93s42 105.334 42 182.001c0 58.667 -9 107.834 -27 147.501s-44 70.5 -78 92.5c-20 13.333 -42.833 23.166 -68.5 29.499s-52.5 9.5 -80.5 9.5h-99v-250
h183v-43h-183v-276z" />
    <glyph glyph-name="dcroat" unicode="&#x111;" horiz-adv-x="490" 
d="M244 -11c-35.333 0 -65.667 7.66797 -91 23.001s-46 35.333 -62 60s-27.333 51.834 -34 81.501s-10 58.5 -10 86.5c0 36 5 69.167 15 99.5s24 56.666 42 78.999s39.833 39.666 65.5 51.999s54.5 18.5 86.5 18.5c28 0 51.333 -3.33301 70 -10s33.667 -13.667 45 -21v99
h-163v43h163v67h50v-67h96v-43h-96v-557h-45l-5 42c-14.667 -15.333 -32.5 -28 -53.5 -38s-45.5 -15 -73.5 -15zM249.999 33.001c25.333 0 48.335 5.99902 69.002 17.999s38 26.667 52 44v312c-10.667 9.33301 -25.834 18 -45.501 26s-40.834 12 -63.501 12
c-29.333 0 -54.666 -6.66699 -75.999 -20s-38.833 -30.166 -52.5 -50.499s-23.334 -42.833 -29.001 -67.5s-8.5 -47.667 -8.5 -69c0 -62 13.333 -111.667 40 -149s64.667 -56 114 -56z" />
    <glyph glyph-name="Emacron" unicode="&#x112;" horiz-adv-x="476" 
d="M76 0v667h356v-49h-305v-240h221v-49h-221v-280h323v-49h-374zM117 773v46h279v-46h-279z" />
    <glyph glyph-name="emacron" unicode="&#x113;" horiz-adv-x="468" 
d="M255 -11c-66.667 0 -117.999 22 -153.999 66s-54 105.333 -54 184c0 56.667 10 104.667 30 144c20.667 40 46.167 67.667 76.5 83s59.833 23 88.5 23c48.667 0 88.167 -15.5 118.5 -46.5s49.833 -64.833 58.5 -101.5s13 -68 13 -94h-336c0 -68 13.5 -120.667 40.5 -158
s66.833 -56 119.5 -56c56.667 0 104.334 20.333 143.001 61l15 -45c-9.33301 -9.33301 -21 -18.333 -35 -27c-12.667 -8 -30.834 -15.5 -54.501 -22.5s-46.834 -10.5 -69.501 -10.5zM100.001 291l276 -0.000976562c-2 36.667 -11 67.334 -27 92.001
c-16 25.333 -33.833 42 -53.5 50s-37.5 12 -53.5 12c-36 0 -66.833 -12.167 -92.5 -36.5s-42.167 -63.5 -49.5 -117.5zM109.001 606.999v46h279v-46h-279z" />
    <glyph glyph-name="Ebreve" unicode="&#x114;" horiz-adv-x="476" 
d="M76 0v667h356v-49h-305v-240h221v-49h-221v-280h323v-49h-374zM261 718c-17.333 0 -34.501 2.66699 -51.501 8s-32.5 13.833 -46.5 25.5s-25.5 26.667 -34.5 45s-13.833 40.5 -14.5 66.5h40c2.66699 -20.667 7.66699 -37.667 15 -51s16 -23.833 26 -31.5
s20.667 -13 32 -16s22.666 -4.5 33.999 -4.5c28.667 0 52.334 8.66699 71.001 26s30.334 43 35.001 77h40c0 -28.667 -5.5 -52.5 -16.5 -71.5s-24 -34.167 -39 -45.5s-30.833 -18.833 -47.5 -22.5s-31 -5.5 -43 -5.5z" />
    <glyph glyph-name="ebreve" unicode="&#x115;" horiz-adv-x="468" 
d="M255 -11c-66.667 0 -117.999 22 -153.999 66s-54 105.333 -54 184c0 56.667 10 104.667 30 144c20.667 40 46.167 67.667 76.5 83s59.833 23 88.5 23c48.667 0 88.167 -15.5 118.5 -46.5s49.833 -64.833 58.5 -101.5s13 -68 13 -94h-336c0 -68 13.5 -120.667 40.5 -158
s66.833 -56 119.5 -56c56.667 0 104.334 20.333 143.001 61l15 -45c-9.33301 -9.33301 -21 -18.333 -35 -27c-12.667 -8 -30.834 -15.5 -54.501 -22.5s-46.834 -10.5 -69.501 -10.5zM100.001 291l276 -0.000976562c-2 36.667 -11 67.334 -27 92.001
c-16 25.333 -33.833 42 -53.5 50s-37.5 12 -53.5 12c-36 0 -66.833 -12.167 -92.5 -36.5s-42.167 -63.5 -49.5 -117.5zM248.001 551.999c-17.333 0 -34.501 2.66699 -51.501 8s-32.5 13.833 -46.5 25.5s-25.5 26.667 -34.5 45s-13.833 40.5 -14.5 66.5h40
c2.66699 -20.667 7.66699 -37.667 15 -51s16 -23.833 26 -31.5s20.667 -13 32 -16s22.666 -4.5 33.999 -4.5c28.667 0 52.334 8.66699 71.001 26s30.334 43 35.001 77h40c0 -28.667 -5.5 -52.5 -16.5 -71.5s-24 -34.167 -39 -45.5s-30.833 -18.833 -47.5 -22.5
s-31 -5.5 -43 -5.5z" />
    <glyph glyph-name="Edotaccent" unicode="&#x116;" horiz-adv-x="476" 
d="M76 0v667h356v-49h-305v-240h221v-49h-221v-280h323v-49h-374zM262 767c-10 0 -18.5 3.33301 -25.5 10s-10.5 16.667 -10.5 30c0 12 3.5 21.5 10.5 28.5s15.5 10.5 25.5 10.5s18.5 -3.5 25.5 -10.5s10.5 -16.5 10.5 -28.5c0 -13.333 -3.5 -23.333 -10.5 -30
s-15.5 -10 -25.5 -10z" />
    <glyph glyph-name="edotaccent" unicode="&#x117;" horiz-adv-x="468" 
d="M255 -11c-66.667 0 -117.999 22 -153.999 66s-54 105.333 -54 184c0 56.667 10 104.667 30 144c20.667 40 46.167 67.667 76.5 83s59.833 23 88.5 23c48.667 0 88.167 -15.5 118.5 -46.5s49.833 -64.833 58.5 -101.5s13 -68 13 -94h-336c0 -68 13.5 -120.667 40.5 -158
s66.833 -56 119.5 -56c56.667 0 104.334 20.333 143.001 61l15 -45c-9.33301 -9.33301 -21 -18.333 -35 -27c-12.667 -8 -30.834 -15.5 -54.501 -22.5s-46.834 -10.5 -69.501 -10.5zM100.001 291l276 -0.000976562c-2 36.667 -11 67.334 -27 92.001
c-16 25.333 -33.833 42 -53.5 50s-37.5 12 -53.5 12c-36 0 -66.833 -12.167 -92.5 -36.5s-42.167 -63.5 -49.5 -117.5zM246.001 600.999c-10 0 -18.5 3.33301 -25.5 10s-10.5 16.667 -10.5 30c0 12 3.5 21.5 10.5 28.5s15.5 10.5 25.5 10.5s18.5 -3.5 25.5 -10.5
s10.5 -16.5 10.5 -28.5c0 -13.333 -3.5 -23.333 -10.5 -30s-15.5 -10 -25.5 -10z" />
    <glyph glyph-name="Eogonek" unicode="&#x118;" horiz-adv-x="476" 
d="M76 0v667h356v-49h-305v-240h221v-49h-221v-280h323v-49h-374zM381 -193c-22.667 0 -40.999 6.33398 -54.999 19.001s-21 31.667 -21 57c0 17.333 3.5 33.666 10.5 48.999s15.5 29 25.5 41s20 22.167 30 30.5s17.667 14.5 23 18.5l44 -10
c-26 -19.333 -46.167 -38.5 -60.5 -57.5s-21.5 -39.167 -21.5 -60.5c0 -28 11.333 -42 34 -42c11.333 0 24.666 4.66699 39.999 14l12 -42c-18.667 -11.333 -39 -17 -61 -17z" />
    <glyph glyph-name="eogonek" unicode="&#x119;" horiz-adv-x="468" 
d="M255 -11c-66.667 0 -117.999 22 -153.999 66s-54 105.333 -54 184c0 56.667 10 104.667 30 144c20.667 40 46.167 67.667 76.5 83s59.833 23 88.5 23c48.667 0 88.167 -15.5 118.5 -46.5s49.833 -64.833 58.5 -101.5s13 -68 13 -94h-336c0 -68 13.5 -120.667 40.5 -158
s66.833 -56 119.5 -56c56.667 0 104.334 20.333 143.001 61l15 -45c-9.33301 -9.33301 -21 -18.333 -35 -27c-12.667 -8 -30.834 -15.5 -54.501 -22.5s-46.834 -10.5 -69.501 -10.5zM100.001 291l276 -0.000976562c-2 36.667 -11 67.334 -27 92.001
c-16 25.333 -33.833 42 -53.5 50s-37.5 12 -53.5 12c-36 0 -66.833 -12.167 -92.5 -36.5s-42.167 -63.5 -49.5 -117.5zM302.001 -193.001c-22.667 0 -40.999 6.33398 -54.999 19.001s-21 31.667 -21 57c0 17.333 3.5 33.666 10.5 48.999s15.5 29 25.5 41s20 22.167 30 30.5
s17.667 14.5 23 18.5l44 -10c-26 -19.333 -46.167 -38.5 -60.5 -57.5s-21.5 -39.167 -21.5 -60.5c0 -28 11.333 -42 34 -42c11.333 0 24.666 4.66699 39.999 14l12 -42c-18.667 -11.333 -39 -17 -61 -17z" />
    <glyph glyph-name="Ecaron" unicode="&#x11a;" horiz-adv-x="476" 
d="M76 0v667h356v-49h-305v-240h221v-49h-221v-280h323v-49h-374zM246 708l-113 150l29 26l99 -129l100 129l29 -26l-113 -150h-31z" />
    <glyph glyph-name="ecaron" unicode="&#x11b;" horiz-adv-x="468" 
d="M255 -11c-66.667 0 -117.999 22 -153.999 66s-54 105.333 -54 184c0 56.667 10 104.667 30 144c20.667 40 46.167 67.667 76.5 83s59.833 23 88.5 23c48.667 0 88.167 -15.5 118.5 -46.5s49.833 -64.833 58.5 -101.5s13 -68 13 -94h-336c0 -68 13.5 -120.667 40.5 -158
s66.833 -56 119.5 -56c56.667 0 104.334 20.333 143.001 61l15 -45c-9.33301 -9.33301 -21 -18.333 -35 -27c-12.667 -8 -30.834 -15.5 -54.501 -22.5s-46.834 -10.5 -69.501 -10.5zM100.001 291l276 -0.000976562c-2 36.667 -11 67.334 -27 92.001
c-16 25.333 -33.833 42 -53.5 50s-37.5 12 -53.5 12c-36 0 -66.833 -12.167 -92.5 -36.5s-42.167 -63.5 -49.5 -117.5zM239.001 541.999l-113 150l29 26l99 -129l100 129l29 -26l-113 -150h-31z" />
    <glyph glyph-name="Gcircumflex" unicode="&#x11c;" horiz-adv-x="568" 
d="M318 -13c-40 0 -76.333 7.49902 -109 22.499s-60.834 37 -84.501 66s-42 64.833 -55 107.5s-19.5 92 -19.5 148c0 80.667 14.667 149.667 44 207c28.667 56 62.667 93.667 102 113c40 19.333 78 29 114 29c28 0 52.833 -4.16699 74.5 -12.5s40.834 -19 57.501 -32
s30.5 -27 41.5 -42s19.5 -28.167 25.5 -39.5l-39 -31c-16 32.667 -38.5 58.834 -67.5 78.501s-59.833 29.5 -92.5 29.5c-28 0 -54.333 -6.33301 -79 -19s-46.334 -31.5 -65.001 -56.5s-33.5 -56.333 -44.5 -94s-16.5 -81.5 -16.5 -131.5
c0 -44.667 5.16699 -85.167 15.5 -121.5s24.833 -67.333 43.5 -93s41.167 -45.5 67.5 -59.5s55.5 -21 87.5 -21c34 0 62.5 2.5 85.5 7.5s41.833 10.5 56.5 16.5v209h-119v49h171v-293c-21.333 -9.33301 -49.166 -17.833 -83.499 -25.5s-71.5 -11.5 -111.5 -11.5z
M213 707.999l-29 26l113 150h31l113 -150l-29 -26l-100 129z" />
    <glyph glyph-name="gcircumflex" unicode="&#x11d;" horiz-adv-x="475" 
d="M231 -198c-32 0 -64.998 4.66406 -98.998 13.9971c-31.333 8.66699 -51.333 16.334 -60 23.001l15 46c14.667 -9.33301 34.667 -18.166 60 -26.499s54 -12.5 86 -12.5c48 0 83.333 11.5 106 34.5s34 59.5 34 109.5v34c-12.667 -8.66699 -29.334 -16.667 -50.001 -24
s-45 -11 -73 -11c-28.667 0 -55.167 5.66699 -79.5 17s-45.5 27.5 -63.5 48.5s-32.167 46.833 -42.5 77.5s-15.5 65.667 -15.5 105c0 54 11.667 101.667 35 143c16.667 28.667 37.5 51.834 62.5 69.501s48.833 28.667 71.5 33s42.667 6.5 60 6.5c30 0 57.667 -2 83 -6
s46 -8 62 -12v-493c0 -52.667 -15.333 -95.167 -46 -127.5s-79.334 -48.5 -146.001 -48.5zM261.002 32.9971c23.333 0 45.001 4.50098 65.001 13.501s35.667 18.833 47 29.5v357c-11.333 3.33301 -24.833 6.16602 -40.5 8.49902s-33.167 3.5 -52.5 3.5
c-24 0 -47 -4.66699 -69 -14s-41.333 -23 -58 -41s-29.834 -40 -39.501 -66s-14.5 -55.667 -14.5 -89s4.33301 -62.5 13 -87.5s20.5 -46 35.5 -63s32.167 -29.833 51.5 -38.5s40 -13 62 -13zM175.003 541.998l-29 26l113 150h31l113 -150l-29 -26l-100 129z" />
    <glyph glyph-name="Gbreve" unicode="&#x11e;" horiz-adv-x="568" 
d="M318 -13c-40 0 -76.333 7.49902 -109 22.499s-60.834 37 -84.501 66s-42 64.833 -55 107.5s-19.5 92 -19.5 148c0 80.667 14.667 149.667 44 207c28.667 56 62.667 93.667 102 113c40 19.333 78 29 114 29c28 0 52.833 -4.16699 74.5 -12.5s40.834 -19 57.501 -32
s30.5 -27 41.5 -42s19.5 -28.167 25.5 -39.5l-39 -31c-16 32.667 -38.5 58.834 -67.5 78.501s-59.833 29.5 -92.5 29.5c-28 0 -54.333 -6.33301 -79 -19s-46.334 -31.5 -65.001 -56.5s-33.5 -56.333 -44.5 -94s-16.5 -81.5 -16.5 -131.5
c0 -44.667 5.16699 -85.167 15.5 -121.5s24.833 -67.333 43.5 -93s41.167 -45.5 67.5 -59.5s55.5 -21 87.5 -21c34 0 62.5 2.5 85.5 7.5s41.833 10.5 56.5 16.5v209h-119v49h171v-293c-21.333 -9.33301 -49.166 -17.833 -83.499 -25.5s-71.5 -11.5 -111.5 -11.5z
M313 717.999c-17.333 0 -34.501 2.66699 -51.501 8s-32.5 13.833 -46.5 25.5s-25.5 26.667 -34.5 45s-13.833 40.5 -14.5 66.5h40c2.66699 -20.667 7.66699 -37.667 15 -51s16 -23.833 26 -31.5s20.667 -13 32 -16s22.666 -4.5 33.999 -4.5
c28.667 0 52.334 8.66699 71.001 26s30.334 43 35.001 77h40c0 -28.667 -5.5 -52.5 -16.5 -71.5s-24 -34.167 -39 -45.5s-30.833 -18.833 -47.5 -22.5s-31 -5.5 -43 -5.5z" />
    <glyph glyph-name="gbreve" unicode="&#x11f;" horiz-adv-x="475" 
d="M231 -198c-32 0 -64.998 4.66406 -98.998 13.9971c-31.333 8.66699 -51.333 16.334 -60 23.001l15 46c14.667 -9.33301 34.667 -18.166 60 -26.499s54 -12.5 86 -12.5c48 0 83.333 11.5 106 34.5s34 59.5 34 109.5v34c-12.667 -8.66699 -29.334 -16.667 -50.001 -24
s-45 -11 -73 -11c-28.667 0 -55.167 5.66699 -79.5 17s-45.5 27.5 -63.5 48.5s-32.167 46.833 -42.5 77.5s-15.5 65.667 -15.5 105c0 54 11.667 101.667 35 143c16.667 28.667 37.5 51.834 62.5 69.501s48.833 28.667 71.5 33s42.667 6.5 60 6.5c30 0 57.667 -2 83 -6
s46 -8 62 -12v-493c0 -52.667 -15.333 -95.167 -46 -127.5s-79.334 -48.5 -146.001 -48.5zM261.002 32.9971c23.333 0 45.001 4.50098 65.001 13.501s35.667 18.833 47 29.5v357c-11.333 3.33301 -24.833 6.16602 -40.5 8.49902s-33.167 3.5 -52.5 3.5
c-24 0 -47 -4.66699 -69 -14s-41.333 -23 -58 -41s-29.834 -40 -39.501 -66s-14.5 -55.667 -14.5 -89s4.33301 -62.5 13 -87.5s20.5 -46 35.5 -63s32.167 -29.833 51.5 -38.5s40 -13 62 -13zM275.003 551.998c-17.333 0 -34.501 2.66699 -51.501 8s-32.5 13.833 -46.5 25.5
s-25.5 26.667 -34.5 45s-13.833 40.5 -14.5 66.5h40c2.66699 -20.667 7.66699 -37.667 15 -51s16 -23.833 26 -31.5s20.667 -13 32 -16s22.666 -4.5 33.999 -4.5c28.667 0 52.334 8.66699 71.001 26s30.334 43 35.001 77h40c0 -28.667 -5.5 -52.5 -16.5 -71.5
s-24 -34.167 -39 -45.5s-30.833 -18.833 -47.5 -22.5s-31 -5.5 -43 -5.5z" />
    <glyph glyph-name="Gdotaccent" unicode="&#x120;" horiz-adv-x="568" 
d="M318 -13c-40 0 -76.333 7.49902 -109 22.499s-60.834 37 -84.501 66s-42 64.833 -55 107.5s-19.5 92 -19.5 148c0 80.667 14.667 149.667 44 207c28.667 56 62.667 93.667 102 113c40 19.333 78 29 114 29c28 0 52.833 -4.16699 74.5 -12.5s40.834 -19 57.501 -32
s30.5 -27 41.5 -42s19.5 -28.167 25.5 -39.5l-39 -31c-16 32.667 -38.5 58.834 -67.5 78.501s-59.833 29.5 -92.5 29.5c-28 0 -54.333 -6.33301 -79 -19s-46.334 -31.5 -65.001 -56.5s-33.5 -56.333 -44.5 -94s-16.5 -81.5 -16.5 -131.5
c0 -44.667 5.16699 -85.167 15.5 -121.5s24.833 -67.333 43.5 -93s41.167 -45.5 67.5 -59.5s55.5 -21 87.5 -21c34 0 62.5 2.5 85.5 7.5s41.833 10.5 56.5 16.5v209h-119v49h171v-293c-21.333 -9.33301 -49.166 -17.833 -83.499 -25.5s-71.5 -11.5 -111.5 -11.5z
M318 766.999c-10 0 -18.5 3.33301 -25.5 10s-10.5 16.667 -10.5 30c0 12 3.5 21.5 10.5 28.5s15.5 10.5 25.5 10.5s18.5 -3.5 25.5 -10.5s10.5 -16.5 10.5 -28.5c0 -13.333 -3.5 -23.333 -10.5 -30s-15.5 -10 -25.5 -10z" />
    <glyph glyph-name="gdotaccent" unicode="&#x121;" horiz-adv-x="475" 
d="M231 -198c-32 0 -64.998 4.66406 -98.998 13.9971c-31.333 8.66699 -51.333 16.334 -60 23.001l15 46c14.667 -9.33301 34.667 -18.166 60 -26.499s54 -12.5 86 -12.5c48 0 83.333 11.5 106 34.5s34 59.5 34 109.5v34c-12.667 -8.66699 -29.334 -16.667 -50.001 -24
s-45 -11 -73 -11c-28.667 0 -55.167 5.66699 -79.5 17s-45.5 27.5 -63.5 48.5s-32.167 46.833 -42.5 77.5s-15.5 65.667 -15.5 105c0 54 11.667 101.667 35 143c16.667 28.667 37.5 51.834 62.5 69.501s48.833 28.667 71.5 33s42.667 6.5 60 6.5c30 0 57.667 -2 83 -6
s46 -8 62 -12v-493c0 -52.667 -15.333 -95.167 -46 -127.5s-79.334 -48.5 -146.001 -48.5zM261.002 32.9971c23.333 0 45.001 4.50098 65.001 13.501s35.667 18.833 47 29.5v357c-11.333 3.33301 -24.833 6.16602 -40.5 8.49902s-33.167 3.5 -52.5 3.5
c-24 0 -47 -4.66699 -69 -14s-41.333 -23 -58 -41s-29.834 -40 -39.501 -66s-14.5 -55.667 -14.5 -89s4.33301 -62.5 13 -87.5s20.5 -46 35.5 -63s32.167 -29.833 51.5 -38.5s40 -13 62 -13zM274.003 600.998c-10 0 -18.5 3.33301 -25.5 10s-10.5 16.667 -10.5 30
c0 12 3.5 21.5 10.5 28.5s15.5 10.5 25.5 10.5s18.5 -3.5 25.5 -10.5s10.5 -16.5 10.5 -28.5c0 -13.333 -3.5 -23.333 -10.5 -30s-15.5 -10 -25.5 -10z" />
    <glyph glyph-name="Gcommaaccent" unicode="&#x122;" horiz-adv-x="568" 
d="M318 -13c-40 0 -76.333 7.49902 -109 22.499s-60.834 37 -84.501 66s-42 64.833 -55 107.5s-19.5 92 -19.5 148c0 80.667 14.667 149.667 44 207c28.667 56 62.667 93.667 102 113c40 19.333 78 29 114 29c28 0 52.833 -4.16699 74.5 -12.5s40.834 -19 57.501 -32
s30.5 -27 41.5 -42s19.5 -28.167 25.5 -39.5l-39 -31c-16 32.667 -38.5 58.834 -67.5 78.501s-59.833 29.5 -92.5 29.5c-28 0 -54.333 -6.33301 -79 -19s-46.334 -31.5 -65.001 -56.5s-33.5 -56.333 -44.5 -94s-16.5 -81.5 -16.5 -131.5
c0 -44.667 5.16699 -85.167 15.5 -121.5s24.833 -67.333 43.5 -93s41.167 -45.5 67.5 -59.5s55.5 -21 87.5 -21c34 0 62.5 2.5 85.5 7.5s41.833 10.5 56.5 16.5v209h-119v49h171v-293c-21.333 -9.33301 -49.166 -17.833 -83.499 -25.5s-71.5 -11.5 -111.5 -11.5z
M243 -174.001l48 130h59l-68 -130h-39z" />
    <glyph glyph-name="gcommaaccent" unicode="&#x123;" horiz-adv-x="475" 
d="M231 -198c-32 0 -64.998 4.66406 -98.998 13.9971c-31.333 8.66699 -51.333 16.334 -60 23.001l15 46c14.667 -9.33301 34.667 -18.166 60 -26.499s54 -12.5 86 -12.5c48 0 83.333 11.5 106 34.5s34 59.5 34 109.5v34c-12.667 -8.66699 -29.334 -16.667 -50.001 -24
s-45 -11 -73 -11c-28.667 0 -55.167 5.66699 -79.5 17s-45.5 27.5 -63.5 48.5s-32.167 46.833 -42.5 77.5s-15.5 65.667 -15.5 105c0 54 11.667 101.667 35 143c16.667 28.667 37.5 51.834 62.5 69.501s48.833 28.667 71.5 33s42.667 6.5 60 6.5c30 0 57.667 -2 83 -6
s46 -8 62 -12v-493c0 -52.667 -15.333 -95.167 -46 -127.5s-79.334 -48.5 -146.001 -48.5zM261.002 32.9971c23.333 0 45.001 4.50098 65.001 13.501s35.667 18.833 47 29.5v357c-11.333 3.33301 -24.833 6.16602 -40.5 8.49902s-33.167 3.5 -52.5 3.5
c-24 0 -47 -4.66699 -69 -14s-41.333 -23 -58 -41s-29.834 -40 -39.501 -66s-14.5 -55.667 -14.5 -89s4.33301 -62.5 13 -87.5s20.5 -46 35.5 -63s32.167 -29.833 51.5 -38.5s40 -13 62 -13zM253.003 556.998l68 130h42l-48 -130h-62z" />
    <glyph glyph-name="Hcircumflex" unicode="&#x124;" horiz-adv-x="601" 
d="M76 0v667h52v-297h346v297h51v-667h-51v320h-346v-320h-52zM207 708l-29 26l113 150h31l113 -150l-29 -26l-100 129z" />
    <glyph glyph-name="hcircumflex" unicode="&#x125;" horiz-adv-x="495" 
d="M69 0l0.000976562 667h49v-232c17.333 14 38.166 26.5 62.499 37.5s52.5 16.5 84.5 16.5c44 0 79 -9 105 -27s44 -44 54 -78c6 -21.333 9 -50 9 -86v-298h-50v295c0 32.667 -3 57.667 -9 75c-17.333 49.333 -56 74 -116 74c-28 0 -53.5 -5.83301 -76.5 -17.5
s-44.167 -25.167 -63.5 -40.5v-386h-49zM66.001 708l-29 26l113 150h31l113 -150l-29 -26l-100 129z" />
    <glyph glyph-name="Hbar" unicode="&#x126;" horiz-adv-x="601" 
d="M76 0v508h-99v47h99v112h52v-112h346v112h51v-112h119v-47h-119v-508h-51v320h-346v-320h-52zM128 370h346v138h-346v-138z" />
    <glyph glyph-name="hbar" unicode="&#x127;" horiz-adv-x="495" 
d="M69 0l0.000976562 557h-76v43h76v67h49v-67h184v-43h-184v-122c17.333 14 38.166 26.5 62.499 37.5s52.5 16.5 84.5 16.5c44 0 79 -9 105 -27s44 -44 54 -78c6 -21.333 9 -50 9 -86v-298h-50v295c0 32.667 -3 57.667 -9 75c-17.333 49.333 -56 74 -116 74
c-28 0 -53.5 -5.83301 -76.5 -17.5s-44.167 -25.167 -63.5 -40.5v-386h-49z" />
    <glyph glyph-name="Itilde" unicode="&#x128;" horiz-adv-x="204" 
d="M76 0v667h52v-667h-52zM171 740c-13.333 0 -26.5029 3.33496 -39.5029 10.002s-24.167 13.667 -33.5 21c-27.333 19.333 -47 29 -59 29c-11.333 0 -21.666 -4.33301 -30.999 -13s-18.333 -23.334 -27 -44.001l-35 15c10.667 28.667 24.334 49.5 41.001 62.5
s36 19.5 58 19.5c13.333 0 26 -3 38 -9s24 -13.333 36 -22c22.667 -18 41.334 -27 56.001 -27c10 0 19.833 4.66699 29.5 14s19.167 25.666 28.5 48.999l35 -17c-12 -32 -26.667 -54.667 -44 -68s-35 -20 -53 -20z" />
    <glyph glyph-name="itilde" unicode="&#x129;" horiz-adv-x="204" 
d="M69 0v477h49v-477h-49zM162 574c-13.333 0 -26.5029 3.33496 -39.5029 10.002s-24.167 13.667 -33.5 21c-27.333 19.333 -47 29 -59 29c-11.333 0 -21.666 -4.33301 -30.999 -13s-18.333 -23.334 -27 -44.001l-35 15c10.667 28.667 24.334 49.5 41.001 62.5
s36 19.5 58 19.5c13.333 0 26 -3 38 -9s24 -13.333 36 -22c22.667 -18 41.334 -27 56.001 -27c10 0 19.833 4.66699 29.5 14s19.167 25.666 28.5 48.999l35 -17c-12 -32 -26.667 -54.667 -44 -68s-35 -20 -53 -20z" />
    <glyph glyph-name="Imacron" unicode="&#x12a;" horiz-adv-x="204" 
d="M76 0v667h52v-667h-52zM-32 773v46h279v-46h-279z" />
    <glyph glyph-name="imacron" unicode="&#x12b;" horiz-adv-x="204" 
d="M69 0v477h49v-477h-49zM-42 607v46h279v-46h-279z" />
    <glyph glyph-name="Ibreve" unicode="&#x12c;" horiz-adv-x="204" 
d="M76 0v667h52v-667h-52zM109 718c-17.333 0 -34.501 2.66699 -51.501 8s-32.5 13.833 -46.5 25.5s-25.5 26.667 -34.5 45s-13.833 40.5 -14.5 66.5h40c2.66699 -20.667 7.66699 -37.667 15 -51s16 -23.833 26 -31.5s20.667 -13 32 -16s22.666 -4.5 33.999 -4.5
c28.667 0 52.334 8.66699 71.001 26s30.334 43 35.001 77h40c0 -28.667 -5.5 -52.5 -16.5 -71.5s-24 -34.167 -39 -45.5s-30.833 -18.833 -47.5 -22.5s-31 -5.5 -43 -5.5z" />
    <glyph glyph-name="ibreve" unicode="&#x12d;" horiz-adv-x="204" 
d="M69 0v477h49v-477h-49zM99 552c-17.333 0 -34.501 2.66699 -51.501 8s-32.5 13.833 -46.5 25.5s-25.5 26.667 -34.5 45s-13.833 40.5 -14.5 66.5h40c2.66699 -20.667 7.66699 -37.667 15 -51s16 -23.833 26 -31.5s20.667 -13 32 -16s22.666 -4.5 33.999 -4.5
c28.667 0 52.334 8.66699 71.001 26s30.334 43 35.001 77h40c0 -28.667 -5.5 -52.5 -16.5 -71.5s-24 -34.167 -39 -45.5s-30.833 -18.833 -47.5 -22.5s-31 -5.5 -43 -5.5z" />
    <glyph glyph-name="Iogonek" unicode="&#x12e;" horiz-adv-x="204" 
d="M76 0v667h52v-667h-52zM77 -193c-22.667 0 -40.999 6.33398 -54.999 19.001s-21 31.667 -21 57c0 17.333 3.5 33.666 10.5 48.999s15.5 29 25.5 41s20 22.167 30 30.5s17.667 14.5 23 18.5l44 -10c-26 -19.333 -46.167 -38.5 -60.5 -57.5s-21.5 -39.167 -21.5 -60.5
c0 -28 11.333 -42 34 -42c11.333 0 24.666 4.66699 39.999 14l12 -42c-18.667 -11.333 -39 -17 -61 -17z" />
    <glyph glyph-name="iogonek" unicode="&#x12f;" horiz-adv-x="187" 
d="M69 0v477h49v-477h-49zM93 578c-10 0 -18.5 3.33301 -25.5 10s-10.5 16.667 -10.5 30c0 12 3.5 21.5 10.5 28.5s15.5 10.5 25.5 10.5s18.5 -3.5 25.5 -10.5s10.5 -16.5 10.5 -28.5c0 -13.333 -3.5 -23.333 -10.5 -30s-15.5 -10 -25.5 -10zM65 -193
c-22.667 0 -40.999 6.33398 -54.999 19.001s-21 31.667 -21 57c0 17.333 3.5 33.666 10.5 48.999s15.5 29 25.5 41s20 22.167 30 30.5s17.667 14.5 23 18.5l44 -10c-26 -19.333 -46.167 -38.5 -60.5 -57.5s-21.5 -39.167 -21.5 -60.5c0 -28 11.333 -42 34 -42
c11.333 0 24.666 4.66699 39.999 14l12 -42c-18.667 -11.333 -39 -17 -61 -17z" />
    <glyph glyph-name="Idotaccent" unicode="&#x130;" horiz-adv-x="204" 
d="M76 0v667h52v-667h-52zM106 767c-10 0 -18.5 3.33301 -25.5 10s-10.5 16.667 -10.5 30c0 12 3.5 21.5 10.5 28.5s15.5 10.5 25.5 10.5s18.5 -3.5 25.5 -10.5s10.5 -16.5 10.5 -28.5c0 -13.333 -3.5 -23.333 -10.5 -30s-15.5 -10 -25.5 -10z" />
    <glyph glyph-name="dotlessi" unicode="&#x131;" horiz-adv-x="187" 
d="M69 0v477h49v-477h-49z" />
    <glyph glyph-name="IJ" unicode="&#x132;" horiz-adv-x="555" 
d="M76 0v667h52v-667h-52zM344 -11c-29.333 0 -56.501 4.33496 -81.501 13.002s-41.167 17 -48.5 25l18 47c4.66699 -6.66699 15.167 -13.334 31.5 -20.001s30.833 -11.334 43.5 -14.001s25.667 -4 39 -4c34 0 57.167 9 69.5 27s18.5 44.333 18.5 79v525h52v-533
c0 -34 -4.33301 -59.667 -13 -77c-9.33301 -20 -24.666 -36.333 -45.999 -49s-49 -19 -83 -19z" />
    <glyph glyph-name="ij" unicode="&#x133;" horiz-adv-x="378" 
d="M69 0v477h49v-477h-49zM93 578c-10 0 -18.5 3.33301 -25.5 10s-10.5 16.667 -10.5 30c0 12 3.5 21.5 10.5 28.5s15.5 10.5 25.5 10.5s18.5 -3.5 25.5 -10.5s10.5 -16.5 10.5 -28.5c0 -13.333 -3.5 -23.333 -10.5 -30s-15.5 -10 -25.5 -10zM209 -196l-20 41
c26.667 18 45.167 38.667 55.5 62s15.5 53.333 15.5 90v480h49v-480c0 -49.333 -8.33301 -88.833 -25 -118.5s-41.667 -54.5 -75 -74.5zM287 578c-10 0 -18.5 3.33301 -25.5 10s-10.5 16.667 -10.5 30c0 12 3.5 21.5 10.5 28.5s15.5 10.5 25.5 10.5s18.5 -3.5 25.5 -10.5
s10.5 -16.5 10.5 -28.5c0 -13.333 -3.5 -23.333 -10.5 -30s-15.5 -10 -25.5 -10z" />
    <glyph glyph-name="Jcircumflex" unicode="&#x134;" horiz-adv-x="353" 
d="M142 -11c-29.333 0 -56.501 4.33496 -81.501 13.002s-41.167 17 -48.5 25l18 47c4.66699 -6.66699 15.167 -13.334 31.5 -20.001s30.833 -11.334 43.5 -14.001s25.667 -4 39 -4c34 0 57.167 9 69.5 27s18.5 44.333 18.5 79v525h52v-533c0 -34 -4.33301 -59.667 -13 -77
c-9.33301 -20 -24.666 -36.333 -45.999 -49s-49 -19 -83 -19zM159.999 708.002l-29 26l113 150h31l113 -150l-29 -26l-100 129z" />
    <glyph glyph-name="jcircumflex" unicode="&#x135;" horiz-adv-x="187" 
d="M18 -196l-20 41c26.667 18 45.167 38.667 55.5 62s15.5 53.333 15.5 90v480h49v-480c0 -49.333 -8.33301 -88.833 -25 -118.5s-41.667 -54.5 -75 -74.5zM-7 542l-29 26l113 150h31l113 -150l-29 -26l-100 129z" />
    <glyph glyph-name="Kcommaaccent" unicode="&#x136;" horiz-adv-x="519" 
d="M76 0l0.000976562 666.998h52v-300h105c18.667 0 34.5 5.83301 47.5 17.5s26.5 33.167 40.5 64.5l97 218h56l-101 -227c-10.667 -23.333 -21.167 -42.666 -31.5 -57.999s-22.166 -25.666 -35.499 -30.999c18.667 -5.33301 33.167 -13.5 43.5 -24.5
s20.166 -28.167 29.499 -51.5l110 -275h-56l-84 206c-16.667 38.667 -28.834 64.5 -36.501 77.5s-17.167 22.167 -28.5 27.5s-24.333 8 -39 8h-117v-319h-52zM187.001 -174.002l48 130h59l-68 -130h-39z" />
    <glyph glyph-name="kcommaaccent" unicode="&#x137;" horiz-adv-x="439" 
d="M69 0l-0.000976562 666.998h49v-377h78c19.333 0 36 6.33301 50 19s28 35 42 67l44 101h53l-50 -110c-10.667 -23.333 -21.667 -43 -33 -59s-23.666 -26.667 -36.999 -32c18.667 -5.33301 33.5 -13.166 44.5 -23.499s21.167 -27.166 30.5 -50.499l80 -202h-52l-57 141
c-17.333 37.333 -29 61.333 -35 72s-15.333 18.667 -28 24s-26 8 -40 8h-90v-245h-49zM151.999 -174.002l48 130h59l-68 -130h-39z" />
    <glyph glyph-name="kgreenlandic" unicode="&#x138;" horiz-adv-x="439" 
d="M69 0l-0.000976562 476.998h49v-209h78c19.333 0 36 6.33301 50 19s28 35 42 67l54 123h53l-60 -132c-10.667 -23.333 -21.667 -43 -33 -59s-23.666 -26.667 -36.999 -32c18.667 -5.33301 33.5 -13.166 44.5 -23.499s21.167 -27.166 30.5 -50.499l72 -180h-52l-49 119
c-17.333 37.333 -29 61.333 -35 72s-15.333 18.667 -28 24s-26 8 -40 8h-90v-223h-49z" />
    <glyph glyph-name="Lacute" unicode="&#x139;" horiz-adv-x="450" 
d="M76 0v667h52v-618h307v-49h-359zM32 711l-24 29l155 139l37 -41z" />
    <glyph glyph-name="lacute" unicode="&#x13a;" horiz-adv-x="219" 
d="M148 -11c-26 0 -45.668 5.83203 -59.001 17.499s-20.666 24.834 -21.999 39.501s-2 26.667 -2 36v585h49v-573c0 -23.333 2.5 -39.833 7.5 -49.5s16.167 -14.5 33.5 -14.5c13.333 0 30 5 50 15l9 -40c-8.66699 -4.66699 -19 -8.5 -31 -11.5s-23.667 -4.5 -35 -4.5z
M22.999 710.999l-24 29l155 139l37 -41z" />
    <glyph glyph-name="Lcommaaccent" unicode="&#x13b;" horiz-adv-x="450" 
d="M76 0v667h52v-618h307v-49h-359zM185 -174l48 130h59l-68 -130h-39z" />
    <glyph glyph-name="lcommaaccent" unicode="&#x13c;" horiz-adv-x="219" 
d="M148 -11c-26 0 -45.668 5.83203 -59.001 17.499s-20.666 24.834 -21.999 39.501s-2 26.667 -2 36v585h49v-573c0 -23.333 2.5 -39.833 7.5 -49.5s16.167 -14.5 33.5 -14.5c13.333 0 30 5 50 15l9 -40c-8.66699 -4.66699 -19 -8.5 -31 -11.5s-23.667 -4.5 -35 -4.5z
M65.999 -174.001l48 130h59l-68 -130h-39z" />
    <glyph glyph-name="Lcaron" unicode="&#x13d;" horiz-adv-x="450" 
d="M76 0v667h52v-618h307v-49h-359zM231 497v170h64l-24 -170h-40z" />
    <glyph glyph-name="lcaron" unicode="&#x13e;" horiz-adv-x="219" 
d="M148 -11c-26 0 -45.668 5.83203 -59.001 17.499s-20.666 24.834 -21.999 39.501s-2 26.667 -2 36v585h49v-573c0 -23.333 2.5 -39.833 7.5 -49.5s16.167 -14.5 33.5 -14.5c13.333 0 30 5 50 15l9 -40c-8.66699 -4.66699 -19 -8.5 -31 -11.5s-23.667 -4.5 -35 -4.5z
M176.999 496.999v170h64l-24 -170h-40z" />
    <glyph glyph-name="Ldot" unicode="&#x13f;" horiz-adv-x="450" 
d="M76 0v667h52v-618h307v-49h-359zM335 322c-10 0 -18.5 3.33301 -25.5 10s-10.5 16.667 -10.5 30c0 12 3.5 21.5 10.5 28.5s15.5 10.5 25.5 10.5s18.5 -3.5 25.5 -10.5s10.5 -16.5 10.5 -28.5c0 -13.333 -3.5 -23.333 -10.5 -30s-15.5 -10 -25.5 -10z" />
    <glyph glyph-name="ldot" unicode="&#x140;" horiz-adv-x="240" 
d="M148 -11c-26 0 -45.668 5.83203 -59.001 17.499s-20.666 24.834 -21.999 39.501s-2 26.667 -2 36v585h49v-573c0 -23.333 2.5 -39.833 7.5 -49.5s16.167 -14.5 33.5 -14.5c13.333 0 30 5 50 15l9 -40c-8.66699 -4.66699 -19 -8.5 -31 -11.5s-23.667 -4.5 -35 -4.5z
M213.999 321.999c-10 0 -18.5 3.33301 -25.5 10s-10.5 16.667 -10.5 30c0 12 3.5 21.5 10.5 28.5s15.5 10.5 25.5 10.5s18.5 -3.5 25.5 -10.5s10.5 -16.5 10.5 -28.5c0 -13.333 -3.5 -23.333 -10.5 -30s-15.5 -10 -25.5 -10z" />
    <glyph glyph-name="Lslash" unicode="&#x141;" horiz-adv-x="450" 
d="M76 0v295l-78 -53l-25 37l103 73v315h52v-285l130 91l25 -39l-155 -110v-275h307v-49h-359z" />
    <glyph glyph-name="lslash" unicode="&#x142;" horiz-adv-x="232" 
d="M161 -11c-26 0 -45.668 5.83203 -59.001 17.499s-20.666 24.834 -21.999 39.501s-2 26.667 -2 36v213l-59 -39l-24 36l83 57v318h49v-290l76 55l25 -39l-101 -71v-228c0 -23.333 2.5 -39.833 7.5 -49.5s16.167 -14.5 33.5 -14.5c13.333 0 30 5 50 15l9 -40
c-8.66699 -4.66699 -19 -8.5 -31 -11.5s-23.667 -4.5 -35 -4.5z" />
    <glyph glyph-name="Nacute" unicode="&#x143;" horiz-adv-x="613" 
d="M76 0v667h55l355 -562v562h51v-667h-45l-365 575v-575h-51zM257 717l-24 29l155 139l37 -41z" />
    <glyph glyph-name="nacute" unicode="&#x144;" horiz-adv-x="495" 
d="M69 0l0.000976562 477.003h44l5 -45c17.333 15.333 38.166 28.666 62.499 39.999s52.5 17 84.5 17c44.667 0 80 -8.83301 106 -26.5s43.667 -43.834 53 -78.501c6.66699 -20.667 10 -49.334 10 -86.001v-298h-50v295c0 32.667 -3 57.667 -9 75
c-17.333 49.333 -56 74 -116 74c-28.667 0 -54.667 -6 -78 -18s-44.333 -26.667 -63 -44v-382h-49zM185.001 545.003l-24 29l155 139l37 -41z" />
    <glyph glyph-name="Ncommaaccent" unicode="&#x145;" horiz-adv-x="613" 
d="M76 0v667h55l355 -562v562h51v-667h-45l-365 575v-575h-51zM240 -174l48 130h59l-68 -130h-39z" />
    <glyph glyph-name="ncommaaccent" unicode="&#x146;" horiz-adv-x="495" 
d="M69 0l0.000976562 477.003h44l5 -45c17.333 15.333 38.166 28.666 62.499 39.999s52.5 17 84.5 17c44.667 0 80 -8.83301 106 -26.5s43.667 -43.834 53 -78.501c6.66699 -20.667 10 -49.334 10 -86.001v-298h-50v295c0 32.667 -3 57.667 -9 75
c-17.333 49.333 -56 74 -116 74c-28.667 0 -54.667 -6 -78 -18s-44.333 -26.667 -63 -44v-382h-49zM185.001 -173.997l48 130h59l-68 -130h-39z" />
    <glyph glyph-name="Ncaron" unicode="&#x147;" horiz-adv-x="613" 
d="M76 0v667h55l355 -562v562h51v-667h-45l-365 575v-575h-51zM297 706l-113 150l29 26l99 -129l100 129l29 -26l-113 -150h-31z" />
    <glyph glyph-name="ncaron" unicode="&#x148;" horiz-adv-x="495" 
d="M69 0l0.000976562 477.003h44l5 -45c17.333 15.333 38.166 28.666 62.499 39.999s52.5 17 84.5 17c44.667 0 80 -8.83301 106 -26.5s43.667 -43.834 53 -78.501c6.66699 -20.667 10 -49.334 10 -86.001v-298h-50v295c0 32.667 -3 57.667 -9 75
c-17.333 49.333 -56 74 -116 74c-28.667 0 -54.667 -6 -78 -18s-44.333 -26.667 -63 -44v-382h-49zM244.001 542.003l-113 150l29 26l99 -129l100 129l29 -26l-113 -150h-31z" />
    <glyph glyph-name="napostrophe" unicode="&#x149;" horiz-adv-x="495" 
d="M69 0l0.000976562 477.003h44l5 -45c17.333 15.333 38.166 28.666 62.499 39.999s52.5 17 84.5 17c44.667 0 80 -8.83301 106 -26.5s43.667 -43.834 53 -78.501c6.66699 -20.667 10 -49.334 10 -86.001v-298h-50v295c0 32.667 -3 57.667 -9 75
c-17.333 49.333 -56 74 -116 74c-28.667 0 -54.667 -6 -78 -18s-44.333 -26.667 -63 -44v-382h-49zM43.001 529.003l-17.001 22c8.66699 8.66699 17.167 19 25.5 31s13.166 23.667 14.499 35c-12 0 -22.167 4.5 -30.5 13.5s-12.5 19.833 -12.5 32.5s3.66699 23 11 31
s17.333 12 30 12c14.667 0 25.834 -5.5 33.501 -16.5s11.5 -24.167 11.5 -39.5c0 -23.333 -6.66699 -45.833 -20 -67.5s-28.666 -39.5 -45.999 -53.5z" />
    <glyph glyph-name="Eng" unicode="&#x14a;" horiz-adv-x="613" 
d="M437 -196l-20 41c26 17.333 44.167 37.333 54.5 60s15.833 51.667 16.5 87v12l-361 571v-575h-51v667h55l355 -564v564h51v-670c0 -49.333 -8.33301 -88.833 -25 -118.5s-41.667 -54.5 -75 -74.5z" />
    <glyph glyph-name="eng" unicode="&#x14b;" horiz-adv-x="495" 
d="M334 -196l-20.999 41.0029c26 17.333 44.333 37.333 55 60s16 51.667 16 87v303c0 32.667 -3 57.667 -9 75c-17.333 49.333 -56 74 -116 74c-28.667 0 -54.667 -6 -78 -18s-44.333 -26.667 -63 -44v-382h-49v477h44l5 -45c17.333 15.333 38.166 28.666 62.499 39.999
s52.5 17 84.5 17c44.667 0 80 -8.83301 106 -26.5s43.667 -43.834 53 -78.501c6.66699 -20.667 10 -49.334 10 -86.001v-301c0 -49.333 -8.33301 -88.833 -25 -118.5s-41.667 -54.5 -75 -74.5z" />
    <glyph glyph-name="Omacron" unicode="&#x14c;" horiz-adv-x="617" 
d="M309 -13c-44 0 -82.168 9.83496 -114.501 29.502s-59.333 45.667 -81 78s-37.667 69.333 -48 111s-15.5 84.5 -15.5 128.5c0 69.333 12.333 132 37 188c16 39.333 37.667 71.5 65 96.5s55 41.5 83 49.5s52.667 12 74 12c62.667 0 114 -20 154 -60
c40.667 -38.667 68 -85.334 82 -140.001c14.667 -52.667 22 -101.334 22 -146.001c0 -72 -12.333 -135.667 -37 -191c-17.333 -40 -39.666 -72.167 -66.999 -96.5s-54.333 -40.333 -81 -48s-51 -11.5 -73 -11.5zM308.999 36.002c48 0 88.5 17.499 121.5 52.499
s55.167 75.833 66.5 122.5c10.667 44.667 16 85.667 16 123c0 58.667 -9.33301 111 -28 157c-18 48 -42.833 83.333 -74.5 106s-65.5 34 -101.5 34c-35.333 0 -66 -8.66699 -92 -26s-47.333 -40.166 -64 -68.499s-29 -60.166 -37 -95.499s-12 -71 -12 -107
c0 -56.667 9.66699 -110.334 29 -161.001c20 -50 45.667 -85.333 77 -106s64.333 -31 99 -31zM168.999 773.001v46h279v-46h-279z" />
    <glyph glyph-name="omacron" unicode="&#x14d;" horiz-adv-x="497" 
d="M248 -11c-48 0 -88.333 15.001 -121 45.001c-29.333 26 -50 57.5 -62 94.5s-18 74.833 -18 113.5c0 50 9.66699 95 29 135s44.333 68.667 75 86s63 26 97 26c46.667 0 86.667 -14.667 120 -44c22 -20 39.333 -42.667 52 -68s21 -50.5 25 -75.5s6 -45.5 6 -61.5
c0 -52.667 -10.333 -99.334 -31 -140.001c-20 -40 -45.167 -68.5 -75.5 -85.5s-62.5 -25.5 -96.5 -25.5zM248 33.001c28.667 -1.33301 52.8301 5.50098 72.4971 20.501s35.667 33.333 48 55s21 44.667 26 69s7.16699 45.5 6.5 63.5c0.666992 44 -7.66602 82.667 -24.999 116
s-38.166 56.666 -62.499 69.999s-46.166 19.333 -65.499 18c-36.667 0 -67.667 -12.667 -93 -38c-23.333 -23.333 -39 -49.333 -47 -78s-12 -57.667 -12 -87c0 -26 3.16699 -51.5 9.5 -76.5s15.833 -47.333 28.5 -67s28.5 -35.5 47.5 -47.5s41.167 -18 66.5 -18z
M114.996 610.002v46h279v-46h-279z" />
    <glyph glyph-name="Obreve" unicode="&#x14e;" horiz-adv-x="617" 
d="M309 -13c-44 0 -82.168 9.83496 -114.501 29.502s-59.333 45.667 -81 78s-37.667 69.333 -48 111s-15.5 84.5 -15.5 128.5c0 69.333 12.333 132 37 188c16 39.333 37.667 71.5 65 96.5s55 41.5 83 49.5s52.667 12 74 12c62.667 0 114 -20 154 -60
c40.667 -38.667 68 -85.334 82 -140.001c14.667 -52.667 22 -101.334 22 -146.001c0 -72 -12.333 -135.667 -37 -191c-17.333 -40 -39.666 -72.167 -66.999 -96.5s-54.333 -40.333 -81 -48s-51 -11.5 -73 -11.5zM308.999 36.002c48 0 88.5 17.499 121.5 52.499
s55.167 75.833 66.5 122.5c10.667 44.667 16 85.667 16 123c0 58.667 -9.33301 111 -28 157c-18 48 -42.833 83.333 -74.5 106s-65.5 34 -101.5 34c-35.333 0 -66 -8.66699 -92 -26s-47.333 -40.166 -64 -68.499s-29 -60.166 -37 -95.499s-12 -71 -12 -107
c0 -56.667 9.66699 -110.334 29 -161.001c20 -50 45.667 -85.333 77 -106s64.333 -31 99 -31zM311.999 718.001c-17.333 0 -34.501 2.66699 -51.501 8s-32.5 13.833 -46.5 25.5s-25.5 26.667 -34.5 45s-13.833 40.5 -14.5 66.5h40c2.66699 -20.667 7.66699 -37.667 15 -51
s16 -23.833 26 -31.5s20.667 -13 32 -16s22.666 -4.5 33.999 -4.5c28.667 0 52.334 8.66699 71.001 26s30.334 43 35.001 77h40c0 -28.667 -5.5 -52.5 -16.5 -71.5s-24 -34.167 -39 -45.5s-30.833 -18.833 -47.5 -22.5s-31 -5.5 -43 -5.5z" />
    <glyph glyph-name="obreve" unicode="&#x14f;" horiz-adv-x="497" 
d="M248 -11c-48 0 -88.333 15.001 -121 45.001c-29.333 26 -50 57.5 -62 94.5s-18 74.833 -18 113.5c0 50 9.66699 95 29 135s44.333 68.667 75 86s63 26 97 26c46.667 0 86.667 -14.667 120 -44c22 -20 39.333 -42.667 52 -68s21 -50.5 25 -75.5s6 -45.5 6 -61.5
c0 -52.667 -10.333 -99.334 -31 -140.001c-20 -40 -45.167 -68.5 -75.5 -85.5s-62.5 -25.5 -96.5 -25.5zM248 33.001c28.667 -1.33301 52.8301 5.50098 72.4971 20.501s35.667 33.333 48 55s21 44.667 26 69s7.16699 45.5 6.5 63.5c0.666992 44 -7.66602 82.667 -24.999 116
s-38.166 56.666 -62.499 69.999s-46.166 19.333 -65.499 18c-36.667 0 -67.667 -12.667 -93 -38c-23.333 -23.333 -39 -49.333 -47 -78s-12 -57.667 -12 -87c0 -26 3.16699 -51.5 9.5 -76.5s15.833 -47.333 28.5 -67s28.5 -35.5 47.5 -47.5s41.167 -18 66.5 -18z
M251.996 552.002c-17.333 0 -34.501 2.66699 -51.501 8s-32.5 13.833 -46.5 25.5s-25.5 26.667 -34.5 45s-13.833 40.5 -14.5 66.5h40c2.66699 -20.667 7.66699 -37.667 15 -51s16 -23.833 26 -31.5s20.667 -13 32 -16s22.666 -4.5 33.999 -4.5
c28.667 0 52.334 8.66699 71.001 26s30.334 43 35.001 77h40c0 -28.667 -5.5 -52.5 -16.5 -71.5s-24 -34.167 -39 -45.5s-30.833 -18.833 -47.5 -22.5s-31 -5.5 -43 -5.5z" />
    <glyph glyph-name="Ohungarumlaut" unicode="&#x150;" horiz-adv-x="617" 
d="M309 -13c-44 0 -82.168 9.83496 -114.501 29.502s-59.333 45.667 -81 78s-37.667 69.333 -48 111s-15.5 84.5 -15.5 128.5c0 69.333 12.333 132 37 188c16 39.333 37.667 71.5 65 96.5s55 41.5 83 49.5s52.667 12 74 12c62.667 0 114 -20 154 -60
c40.667 -38.667 68 -85.334 82 -140.001c14.667 -52.667 22 -101.334 22 -146.001c0 -72 -12.333 -135.667 -37 -191c-17.333 -40 -39.666 -72.167 -66.999 -96.5s-54.333 -40.333 -81 -48s-51 -11.5 -73 -11.5zM308.999 36.002c48 0 88.5 17.499 121.5 52.499
s55.167 75.833 66.5 122.5c10.667 44.667 16 85.667 16 123c0 58.667 -9.33301 111 -28 157c-18 48 -42.833 83.333 -74.5 106s-65.5 34 -101.5 34c-35.333 0 -66 -8.66699 -92 -26s-47.333 -40.166 -64 -68.499s-29 -60.166 -37 -95.499s-12 -71 -12 -107
c0 -56.667 9.66699 -110.334 29 -161.001c20 -50 45.667 -85.333 77 -106s64.333 -31 99 -31zM176.999 712.001l-22 28l155 139l35 -40zM337.999 712.001l-21 28l154 139l36 -40z" />
    <glyph glyph-name="ohungarumlaut" unicode="&#x151;" horiz-adv-x="497" 
d="M248 -11c-48 0 -88.333 15.001 -121 45.001c-29.333 26 -50 57.5 -62 94.5s-18 74.833 -18 113.5c0 50 9.66699 95 29 135s44.333 68.667 75 86s63 26 97 26c46.667 0 86.667 -14.667 120 -44c22 -20 39.333 -42.667 52 -68s21 -50.5 25 -75.5s6 -45.5 6 -61.5
c0 -52.667 -10.333 -99.334 -31 -140.001c-20 -40 -45.167 -68.5 -75.5 -85.5s-62.5 -25.5 -96.5 -25.5zM248 33.001c28.667 -1.33301 52.8301 5.50098 72.4971 20.501s35.667 33.333 48 55s21 44.667 26 69s7.16699 45.5 6.5 63.5c0.666992 44 -7.66602 82.667 -24.999 116
s-38.166 56.666 -62.499 69.999s-46.166 19.333 -65.499 18c-36.667 0 -67.667 -12.667 -93 -38c-23.333 -23.333 -39 -49.333 -47 -78s-12 -57.667 -12 -87c0 -26 3.16699 -51.5 9.5 -76.5s15.833 -47.333 28.5 -67s28.5 -35.5 47.5 -47.5s41.167 -18 66.5 -18z
M121.996 546.002l-22 28l155 139l35 -40zM282.996 546.002l-21 28l154 139l36 -40z" />
    <glyph glyph-name="OE" unicode="&#x152;" horiz-adv-x="847" 
d="M331 0c-43.333 0 -82.332 8.50098 -116.999 25.501s-64.167 40.5 -88.5 70.5s-43 65.333 -56 106s-19.5 84.667 -19.5 132c0 73.333 14.667 136.666 44 189.999c30 54 66.167 91.333 108.5 112s85.166 31 128.499 31h472v-49h-305v-240h221v-49h-221v-280h323v-49h-490z
M331.001 49.001l116.998 0.00195312v569h-117c-51.333 0 -95.333 -16 -132 -48c-36 -30 -60.667 -67.667 -74 -113c-12.667 -42 -19 -83 -19 -123s5.16699 -77.333 15.5 -112s25.333 -64.834 45 -90.501s43.334 -45.834 71.001 -60.501s58.834 -22 93.501 -22z" />
    <glyph glyph-name="oe" unicode="&#x153;" horiz-adv-x="818" 
d="M248 -11c-48 0 -88.3281 15 -120.995 45c-29.333 26 -50 57.5 -62 94.5s-18 74.833 -18 113.5c0 52 9.33301 97 28 135c19.333 40 44.666 68.667 75.999 86s64 26 98 26c45.333 0 81.666 -11 108.999 -33s49.666 -51.333 66.999 -88c15.333 38.667 37 68.5 65 89.5
s62 31.5 102 31.5c35.333 0 65.166 -7.5 89.499 -22.5s44 -34.333 59 -58s25.667 -50 32 -79s9.5 -56.5 9.5 -82.5h-336c0 -68 13.5 -120.667 40.5 -158s66.833 -56 119.5 -56c56.667 0 104.334 20.333 143.001 61l15 -45c-9.33301 -9.33301 -21 -18.333 -35 -27
c-12.667 -8 -30.834 -15.5 -54.501 -22.5s-46.834 -10.5 -69.501 -10.5c-46 0 -84.833 10.667 -116.5 32s-53.834 50.333 -66.501 87c-17.333 -40.667 -41.666 -70.667 -72.999 -90s-65 -29 -101 -29zM248.005 33c28.667 0 52.833 7.16699 72.5 21.5s35.667 32.333 48 54
s21 44.667 26 69s7.5 45.5 7.5 63.5c0 50 -8.83301 90.667 -26.5 122s-38.667 52.833 -63 64.5s-45.833 17.5 -64.5 17.5c-36.667 0 -67.667 -12.667 -93 -38c-23.333 -23.333 -39 -49.333 -47 -78s-12 -57.667 -12 -87c0 -26 3.16699 -51.5 9.5 -76.5
s15.833 -47.333 28.5 -67s28.5 -35.5 47.5 -47.5s41.167 -18 66.5 -18zM450.004 291l276 -0.000976562c-2 38 -12 69.833 -30 95.5s-37 41.834 -57 48.501s-35.333 10 -46 10c-36 0 -67 -12.167 -93 -36.5s-42.667 -63.5 -50 -117.5z" />
    <glyph glyph-name="Racute" unicode="&#x154;" horiz-adv-x="533" 
d="M76 0v667h200c64.667 0 113.667 -15.667 147 -47s50 -76 50 -134c0.666992 -34 -6.16602 -63.333 -20.499 -88s-30 -42.334 -47 -53.001s-31.167 -17.667 -42.5 -21c21.333 -6.66699 36.666 -19.5 45.999 -38.5s18.333 -43.5 27 -73.5
c2.66699 -14 12.667 -50.333 30 -109l27 -103h-55l-28 104c-23.333 78 -37.333 124 -42 138c-6.66699 18.667 -16.667 33.334 -30 44.001s-30 16 -50 16h-160v-302h-52zM128 351h144c48 0 84.333 11 109 33s37 56 37 102c0 42 -12.167 74.5 -36.5 97.5
s-59.833 34.5 -106.5 34.5h-147v-267zM182 711l-24 29l155 139l37 -41z" />
    <glyph glyph-name="racute" unicode="&#x155;" horiz-adv-x="292" 
d="M69 0l-0.000976562 477h43l4 -49c14 14 32.5 27.5 55.5 40.5s43.5 19.5 61.5 19.5c16.667 0 34.667 -2.33301 54 -7l-7 -48c-12 4.66699 -26 7 -42 7c-21.333 0 -42.166 -6.16699 -62.499 -18.5s-39.5 -27.5 -57.5 -45.5v-376h-49zM116.999 545l-24 29l155 139l37 -41z
" />
    <glyph glyph-name="Rcommaaccent" unicode="&#x156;" horiz-adv-x="533" 
d="M76 0v667h200c64.667 0 113.667 -15.667 147 -47s50 -76 50 -134c0.666992 -34 -6.16602 -63.333 -20.499 -88s-30 -42.334 -47 -53.001s-31.167 -17.667 -42.5 -21c21.333 -6.66699 36.666 -19.5 45.999 -38.5s18.333 -43.5 27 -73.5
c2.66699 -14 12.667 -50.333 30 -109l27 -103h-55l-28 104c-23.333 78 -37.333 124 -42 138c-6.66699 18.667 -16.667 33.334 -30 44.001s-30 16 -50 16h-160v-302h-52zM128 351h144c48 0 84.333 11 109 33s37 56 37 102c0 42 -12.167 74.5 -36.5 97.5
s-59.833 34.5 -106.5 34.5h-147v-267zM204 -174l48 130h59l-68 -130h-39z" />
    <glyph glyph-name="rcommaaccent" unicode="&#x157;" horiz-adv-x="292" 
d="M69 0l-0.000976562 477h43l4 -49c14 14 32.5 27.5 55.5 40.5s43.5 19.5 61.5 19.5c16.667 0 34.667 -2.33301 54 -7l-7 -48c-12 4.66699 -26 7 -42 7c-21.333 0 -42.166 -6.16699 -62.499 -18.5s-39.5 -27.5 -57.5 -45.5v-376h-49zM16.999 -174l48 130h59l-68 -130h-39z
" />
    <glyph glyph-name="Rcaron" unicode="&#x158;" horiz-adv-x="533" 
d="M76 0v667h200c64.667 0 113.667 -15.667 147 -47s50 -76 50 -134c0.666992 -34 -6.16602 -63.333 -20.499 -88s-30 -42.334 -47 -53.001s-31.167 -17.667 -42.5 -21c21.333 -6.66699 36.666 -19.5 45.999 -38.5s18.333 -43.5 27 -73.5
c2.66699 -14 12.667 -50.333 30 -109l27 -103h-55l-28 104c-23.333 78 -37.333 124 -42 138c-6.66699 18.667 -16.667 33.334 -30 44.001s-30 16 -50 16h-160v-302h-52zM128 351h144c48 0 84.333 11 109 33s37 56 37 102c0 42 -12.167 74.5 -36.5 97.5
s-59.833 34.5 -106.5 34.5h-147v-267zM226 708l-113 150l29 26l99 -129l100 129l29 -26l-113 -150h-31z" />
    <glyph glyph-name="rcaron" unicode="&#x159;" horiz-adv-x="292" 
d="M69 0l-0.000976562 477h43l4 -49c14 14 32.5 27.5 55.5 40.5s43.5 19.5 61.5 19.5c16.667 0 34.667 -2.33301 54 -7l-7 -48c-12 4.66699 -26 7 -42 7c-21.333 0 -42.166 -6.16699 -62.499 -18.5s-39.5 -27.5 -57.5 -45.5v-376h-49zM161.999 542l-113 150l29 26l99 -129
l100 129l29 -26l-113 -150h-31z" />
    <glyph glyph-name="Sacute" unicode="&#x15a;" horiz-adv-x="480" 
d="M236 -13c-32 1.33301 -64.832 8.00293 -98.499 20.0029s-58.334 24.167 -74.001 36.5s-26.167 21.833 -31.5 28.5l29 48c9.33301 -10 20.5 -20 33.5 -30s27.333 -19 43 -27s32 -14.5 49 -19.5s34.167 -7.5 51.5 -7.5c24.667 -1.33301 46.334 1.66699 65.001 9
s34.167 17.166 46.5 29.499s21.666 26.666 27.999 42.999s9.16602 33.166 8.49902 50.499c0 20 -2.83301 37.667 -8.5 53s-14.167 29 -25.5 41s-25.833 22.833 -43.5 32.5s-38.5 19.167 -62.5 28.5l-68 24c-40 14 -71.833 34.167 -95.5 60.5s-35.5 60.5 -35.5 102.5
c0 36.667 10 68.667 30 96c20.667 28 45.834 47.333 75.501 58s58.5 16 86.5 16c46.667 0 86.167 -8.66699 118.5 -26s58.166 -38 77.499 -62l-32 -39c-16 20 -37.167 38 -63.5 54s-58.5 24 -96.5 24c-40 0.666992 -73 -8.83301 -99 -28.5s-39.333 -48.5 -40 -86.5
c0 -32 9.5 -57.333 28.5 -76s43.833 -33.667 74.5 -45l65 -24c32 -11.333 58.833 -23.666 80.5 -36.999s38.834 -28 51.501 -44s21.834 -33.5 27.501 -52.5s8.5 -39.5 8.5 -61.5c0 -62.667 -18.333 -109.834 -55 -141.501s-86.334 -47.5 -149.001 -47.5zM171.001 711.003
l-24 29l155 139l37 -41z" />
    <glyph glyph-name="sacute" unicode="&#x15b;" horiz-adv-x="377" 
d="M188 -11c-39.333 0 -71 5.99902 -95 17.999s-41.333 23.333 -52 34l19 45c11.333 -11.333 28 -23 50 -35s48 -18 78 -18c34 0 60.167 7.5 78.5 22.5s27.5 36.5 27.5 64.5s-8.66699 50.667 -26 68c-18 18 -49.667 35.333 -95 52c-43.333 15.333 -74.333 32.833 -93 52.5
s-28 46.167 -28 79.5c0 26.667 8.16699 49.334 24.5 68.001s35.833 31.5 58.5 38.5s42.667 10.5 60 10.5c34 0 63.333 -6 88 -18s43.334 -24.667 56.001 -38l-21 -39c-19.333 16.667 -39 29.5 -59 38.5s-42.667 13.5 -68 13.5c-30 0 -52.333 -6.66699 -67 -20
s-22 -30.333 -22 -51c0 -12 1.83301 -22.333 5.5 -31s9.83398 -16.834 18.501 -24.501s20.5 -14.834 35.5 -21.501s33.5 -14 55.5 -22c42 -15.333 73.667 -34.166 95 -56.499s32 -54.166 32 -95.499c0 -24.667 -4.83301 -45.667 -14.5 -63s-22.334 -31.5 -38.001 -42.5
s-32.834 -18.667 -51.501 -23s-36 -6.5 -52 -6.5zM129 544.999l-24 29l155 139l37 -41z" />
    <glyph glyph-name="Scircumflex" unicode="&#x15c;" horiz-adv-x="480" 
d="M236 -13c-32 1.33301 -64.832 8.00293 -98.499 20.0029s-58.334 24.167 -74.001 36.5s-26.167 21.833 -31.5 28.5l29 48c9.33301 -10 20.5 -20 33.5 -30s27.333 -19 43 -27s32 -14.5 49 -19.5s34.167 -7.5 51.5 -7.5c24.667 -1.33301 46.334 1.66699 65.001 9
s34.167 17.166 46.5 29.499s21.666 26.666 27.999 42.999s9.16602 33.166 8.49902 50.499c0 20 -2.83301 37.667 -8.5 53s-14.167 29 -25.5 41s-25.833 22.833 -43.5 32.5s-38.5 19.167 -62.5 28.5l-68 24c-40 14 -71.833 34.167 -95.5 60.5s-35.5 60.5 -35.5 102.5
c0 36.667 10 68.667 30 96c20.667 28 45.834 47.333 75.501 58s58.5 16 86.5 16c46.667 0 86.167 -8.66699 118.5 -26s58.166 -38 77.499 -62l-32 -39c-16 20 -37.167 38 -63.5 54s-58.5 24 -96.5 24c-40 0.666992 -73 -8.83301 -99 -28.5s-39.333 -48.5 -40 -86.5
c0 -32 9.5 -57.333 28.5 -76s43.833 -33.667 74.5 -45l65 -24c32 -11.333 58.833 -23.666 80.5 -36.999s38.834 -28 51.501 -44s21.834 -33.5 27.501 -52.5s8.5 -39.5 8.5 -61.5c0 -62.667 -18.333 -109.834 -55 -141.501s-86.334 -47.5 -149.001 -47.5zM151.001 708.003
l-29 26l113 150h31l113 -150l-29 -26l-100 129z" />
    <glyph glyph-name="scircumflex" unicode="&#x15d;" horiz-adv-x="377" 
d="M188 -11c-39.333 0 -71 5.99902 -95 17.999s-41.333 23.333 -52 34l19 45c11.333 -11.333 28 -23 50 -35s48 -18 78 -18c34 0 60.167 7.5 78.5 22.5s27.5 36.5 27.5 64.5s-8.66699 50.667 -26 68c-18 18 -49.667 35.333 -95 52c-43.333 15.333 -74.333 32.833 -93 52.5
s-28 46.167 -28 79.5c0 26.667 8.16699 49.334 24.5 68.001s35.833 31.5 58.5 38.5s42.667 10.5 60 10.5c34 0 63.333 -6 88 -18s43.334 -24.667 56.001 -38l-21 -39c-19.333 16.667 -39 29.5 -59 38.5s-42.667 13.5 -68 13.5c-30 0 -52.333 -6.66699 -67 -20
s-22 -30.333 -22 -51c0 -12 1.83301 -22.333 5.5 -31s9.83398 -16.834 18.501 -24.501s20.5 -14.834 35.5 -21.501s33.5 -14 55.5 -22c42 -15.333 73.667 -34.166 95 -56.499s32 -54.166 32 -95.499c0 -24.667 -4.83301 -45.667 -14.5 -63s-22.334 -31.5 -38.001 -42.5
s-32.834 -18.667 -51.501 -23s-36 -6.5 -52 -6.5zM98 541.999l-29 26l113 150h31l113 -150l-29 -26l-100 129z" />
    <glyph glyph-name="Scedilla" unicode="&#x15e;" horiz-adv-x="480" 
d="M236 -13c-32 1.33301 -64.832 8.00293 -98.499 20.0029s-58.334 24.167 -74.001 36.5s-26.167 21.833 -31.5 28.5l29 48c9.33301 -10 20.5 -20 33.5 -30s27.333 -19 43 -27s32 -14.5 49 -19.5s34.167 -7.5 51.5 -7.5c24.667 -1.33301 46.334 1.66699 65.001 9
s34.167 17.166 46.5 29.499s21.666 26.666 27.999 42.999s9.16602 33.166 8.49902 50.499c0 20 -2.83301 37.667 -8.5 53s-14.167 29 -25.5 41s-25.833 22.833 -43.5 32.5s-38.5 19.167 -62.5 28.5l-68 24c-40 14 -71.833 34.167 -95.5 60.5s-35.5 60.5 -35.5 102.5
c0 36.667 10 68.667 30 96c20.667 28 45.834 47.333 75.501 58s58.5 16 86.5 16c46.667 0 86.167 -8.66699 118.5 -26s58.166 -38 77.499 -62l-32 -39c-16 20 -37.167 38 -63.5 54s-58.5 24 -96.5 24c-40 0.666992 -73 -8.83301 -99 -28.5s-39.333 -48.5 -40 -86.5
c0 -32 9.5 -57.333 28.5 -76s43.833 -33.667 74.5 -45l65 -24c32 -11.333 58.833 -23.666 80.5 -36.999s38.834 -28 51.501 -44s21.834 -33.5 27.501 -52.5s8.5 -39.5 8.5 -61.5c0 -62.667 -18.333 -109.834 -55 -141.501s-86.334 -47.5 -149.001 -47.5zM168.001 -173.997
l48 130h59l-68 -130h-39z" />
    <glyph glyph-name="scedilla" unicode="&#x15f;" horiz-adv-x="377" 
d="M188 -11c-39.333 0 -71 5.99902 -95 17.999s-41.333 23.333 -52 34l19 45c11.333 -11.333 28 -23 50 -35s48 -18 78 -18c34 0 60.167 7.5 78.5 22.5s27.5 36.5 27.5 64.5s-8.66699 50.667 -26 68c-18 18 -49.667 35.333 -95 52c-43.333 15.333 -74.333 32.833 -93 52.5
s-28 46.167 -28 79.5c0 26.667 8.16699 49.334 24.5 68.001s35.833 31.5 58.5 38.5s42.667 10.5 60 10.5c34 0 63.333 -6 88 -18s43.334 -24.667 56.001 -38l-21 -39c-19.333 16.667 -39 29.5 -59 38.5s-42.667 13.5 -68 13.5c-30 0 -52.333 -6.66699 -67 -20
s-22 -30.333 -22 -51c0 -12 1.83301 -22.333 5.5 -31s9.83398 -16.834 18.501 -24.501s20.5 -14.834 35.5 -21.501s33.5 -14 55.5 -22c42 -15.333 73.667 -34.166 95 -56.499s32 -54.166 32 -95.499c0 -24.667 -4.83301 -45.667 -14.5 -63s-22.334 -31.5 -38.001 -42.5
s-32.834 -18.667 -51.501 -23s-36 -6.5 -52 -6.5zM117 -174.001l48 130h59l-68 -130h-39z" />
    <glyph glyph-name="Scaron" unicode="&#x160;" horiz-adv-x="480" 
d="M236 -13c-32 1.33301 -64.832 8.00293 -98.499 20.0029s-58.334 24.167 -74.001 36.5s-26.167 21.833 -31.5 28.5l29 48c9.33301 -10 20.5 -20 33.5 -30s27.333 -19 43 -27s32 -14.5 49 -19.5s34.167 -7.5 51.5 -7.5c24.667 -1.33301 46.334 1.66699 65.001 9
s34.167 17.166 46.5 29.499s21.666 26.666 27.999 42.999s9.16602 33.166 8.49902 50.499c0 20 -2.83301 37.667 -8.5 53s-14.167 29 -25.5 41s-25.833 22.833 -43.5 32.5s-38.5 19.167 -62.5 28.5l-68 24c-40 14 -71.833 34.167 -95.5 60.5s-35.5 60.5 -35.5 102.5
c0 36.667 10 68.667 30 96c20.667 28 45.834 47.333 75.501 58s58.5 16 86.5 16c46.667 0 86.167 -8.66699 118.5 -26s58.166 -38 77.499 -62l-32 -39c-16 20 -37.167 38 -63.5 54s-58.5 24 -96.5 24c-40 0.666992 -73 -8.83301 -99 -28.5s-39.333 -48.5 -40 -86.5
c0 -32 9.5 -57.333 28.5 -76s43.833 -33.667 74.5 -45l65 -24c32 -11.333 58.833 -23.666 80.5 -36.999s38.834 -28 51.501 -44s21.834 -33.5 27.501 -52.5s8.5 -39.5 8.5 -61.5c0 -62.667 -18.333 -109.834 -55 -141.501s-86.334 -47.5 -149.001 -47.5zM235.001 708.003
l-113 150l29 26l99 -129l100 129l29 -26l-113 -150h-31z" />
    <glyph glyph-name="scaron" unicode="&#x161;" horiz-adv-x="377" 
d="M188 -11c-39.333 0 -71 5.99902 -95 17.999s-41.333 23.333 -52 34l19 45c11.333 -11.333 28 -23 50 -35s48 -18 78 -18c34 0 60.167 7.5 78.5 22.5s27.5 36.5 27.5 64.5s-8.66699 50.667 -26 68c-18 18 -49.667 35.333 -95 52c-43.333 15.333 -74.333 32.833 -93 52.5
s-28 46.167 -28 79.5c0 26.667 8.16699 49.334 24.5 68.001s35.833 31.5 58.5 38.5s42.667 10.5 60 10.5c34 0 63.333 -6 88 -18s43.334 -24.667 56.001 -38l-21 -39c-19.333 16.667 -39 29.5 -59 38.5s-42.667 13.5 -68 13.5c-30 0 -52.333 -6.66699 -67 -20
s-22 -30.333 -22 -51c0 -12 1.83301 -22.333 5.5 -31s9.83398 -16.834 18.501 -24.501s20.5 -14.834 35.5 -21.501s33.5 -14 55.5 -22c42 -15.333 73.667 -34.166 95 -56.499s32 -54.166 32 -95.499c0 -24.667 -4.83301 -45.667 -14.5 -63s-22.334 -31.5 -38.001 -42.5
s-32.834 -18.667 -51.501 -23s-36 -6.5 -52 -6.5zM189 541.999l-113 150l29 26l99 -129l100 129l29 -26l-113 -150h-31z" />
    <glyph glyph-name="Tcommaaccent" unicode="&#x162;" horiz-adv-x="455" 
d="M201 0v618h-196v49h445v-49h-197v-618h-52zM146 -174l48 130h59l-68 -130h-39z" />
    <glyph glyph-name="tcommaaccent" unicode="&#x163;" horiz-adv-x="291" 
d="M194 -11c-44 0 -72.666 17.667 -85.999 53c-6 14 -9 32.333 -9 55v336h-78v44h78v127h49v-127h119v-44h-119v-332c0 -25.333 4.83301 -43 14.5 -53s23.167 -15 40.5 -15c15.333 0 34.666 7.33301 57.999 22l20 -37c-9.33301 -7.33301 -20.333 -14 -33 -20
s-30.667 -9 -54 -9zM99.001 -174l48 130h59l-68 -130h-39z" />
    <glyph glyph-name="Tcaron" unicode="&#x164;" horiz-adv-x="455" 
d="M201 0v618h-196v49h445v-49h-197v-618h-52zM209 708l-113 150l29 26l99 -129l100 129l29 -26l-113 -150h-31z" />
    <glyph glyph-name="tcaron" unicode="&#x165;" horiz-adv-x="291" 
d="M194 -11c-44 0 -72.666 17.667 -85.999 53c-6 14 -9 32.333 -9 55v336h-78v44h78v127h49v-127h119v-44h-119v-332c0 -25.333 4.83301 -43 14.5 -53s23.167 -15 40.5 -15c15.333 0 34.666 7.33301 57.999 22l20 -37c-9.33301 -7.33301 -20.333 -14 -33 -20
s-30.667 -9 -54 -9zM219.001 530v170h64l-24 -170h-40z" />
    <glyph glyph-name="Tbar" unicode="&#x166;" horiz-adv-x="455" 
d="M201 0v310h-148v47h148v261h-196v49h445v-49h-197v-261h157v-47h-157v-310h-52z" />
    <glyph glyph-name="tbar" unicode="&#x167;" horiz-adv-x="291" 
d="M194 -11c-44 0 -72.666 17.667 -85.999 53c-6 14 -9 32.333 -9 55v142h-78v44h78v150h-78v44h78v127h49v-127h119v-44h-119v-150h119v-44h-119v-138c0 -25.333 4.83301 -43 14.5 -53s23.167 -15 40.5 -15c15.333 0 34.666 7.33301 57.999 22l20 -37
c-9.33301 -7.33301 -20.333 -14 -33 -20s-30.667 -9 -54 -9z" />
    <glyph glyph-name="Utilde" unicode="&#x168;" horiz-adv-x="591" 
d="M296 -13c-32 0 -61.833 5.16699 -89.5 15.5s-51.667 25.5 -72 45.5s-36.333 44.5 -48 73.5s-17.5 62.5 -17.5 100.5v445h51v-430c0 -60.667 15 -109.167 45 -145.5s73.333 -54.5 130 -54.5s100.167 17.667 130.5 53s45.5 84.333 45.5 147v430h52v-445
c0 -38 -6 -71.5 -18 -100.5s-28.167 -53.5 -48.5 -73.5s-44.333 -35.167 -72 -45.5s-57.167 -15.5 -88.5 -15.5zM356 740c-13.333 0 -26.5029 3.33496 -39.5029 10.002s-24.167 13.667 -33.5 21c-27.333 19.333 -47 29 -59 29c-11.333 0 -21.666 -4.33301 -30.999 -13
s-18.333 -23.334 -27 -44.001l-35 15c10.667 28.667 24.334 49.5 41.001 62.5s36 19.5 58 19.5c13.333 0 26 -3 38 -9s24 -13.333 36 -22c22.667 -18 41.334 -27 56.001 -27c10 0 19.833 4.66699 29.5 14s19.167 25.666 28.5 48.999l35 -17c-12 -32 -26.667 -54.667 -44 -68
s-35 -20 -53 -20z" />
    <glyph glyph-name="utilde" unicode="&#x169;" horiz-adv-x="494" 
d="M229 -12c-84 0 -136.669 34.665 -158.002 103.998c-6.66699 20.667 -10 49 -10 85v300h49v-298c0 -33.333 3.33301 -58 10 -74c9.33301 -25.333 23.5 -43.666 42.5 -54.999s43.5 -17 73.5 -17c28.667 0 54.334 6 77.001 18s43.667 26.667 63 44v382h49v-477h-45l-4 45
c-17.333 -15.333 -37.666 -28.666 -60.999 -39.999s-52 -17 -86 -17zM305.998 573.998c-13.333 0 -26.5029 3.33496 -39.5029 10.002s-24.167 13.667 -33.5 21c-27.333 19.333 -47 29 -59 29c-11.333 0 -21.666 -4.33301 -30.999 -13s-18.333 -23.334 -27 -44.001l-35 15
c10.667 28.667 24.334 49.5 41.001 62.5s36 19.5 58 19.5c13.333 0 26 -3 38 -9s24 -13.333 36 -22c22.667 -18 41.334 -27 56.001 -27c10 0 19.833 4.66699 29.5 14s19.167 25.666 28.5 48.999l35 -17c-12 -32 -26.667 -54.667 -44 -68s-35 -20 -53 -20z" />
    <glyph glyph-name="Umacron" unicode="&#x16a;" horiz-adv-x="591" 
d="M296 -13c-32 0 -61.833 5.16699 -89.5 15.5s-51.667 25.5 -72 45.5s-36.333 44.5 -48 73.5s-17.5 62.5 -17.5 100.5v445h51v-430c0 -60.667 15 -109.167 45 -145.5s73.333 -54.5 130 -54.5s100.167 17.667 130.5 53s45.5 84.333 45.5 147v430h52v-445
c0 -38 -6 -71.5 -18 -100.5s-28.167 -53.5 -48.5 -73.5s-44.333 -35.167 -72 -45.5s-57.167 -15.5 -88.5 -15.5zM154 773v46h279v-46h-279z" />
    <glyph glyph-name="umacron" unicode="&#x16b;" horiz-adv-x="494" 
d="M229 -12c-84 0 -136.669 34.665 -158.002 103.998c-6.66699 20.667 -10 49 -10 85v300h49v-298c0 -33.333 3.33301 -58 10 -74c9.33301 -25.333 23.5 -43.666 42.5 -54.999s43.5 -17 73.5 -17c28.667 0 54.334 6 77.001 18s43.667 26.667 63 44v382h49v-477h-45l-4 45
c-17.333 -15.333 -37.666 -28.666 -60.999 -39.999s-52 -17 -86 -17zM101.998 591.998v46h279v-46h-279z" />
    <glyph glyph-name="Ubreve" unicode="&#x16c;" horiz-adv-x="591" 
d="M296 -13c-32 0 -61.833 5.16699 -89.5 15.5s-51.667 25.5 -72 45.5s-36.333 44.5 -48 73.5s-17.5 62.5 -17.5 100.5v445h51v-430c0 -60.667 15 -109.167 45 -145.5s73.333 -54.5 130 -54.5s100.167 17.667 130.5 53s45.5 84.333 45.5 147v430h52v-445
c0 -38 -6 -71.5 -18 -100.5s-28.167 -53.5 -48.5 -73.5s-44.333 -35.167 -72 -45.5s-57.167 -15.5 -88.5 -15.5zM299 721c-17.333 0 -34.501 2.66699 -51.501 8s-32.5 13.833 -46.5 25.5s-25.5 26.667 -34.5 45s-13.833 40.5 -14.5 66.5h40
c2.66699 -20.667 7.66699 -37.667 15 -51s16 -23.833 26 -31.5s20.667 -13 32 -16s22.666 -4.5 33.999 -4.5c28.667 0 52.334 8.66699 71.001 26s30.334 43 35.001 77h40c0 -28.667 -5.5 -52.5 -16.5 -71.5s-24 -34.167 -39 -45.5s-30.833 -18.833 -47.5 -22.5
s-31 -5.5 -43 -5.5z" />
    <glyph glyph-name="ubreve" unicode="&#x16d;" horiz-adv-x="494" 
d="M229 -12c-84 0 -136.669 34.665 -158.002 103.998c-6.66699 20.667 -10 49 -10 85v300h49v-298c0 -33.333 3.33301 -58 10 -74c9.33301 -25.333 23.5 -43.666 42.5 -54.999s43.5 -17 73.5 -17c28.667 0 54.334 6 77.001 18s43.667 26.667 63 44v382h49v-477h-45l-4 45
c-17.333 -15.333 -37.666 -28.666 -60.999 -39.999s-52 -17 -86 -17zM243.998 558.998c-17.333 0 -34.501 2.66699 -51.501 8s-32.5 13.833 -46.5 25.5s-25.5 26.667 -34.5 45s-13.833 40.5 -14.5 66.5h40c2.66699 -20.667 7.66699 -37.667 15 -51s16 -23.833 26 -31.5
s20.667 -13 32 -16s22.666 -4.5 33.999 -4.5c28.667 0 52.334 8.66699 71.001 26s30.334 43 35.001 77h40c0 -28.667 -5.5 -52.5 -16.5 -71.5s-24 -34.167 -39 -45.5s-30.833 -18.833 -47.5 -22.5s-31 -5.5 -43 -5.5z" />
    <glyph glyph-name="Uring" unicode="&#x16e;" horiz-adv-x="591" 
d="M296 -13c-32 0 -61.833 5.16699 -89.5 15.5s-51.667 25.5 -72 45.5s-36.333 44.5 -48 73.5s-17.5 62.5 -17.5 100.5v445h51v-430c0 -60.667 15 -109.167 45 -145.5s73.333 -54.5 130 -54.5s100.167 17.667 130.5 53s45.5 84.333 45.5 147v430h52v-445
c0 -38 -6 -71.5 -18 -100.5s-28.167 -53.5 -48.5 -73.5s-44.333 -35.167 -72 -45.5s-57.167 -15.5 -88.5 -15.5zM298 700c-17.333 0 -31.999 3.33496 -43.999 10.002s-21.833 15.167 -29.5 25.5s-12.834 21.166 -15.501 32.499s-4 21.666 -4 30.999
c0 22.667 5.33301 42 16 58s23.167 27 37.5 33s27.5 9 39.5 9c22 0 41 -7 57 -21s26.167 -28.667 30.5 -44s6.5 -27 6.5 -35c0 -22 -5.83301 -42 -17.5 -60s-24.5 -29 -38.5 -33s-26.667 -6 -38 -6zM299.001 735.002c16.667 0 29.835 5.83301 39.502 17.5
s14.5 27.167 14.5 46.5c0 18 -5.33301 33.333 -16 46s-23.334 19 -38.001 19s-27.334 -6.33301 -38.001 -19s-16 -28 -16 -46c0 -19.333 5 -34.833 15 -46.5s23 -17.5 39 -17.5z" />
    <glyph glyph-name="uring" unicode="&#x16f;" horiz-adv-x="494" 
d="M229 -12c-84 0 -136.669 34.665 -158.002 103.998c-6.66699 20.667 -10 49 -10 85v300h49v-298c0 -33.333 3.33301 -58 10 -74c9.33301 -25.333 23.5 -43.666 42.5 -54.999s43.5 -17 73.5 -17c28.667 0 54.334 6 77.001 18s43.667 26.667 63 44v382h49v-477h-45l-4 45
c-17.333 -15.333 -37.666 -28.666 -60.999 -39.999s-52 -17 -86 -17zM246.998 533.998c-17.333 0 -31.999 3.33496 -43.999 10.002s-21.833 15.167 -29.5 25.5s-12.834 21.166 -15.501 32.499s-4 21.666 -4 30.999c0 22.667 5.33301 42 16 58s23.167 27 37.5 33
s27.5 9 39.5 9c22 0 41 -7 57 -21s26.167 -28.667 30.5 -44s6.5 -27 6.5 -35c0 -22 -5.83301 -42 -17.5 -60s-24.5 -29 -38.5 -33s-26.667 -6 -38 -6zM247.999 569c16.667 0 29.835 5.83301 39.502 17.5s14.5 27.167 14.5 46.5c0 18 -5.33301 33.333 -16 46
s-23.334 19 -38.001 19s-27.334 -6.33301 -38.001 -19s-16 -28 -16 -46c0 -19.333 5 -34.833 15 -46.5s23 -17.5 39 -17.5z" />
    <glyph glyph-name="Uhungarumlaut" unicode="&#x170;" horiz-adv-x="591" 
d="M296 -13c-32 0 -61.833 5.16699 -89.5 15.5s-51.667 25.5 -72 45.5s-36.333 44.5 -48 73.5s-17.5 62.5 -17.5 100.5v445h51v-430c0 -60.667 15 -109.167 45 -145.5s73.333 -54.5 130 -54.5s100.167 17.667 130.5 53s45.5 84.333 45.5 147v430h52v-445
c0 -38 -6 -71.5 -18 -100.5s-28.167 -53.5 -48.5 -73.5s-44.333 -35.167 -72 -45.5s-57.167 -15.5 -88.5 -15.5zM179 712l-22 28l155 139l35 -40zM340 712l-21 28l154 139l36 -40z" />
    <glyph glyph-name="uhungarumlaut" unicode="&#x171;" horiz-adv-x="494" 
d="M229 -12c-84 0 -136.669 34.665 -158.002 103.998c-6.66699 20.667 -10 49 -10 85v300h49v-298c0 -33.333 3.33301 -58 10 -74c9.33301 -25.333 23.5 -43.666 42.5 -54.999s43.5 -17 73.5 -17c28.667 0 54.334 6 77.001 18s43.667 26.667 63 44v382h49v-477h-45l-4 45
c-17.333 -15.333 -37.666 -28.666 -60.999 -39.999s-52 -17 -86 -17zM111.998 548.998l-22 28l155 139l35 -40zM272.998 548.998l-21 28l154 139l36 -40z" />
    <glyph glyph-name="Uogonek" unicode="&#x172;" horiz-adv-x="591" 
d="M296 -13c-32 0 -61.833 5.16699 -89.5 15.5s-51.667 25.5 -72 45.5s-36.333 44.5 -48 73.5s-17.5 62.5 -17.5 100.5v445h51v-430c0 -60.667 15 -109.167 45 -145.5s73.333 -54.5 130 -54.5s100.167 17.667 130.5 53s45.5 84.333 45.5 147v430h52v-445
c0 -38 -6 -71.5 -18 -100.5s-28.167 -53.5 -48.5 -73.5s-44.333 -35.167 -72 -45.5s-57.167 -15.5 -88.5 -15.5zM349 -193c-22.667 0 -40.999 6.33398 -54.999 19.001s-21 31.667 -21 57c0 17.333 3.5 33.666 10.5 48.999s15.5 29 25.5 41s20 22.167 30 30.5
s17.667 14.5 23 18.5l44 -10c-26 -19.333 -46.167 -38.5 -60.5 -57.5s-21.5 -39.167 -21.5 -60.5c0 -28 11.333 -42 34 -42c11.333 0 24.666 4.66699 39.999 14l12 -42c-18.667 -11.333 -39 -17 -61 -17z" />
    <glyph glyph-name="uogonek" unicode="&#x173;" horiz-adv-x="494" 
d="M229 -12c-84 0 -136.669 34.665 -158.002 103.998c-6.66699 20.667 -10 49 -10 85v300h49v-298c0 -33.333 3.33301 -58 10 -74c9.33301 -25.333 23.5 -43.666 42.5 -54.999s43.5 -17 73.5 -17c28.667 0 54.334 6 77.001 18s43.667 26.667 63 44v382h49v-477h-45l-4 45
c-17.333 -15.333 -37.666 -28.666 -60.999 -39.999s-52 -17 -86 -17zM366.998 -193.002c-22.667 0 -40.999 6.33398 -54.999 19.001s-21 31.667 -21 57c0 17.333 3.5 33.666 10.5 48.999s15.5 29 25.5 41s20 22.167 30 30.5s17.667 14.5 23 18.5l44 -10
c-26 -19.333 -46.167 -38.5 -60.5 -57.5s-21.5 -39.167 -21.5 -60.5c0 -28 11.333 -42 34 -42c11.333 0 24.666 4.66699 39.999 14l12 -42c-18.667 -11.333 -39 -17 -61 -17z" />
    <glyph glyph-name="Wcircumflex" unicode="&#x174;" horiz-adv-x="718" 
d="M161 0l-151 667h53l126 -556l145 556h49l152 -559l121 559h52l-149 -667h-45l-156 566l-153 -566h-44zM261 708l-29 26l113 150h31l113 -150l-29 -26l-100 129z" />
    <glyph glyph-name="wcircumflex" unicode="&#x175;" horiz-adv-x="628" 
d="M144 0l-139 477h54l113 -410l120 410h44l120 -408l115 408h52l-143 -477h-51l-116 393l-119 -393h-50zM214 542l-29 26l113 150h31l113 -150l-29 -26l-100 129z" />
    <glyph glyph-name="Ycircumflex" unicode="&#x176;" horiz-adv-x="499" 
d="M220 0v321l-215 346h59l183 -295l190 295h57l-222 -345v-322h-52zM148 708l-29 26l113 150h31l113 -150l-29 -26l-100 129z" />
    <glyph glyph-name="ycircumflex" unicode="&#x177;" horiz-adv-x="448" 
d="M-4 -192l-6 43.999h8c42 0 80.667 12 116 36s62.333 57 81 99l-186 490h55l163 -438c28 58.667 56 125.834 84 201.501s53 154.5 75 236.5h52c-23.333 -92 -48.833 -173 -76.5 -243s-54.167 -132.333 -79.5 -187c-28.667 -60 -54.667 -105.833 -78 -137.5
s-53.333 -56.5 -90 -74.5s-76 -27 -118 -27zM130 541.999l-29 26l113 150h31l113 -150l-29 -26l-100 129z" />
    <glyph glyph-name="Ydieresis" unicode="&#x178;" horiz-adv-x="499" 
d="M220 0v321l-215 346h59l183 -295l190 295h57l-222 -345v-322h-52zM166 767c-10 0 -18.5 3.33301 -25.5 10s-10.5 16.667 -10.5 30c0 12 3.5 21.5 10.5 28.5s15.5 10.5 25.5 10.5s18.5 -3.5 25.5 -10.5s10.5 -16.5 10.5 -28.5c0 -13.333 -3.5 -23.333 -10.5 -30
s-15.5 -10 -25.5 -10zM337 767c-10 0 -18.5 3.33301 -25.5 10s-10.5 16.667 -10.5 30c0 12 3.5 21.5 10.5 28.5s15.5 10.5 25.5 10.5s18.5 -3.5 25.5 -10.5s10.5 -16.5 10.5 -28.5c0 -13.333 -3.5 -23.333 -10.5 -30s-15.5 -10 -25.5 -10z" />
    <glyph glyph-name="Zacute" unicode="&#x179;" horiz-adv-x="518" 
d="M42 0v51l372 567h-356v49h408v-55l-369 -563h383v-49h-438zM194 709l-24 29l155 139l37 -41z" />
    <glyph glyph-name="zacute" unicode="&#x17a;" horiz-adv-x="426" 
d="M41 0v52l290 381h-279v44h329v-53l-290 -380h297v-44h-347zM156 545l-24 29l155 139l37 -41z" />
    <glyph glyph-name="Zdotaccent" unicode="&#x17b;" horiz-adv-x="518" 
d="M42 0v51l372 567h-356v49h408v-55l-369 -563h383v-49h-438zM263 751c-10 0 -18.5 3.33301 -25.5 10s-10.5 16.667 -10.5 30c0 12 3.5 21.5 10.5 28.5s15.5 10.5 25.5 10.5s18.5 -3.5 25.5 -10.5s10.5 -16.5 10.5 -28.5c0 -13.333 -3.5 -23.333 -10.5 -30
s-15.5 -10 -25.5 -10z" />
    <glyph glyph-name="zdotaccent" unicode="&#x17c;" horiz-adv-x="426" 
d="M41 0v52l290 381h-279v44h329v-53l-290 -380h297v-44h-347zM221 601c-10 0 -18.5 3.33301 -25.5 10s-10.5 16.667 -10.5 30c0 12 3.5 21.5 10.5 28.5s15.5 10.5 25.5 10.5s18.5 -3.5 25.5 -10.5s10.5 -16.5 10.5 -28.5c0 -13.333 -3.5 -23.333 -10.5 -30
s-15.5 -10 -25.5 -10z" />
    <glyph glyph-name="Zcaron" unicode="&#x17d;" horiz-adv-x="518" 
d="M42 0v51l372 567h-356v49h408v-55l-369 -563h383v-49h-438zM256 705l-113 150l29 26l99 -129l100 129l29 -26l-113 -150h-31z" />
    <glyph glyph-name="zcaron" unicode="&#x17e;" horiz-adv-x="426" 
d="M41 0v52l290 381h-279v44h329v-53l-290 -380h297v-44h-347zM219 542l-113 150l29 26l99 -129l100 129l29 -26l-113 -150h-31z" />
    <glyph glyph-name="longs" unicode="&#x17f;" horiz-adv-x="257" 
d="M89 0v531c0 51.333 11.667 89.333 35 114c21.333 23.333 50.333 35 87 35c20 0 37.167 -2.16699 51.5 -6.5s25.5 -8.5 33.5 -12.5l-11 -42c-8 4 -18.5 7.83301 -31.5 11.5s-27.167 5.5 -42.5 5.5c-22 0 -38.667 -6.66699 -50 -20c-14.667 -16.667 -22 -46 -22 -88v-528
h-50z" />
    <glyph glyph-name="florin" unicode="&#x192;" 
d="M-19 -148l0.00195312 47.001c50.667 2.66699 88 13 112 31c15.333 12 27.166 26.667 35.499 44s14.833 37.666 19.5 60.999l69 352h-104v46h113l9 47c8 45.333 23.167 82.166 45.5 110.499s47.833 46.833 76.5 55.5s56 13.334 82 14.001v-47
c-36 -2 -65.167 -10.167 -87.5 -24.5s-37.666 -32 -45.999 -53s-14.5 -41.5 -18.5 -61.5l-9 -41h161v-46h-170l-72 -363c-6.66699 -32.667 -15.834 -59.5 -27.501 -80.5s-27.834 -39.167 -48.501 -54.5c-18 -13.333 -39.5 -22.833 -64.5 -28.5s-50.167 -8.5 -75.5 -8.5z" />
    <glyph glyph-name="Scommaaccent" unicode="&#x218;" horiz-adv-x="480" 
d="M236 -13c-32 1.33301 -64.832 8.00293 -98.499 20.0029s-58.334 24.167 -74.001 36.5s-26.167 21.833 -31.5 28.5l29 48c9.33301 -10 20.5 -20 33.5 -30s27.333 -19 43 -27s32 -14.5 49 -19.5s34.167 -7.5 51.5 -7.5c24.667 -1.33301 46.334 1.66699 65.001 9
s34.167 17.166 46.5 29.499s21.666 26.666 27.999 42.999s9.16602 33.166 8.49902 50.499c0 20 -2.83301 37.667 -8.5 53s-14.167 29 -25.5 41s-25.833 22.833 -43.5 32.5s-38.5 19.167 -62.5 28.5l-68 24c-40 14 -71.833 34.167 -95.5 60.5s-35.5 60.5 -35.5 102.5
c0 36.667 10 68.667 30 96c20.667 28 45.834 47.333 75.501 58s58.5 16 86.5 16c46.667 0 86.167 -8.66699 118.5 -26s58.166 -38 77.499 -62l-32 -39c-16 20 -37.167 38 -63.5 54s-58.5 24 -96.5 24c-40 0.666992 -73 -8.83301 -99 -28.5s-39.333 -48.5 -40 -86.5
c0 -32 9.5 -57.333 28.5 -76s43.833 -33.667 74.5 -45l65 -24c32 -11.333 58.833 -23.666 80.5 -36.999s38.834 -28 51.501 -44s21.834 -33.5 27.501 -52.5s8.5 -39.5 8.5 -61.5c0 -62.667 -18.333 -109.834 -55 -141.501s-86.334 -47.5 -149.001 -47.5zM168.001 -173.997
l48 130h59l-68 -130h-39z" />
    <glyph glyph-name="scommaaccent" unicode="&#x219;" horiz-adv-x="377" 
d="M188 -11c-39.333 0 -71 5.99902 -95 17.999s-41.333 23.333 -52 34l19 45c11.333 -11.333 28 -23 50 -35s48 -18 78 -18c34 0 60.167 7.5 78.5 22.5s27.5 36.5 27.5 64.5s-8.66699 50.667 -26 68c-18 18 -49.667 35.333 -95 52c-43.333 15.333 -74.333 32.833 -93 52.5
s-28 46.167 -28 79.5c0 26.667 8.16699 49.334 24.5 68.001s35.833 31.5 58.5 38.5s42.667 10.5 60 10.5c34 0 63.333 -6 88 -18s43.334 -24.667 56.001 -38l-21 -39c-19.333 16.667 -39 29.5 -59 38.5s-42.667 13.5 -68 13.5c-30 0 -52.333 -6.66699 -67 -20
s-22 -30.333 -22 -51c0 -12 1.83301 -22.333 5.5 -31s9.83398 -16.834 18.501 -24.501s20.5 -14.834 35.5 -21.501s33.5 -14 55.5 -22c42 -15.333 73.667 -34.166 95 -56.499s32 -54.166 32 -95.499c0 -24.667 -4.83301 -45.667 -14.5 -63s-22.334 -31.5 -38.001 -42.5
s-32.834 -18.667 -51.501 -23s-36 -6.5 -52 -6.5zM117 -174.001l48 130h59l-68 -130h-39z" />
    <glyph glyph-name="uni021A" unicode="&#x21a;" horiz-adv-x="455" 
d="M201 0v618h-196v49h445v-49h-197v-618h-52zM146 -174l48 130h59l-68 -130h-39z" />
    <glyph glyph-name="uni021B" unicode="&#x21b;" horiz-adv-x="291" 
d="M194 -11c-44 0 -72.666 17.667 -85.999 53c-6 14 -9 32.333 -9 55v336h-78v44h78v127h49v-127h119v-44h-119v-332c0 -25.333 4.83301 -43 14.5 -53s23.167 -15 40.5 -15c15.333 0 34.666 7.33301 57.999 22l20 -37c-9.33301 -7.33301 -20.333 -14 -33 -20
s-30.667 -9 -54 -9zM99.001 -174l48 130h59l-68 -130h-39z" />
    <glyph glyph-name="dotlessj" unicode="&#x237;" horiz-adv-x="187" 
d="M18 -196l-20 41c26.667 18 45.167 38.667 55.5 62s15.5 53.333 15.5 90v480h49v-480c0 -49.333 -8.33301 -88.833 -25 -118.5s-41.667 -54.5 -75 -74.5z" />
    <glyph glyph-name="circumflex" unicode="&#x2c6;" horiz-adv-x="290" 
d="M45 542l-29 26l113 150h31l113 -150l-29 -26l-100 129z" />
    <glyph glyph-name="caron" unicode="&#x2c7;" horiz-adv-x="290" 
d="M129 542l-113 150l29 26l99 -129l100 129l29 -26l-113 -150h-31z" />
    <glyph glyph-name="uni02C9" unicode="&#x2c9;" horiz-adv-x="290" 
d="M5 607v46h279v-46h-279z" />
    <glyph glyph-name="breve" unicode="&#x2d8;" horiz-adv-x="290" 
d="M146 552c-17.333 0 -34.501 2.66699 -51.501 8s-32.5 13.833 -46.5 25.5s-25.5 26.667 -34.5 45s-13.833 40.5 -14.5 66.5h40c2.66699 -20.667 7.66699 -37.667 15 -51s16 -23.833 26 -31.5s20.667 -13 32 -16s22.666 -4.5 33.999 -4.5
c28.667 0 52.334 8.66699 71.001 26s30.334 43 35.001 77h40c0 -28.667 -5.5 -52.5 -16.5 -71.5s-24 -34.167 -39 -45.5s-30.833 -18.833 -47.5 -22.5s-31 -5.5 -43 -5.5z" />
    <glyph glyph-name="dotaccent" unicode="&#x2d9;" horiz-adv-x="290" 
d="M145 601c-10 0 -18.5 3.33301 -25.5 10s-10.5 16.667 -10.5 30c0 12 3.5 21.5 10.5 28.5s15.5 10.5 25.5 10.5s18.5 -3.5 25.5 -10.5s10.5 -16.5 10.5 -28.5c0 -13.333 -3.5 -23.333 -10.5 -30s-15.5 -10 -25.5 -10z" />
    <glyph glyph-name="ring" unicode="&#x2da;" horiz-adv-x="290" 
d="M144 534c-17.333 0 -31.999 3.33496 -43.999 10.002s-21.833 15.167 -29.5 25.5s-12.834 21.166 -15.501 32.499s-4 21.666 -4 30.999c0 22.667 5.33301 42 16 58s23.167 27 37.5 33s27.5 9 39.5 9c22 0 41 -7 57 -21s26.167 -28.667 30.5 -44s6.5 -27 6.5 -35
c0 -22 -5.83301 -42 -17.5 -60s-24.5 -29 -38.5 -33s-26.667 -6 -38 -6zM145.001 569.002c16.667 0 29.835 5.83301 39.502 17.5s14.5 27.167 14.5 46.5c0 18 -5.33301 33.333 -16 46s-23.334 19 -38.001 19s-27.334 -6.33301 -38.001 -19s-16 -28 -16 -46
c0 -19.333 5 -34.833 15 -46.5s23 -17.5 39 -17.5z" />
    <glyph glyph-name="ogonek" unicode="&#x2db;" horiz-adv-x="290" 
d="M138 -193c-22.667 0 -40.999 6.33398 -54.999 19.001s-21 31.667 -21 57c0 17.333 3.5 33.666 10.5 48.999s15.5 29 25.5 41s20 22.167 30 30.5s17.667 14.5 23 18.5l44 -10c-26 -19.333 -46.167 -38.5 -60.5 -57.5s-21.5 -39.167 -21.5 -60.5c0 -28 11.333 -42 34 -42
c11.333 0 24.666 4.66699 39.999 14l12 -42c-18.667 -11.333 -39 -17 -61 -17z" />
    <glyph glyph-name="tilde" unicode="&#x2dc;" horiz-adv-x="290" 
d="M209 574c-13.333 0 -26.5029 3.33496 -39.5029 10.002s-24.167 13.667 -33.5 21c-27.333 19.333 -47 29 -59 29c-11.333 0 -21.666 -4.33301 -30.999 -13s-18.333 -23.334 -27 -44.001l-35 15c10.667 28.667 24.334 49.5 41.001 62.5s36 19.5 58 19.5
c13.333 0 26 -3 38 -9s24 -13.333 36 -22c22.667 -18 41.334 -27 56.001 -27c10 0 19.833 4.66699 29.5 14s19.167 25.666 28.5 48.999l35 -17c-12 -32 -26.667 -54.667 -44 -68s-35 -20 -53 -20z" />
    <glyph glyph-name="hungarumlaut" unicode="&#x2dd;" horiz-adv-x="290" 
d="M-9 546l-22 28l155 139l35 -40zM152 546l-21 28l154 139l36 -40z" />
    <glyph glyph-name="tonos" unicode="&#x384;" horiz-adv-x="442" 
d="M184 539l-35 16l94 194l52 -21z" />
    <glyph glyph-name="dieresistonos" unicode="&#x385;" horiz-adv-x="342" 
d="M184 539l-35 16l94 194l52 -21zM105 601c-10.667 0 -19.834 4.16699 -27.501 12.5s-11.5 18.833 -11.5 31.5c0 12 3.83301 22.333 11.5 31s16.834 13 27.501 13s19.667 -4.33301 27 -13s11 -19 11 -31c0 -12.667 -3.66699 -23.167 -11 -31.5s-16.333 -12.5 -27 -12.5z
M337 601c-10.667 0 -19.834 4.16699 -27.501 12.5s-11.5 18.833 -11.5 31.5c0 12 3.83301 22.333 11.5 31s16.834 13 27.501 13s19.667 -4.33301 27 -13s11 -19 11 -31c0 -12.667 -3.66699 -23.167 -11 -31.5s-16.333 -12.5 -27 -12.5z" />
    <glyph glyph-name="Alphatonos" unicode="&#x386;" horiz-adv-x="533" 
d="M83 452l-37 11l62 205l55 -13zM5 0l236 667h48l239 -667h-55l-78 214h-260l-76 -214h-54zM151 264h228l-115 340z" />
    <glyph glyph-name="Epsilontonos" unicode="&#x388;" horiz-adv-x="467" 
d="M-22 452l-37 11l62 205l55 -13zM76 0v667h356v-49h-305v-240h221v-49h-221v-280h323v-49h-374z" />
    <glyph glyph-name="Etatonos" unicode="&#x389;" horiz-adv-x="603" 
d="M76 0v667h52v-297h346v297h51v-667h-51v320h-346v-320h-52zM-25 452l-37 11l62 205l55 -13z" />
    <glyph glyph-name="Iotatonos" unicode="&#x38a;" horiz-adv-x="206" 
d="M76 0v667h52v-667h-52zM-24 452l-37 11l62 205l55 -13z" />
    <glyph glyph-name="Omicrontonos" unicode="&#x38c;" horiz-adv-x="611" 
d="M309 -13c-44 0 -82.168 9.83496 -114.501 29.502s-59.333 45.667 -81 78s-37.667 69.333 -48 111s-15.5 84.5 -15.5 128.5c0 69.333 12.333 132 37 188c16 39.333 37.667 71.5 65 96.5s55 41.5 83 49.5s52.667 12 74 12c62.667 0 114 -20 154 -60
c40.667 -38.667 68 -85.334 82 -140.001c14.667 -52.667 22 -101.334 22 -146.001c0 -72 -12.333 -135.667 -37 -191c-17.333 -40 -39.666 -72.167 -66.999 -96.5s-54.333 -40.333 -81 -48s-51 -11.5 -73 -11.5zM308.999 36.002c48 0 88.5 17.499 121.5 52.499
s55.167 75.833 66.5 122.5c10.667 44.667 16 85.667 16 123c0 58.667 -9.33301 111 -28 157c-18 48 -42.833 83.333 -74.5 106s-65.5 34 -101.5 34c-35.333 0 -66 -8.66699 -92 -26s-47.333 -40.166 -64 -68.499s-29 -60.166 -37 -95.499s-12 -71 -12 -107
c0 -56.667 9.66699 -110.334 29 -161.001c20 -50 45.667 -85.333 77 -106s64.333 -31 99 -31zM-1.00098 452.001l-37 11l62 205l55 -13z" />
    <glyph glyph-name="Upsilontonos" unicode="&#x38e;" horiz-adv-x="521" 
d="M233 0l0.000976562 160c0 29.333 -1 53.666 -3 72.999c-6 52.667 -21.833 107.834 -47.5 165.501s-54 106.667 -85 147s-58.833 71.166 -83.5 92.499l33 39c23.333 -20 46.666 -44.333 69.999 -73s45 -59.667 65 -93s37.167 -67.666 51.5 -102.999
s23.833 -69.333 28.5 -102c11.333 51.333 31.666 105.166 60.999 161.499s57.833 100.833 85.5 133.5s51.834 58 72.501 76l30 -37c-34.667 -29.333 -69.167 -70.166 -103.5 -122.499s-61 -102.833 -80 -151.5s-30.833 -91 -35.5 -127c-4.66699 -32.667 -7 -64.667 -7 -96
v-143h-52zM-77.999 452l-37 11l62 205l55 -13z" />
    <glyph glyph-name="Omegatonos" unicode="&#x38f;" horiz-adv-x="657" 
d="M56 0l-0.00488281 48.9971h143c-18 14.667 -35.333 31.5 -52 50.5s-31.5 40.833 -44.5 65.5s-23.333 52.5 -31 83.5s-11.5 65.5 -11.5 103.5c0 70 13.167 131.333 39.5 184s60.333 90 102 112s84.167 33 127.5 33c64 0 117 -17.5 159 -52.5s70.667 -77.667 86 -128
s23 -98.166 23 -143.499c0 -55.333 -8.16699 -104.666 -24.5 -147.999s-35.166 -77.333 -56.499 -102s-40.666 -44 -57.999 -58h143v-49h-211v51c44.667 30 81.167 70.5 109.5 121.5s42.5 111.167 42.5 180.5c0 62 -10.167 115 -30.5 159s-47.166 75 -80.499 93
s-67 27 -101 27c-34.667 0 -65.5 -7.16699 -92.5 -21.5s-49.667 -34.166 -68 -59.499s-32.166 -55 -41.499 -89s-14 -71 -14 -111c0 -34.667 4 -66.834 12 -96.501s18.833 -57 32.5 -82s29.834 -47.667 48.501 -68s39 -38.166 61 -53.499v-51h-212zM5.99512 451.997l-37 11
l62 205l55 -13z" />
    <glyph glyph-name="iotadieresistonos" unicode="&#x390;" horiz-adv-x="235" 
d="M164 -11c-28.667 0 -51.332 8.16797 -67.999 24.501s-25 43.166 -25 80.499v382h50v-374c0 -24 4 -41.333 12 -52s20.667 -16 38 -16s35 4 53 12l8 -43c-20.667 -9.33301 -43.334 -14 -68.001 -14zM88.002 539.001l-35 16l94 194l52 -21zM9.00195 601.001
c-10.667 0 -19.834 4.16699 -27.501 12.5s-11.5 18.833 -11.5 31.5c0 12 3.83301 22.333 11.5 31s16.834 13 27.501 13s19.667 -4.33301 27 -13s11 -19 11 -31c0 -12.667 -3.66699 -23.167 -11 -31.5s-16.333 -12.5 -27 -12.5zM241.002 601.001
c-10.667 0 -19.834 4.16699 -27.501 12.5s-11.5 18.833 -11.5 31.5c0 12 3.83301 22.333 11.5 31s16.834 13 27.501 13s19.667 -4.33301 27 -13s11 -19 11 -31c0 -12.667 -3.66699 -23.167 -11 -31.5s-16.333 -12.5 -27 -12.5z" />
    <glyph glyph-name="Alpha" unicode="&#x391;" horiz-adv-x="533" 
d="M5 0l236 667h48l239 -667h-55l-78 214h-260l-76 -214h-54zM151 264h228l-115 340z" />
    <glyph glyph-name="Beta" unicode="&#x392;" horiz-adv-x="500" 
d="M76 0v666.999h172c60.667 0 106.667 -13.5 138 -40.5s47 -68.833 47 -125.5c0 -82 -40.667 -131 -122 -147c46 -3.33301 83.167 -18.666 111.5 -45.999s42.5 -68.333 42.5 -123c0 -29.333 -4.5 -55.333 -13.5 -78s-21.5 -42 -37.5 -58s-35 -28.167 -57 -36.5
s-46.333 -12.5 -73 -12.5h-208zM128 48.999h152c42 0 74.167 12.333 96.5 37s33.5 58 33.5 100c0 50 -14.5 86 -43.5 108s-69.5 33 -121.5 33h-117v-278zM128 375.999h114c44.667 0 78.667 11.5 102 34.5s35 53.5 35 91.5c0 40 -11.167 69.333 -33.5 88s-54.5 28 -96.5 28
h-121v-242z" />
    <glyph glyph-name="Gamma" unicode="&#x393;" horiz-adv-x="454" 
d="M76 0v667h344v-49h-292v-618h-52z" />
    <glyph glyph-name="uni0394" unicode="&#x394;" horiz-adv-x="541" 
d="M5 0l242 667h42l247 -667h-531zM77 48h386l-196 543z" />
    <glyph glyph-name="Epsilon" unicode="&#x395;" horiz-adv-x="476" 
d="M76 0v667h356v-49h-305v-240h221v-49h-221v-280h323v-49h-374z" />
    <glyph glyph-name="Zeta" unicode="&#x396;" horiz-adv-x="518" 
d="M42 0v51l372 567h-356v49h408v-55l-369 -563h383v-49h-438z" />
    <glyph glyph-name="Eta" unicode="&#x397;" horiz-adv-x="601" 
d="M76 0v667h52v-297h346v297h51v-667h-51v320h-346v-320h-52z" />
    <glyph glyph-name="Theta" unicode="&#x398;" horiz-adv-x="617" 
d="M310 -13c-44 0 -82.3301 9.83301 -114.997 29.5s-59.834 45.667 -81.501 78s-37.667 69.333 -48 111s-15.5 84.5 -15.5 128.5c0 68.667 12.333 131.5 37 188.5s57.167 97.5 97.5 121.5s82.166 36 125.499 36c62 0 113.167 -19.833 153.5 -59.5
s67.666 -86.5 81.999 -140.5s21.5 -102.667 21.5 -146s-5.16699 -85.833 -15.5 -127.5s-26 -78.667 -47 -111s-47.667 -58.5 -80 -78.5s-70.5 -30 -114.5 -30zM310.003 36c48 0 88.6689 17.665 122.002 52.998s55.166 76 65.499 122s15.5 87 15.5 123
c0 58 -9.16699 110.5 -27.5 157.5s-43.5 82 -75.5 105s-65.333 34.5 -100 34.5c-36 0 -67 -8.66699 -93 -26s-47.333 -40.166 -64 -68.499s-29 -60.166 -37 -95.499s-12 -71 -12 -107c0 -57.333 9.83301 -111 29.5 -161s45.167 -85.333 76.5 -106s64.666 -31 99.999 -31z
M184.005 310.998v49h251v-49h-251z" />
    <glyph glyph-name="Iota" unicode="&#x399;" horiz-adv-x="204" 
d="M76 0v667h52v-667h-52z" />
    <glyph glyph-name="Kappa" unicode="&#x39a;" horiz-adv-x="516" 
d="M76 0v667h52v-324l301 324h63l-243 -263l262 -404h-62l-236 364l-85 -88v-276h-52z" />
    <glyph glyph-name="Lambda" unicode="&#x39b;" horiz-adv-x="516" 
d="M5 0l231 667h40l235 -667h-55l-201 580l-195 -580h-55z" />
    <glyph glyph-name="Mu" unicode="&#x39c;" horiz-adv-x="699" 
d="M333 -11l-192 580l-24 -569h-51l30 667h67l198 -605l184 605h64l30 -667h-50l-25 561l-178 -572h-53z" />
    <glyph glyph-name="Nu" unicode="&#x39d;" horiz-adv-x="613" 
d="M76 0v667h55l355 -562v562h51v-667h-45l-365 575v-575h-51z" />
    <glyph glyph-name="Xi" unicode="&#x39e;" horiz-adv-x="523" 
d="M62 0v49h399v-49h-399zM114 325v48h295v-48h-295zM67 618v49h387v-49h-387z" />
    <glyph glyph-name="Omicron" unicode="&#x39f;" horiz-adv-x="617" 
d="M309 -13c-44 0 -82.168 9.83496 -114.501 29.502s-59.333 45.667 -81 78s-37.667 69.333 -48 111s-15.5 84.5 -15.5 128.5c0 69.333 12.333 132 37 188c16 39.333 37.667 71.5 65 96.5s55 41.5 83 49.5s52.667 12 74 12c62.667 0 114 -20 154 -60
c40.667 -38.667 68 -85.334 82 -140.001c14.667 -52.667 22 -101.334 22 -146.001c0 -72 -12.333 -135.667 -37 -191c-17.333 -40 -39.666 -72.167 -66.999 -96.5s-54.333 -40.333 -81 -48s-51 -11.5 -73 -11.5zM308.999 36.002c48 0 88.5 17.499 121.5 52.499
s55.167 75.833 66.5 122.5c10.667 44.667 16 85.667 16 123c0 58.667 -9.33301 111 -28 157c-18 48 -42.833 83.333 -74.5 106s-65.5 34 -101.5 34c-35.333 0 -66 -8.66699 -92 -26s-47.333 -40.166 -64 -68.499s-29 -60.166 -37 -95.499s-12 -71 -12 -107
c0 -56.667 9.66699 -110.334 29 -161.001c20 -50 45.667 -85.333 77 -106s64.333 -31 99 -31z" />
    <glyph glyph-name="Pi" unicode="&#x3a0;" horiz-adv-x="591" 
d="M76 0v667h439v-667h-52v618h-335v-618h-52z" />
    <glyph glyph-name="Rho" unicode="&#x3a1;" horiz-adv-x="504" 
d="M77 0l0.000976562 666.999h199c63.333 0 112.166 -16.5 146.499 -49.5s51.5 -81.5 51.5 -145.5c0 -47.333 -10.667 -86.166 -32 -116.499s-47.333 -50.5 -78 -60.5s-60 -15 -88 -15h-147v-280h-52zM129.001 329.999h146.999c44.667 0 79.834 12.5 105.501 37.5
s38.5 59.5 38.5 103.5c0 46 -12 82 -36 108s-60 39 -108 39h-147v-288z" />
    <glyph glyph-name="Sigma" unicode="&#x3a3;" horiz-adv-x="490" 
d="M37 0v51l266 281l-268 283v52h417v-49h-351l270 -286l-269 -283h369v-49h-434z" />
    <glyph glyph-name="Tau" unicode="&#x3a4;" horiz-adv-x="455" 
d="M201 0v618h-196v49h445v-49h-197v-618h-52z" />
    <glyph glyph-name="Upsilon" unicode="&#x3a5;" horiz-adv-x="517" 
d="M229 0l0.000976562 160c0 29.333 -1 53.666 -3 72.999c-6 52.667 -21.833 107.834 -47.5 165.501s-54 106.667 -85 147s-58.833 71.166 -83.5 92.499l33 39c23.333 -20 46.666 -44.333 69.999 -73s45 -59.667 65 -93s37.167 -67.666 51.5 -102.999
s23.833 -69.333 28.5 -102c11.333 51.333 31.666 105.166 60.999 161.499s57.833 100.833 85.5 133.5s51.834 58 72.501 76l30 -37c-34.667 -29.333 -69.167 -70.166 -103.5 -122.499s-61 -102.833 -80 -151.5s-30.833 -91 -35.5 -127c-4.66699 -32.667 -7 -64.667 -7 -96
v-143h-52z" />
    <glyph glyph-name="Phi" unicode="&#x3a6;" horiz-adv-x="686" 
d="M320 -11l0.000976562 95.999c-84.667 3.33301 -150.334 26.333 -197.001 69s-70 101.334 -70 176.001c0 56.667 13.833 104.667 41.5 144s61.667 66.5 102 81.5s81.5 23.5 123.5 25.5v98h52v-98c85.333 -4 151.5 -27.5 198.5 -70.5s70.5 -101.5 70.5 -175.5
c0 -76 -23.5 -135.833 -70.5 -179.5s-113.167 -67.167 -198.5 -70.5v-96h-52zM320.001 132.999v400.002c-47.333 -1.33301 -88 -11.5 -122 -30.5s-57.667 -44 -71 -75s-20 -63.167 -20 -96.5c0 -32 5.33301 -60.333 16 -85s25.5 -45.334 44.5 -62.001
s41.5 -29.334 67.5 -38.001s54.333 -13 85 -13zM372.001 133.001c48.667 0.666992 89.667 10.332 123 28.999s57 43.5 71 74.5s21 63.5 21 97.5c0 46 -11.333 84.833 -34 116.5s-51 53.334 -85 65.001s-66 17.5 -96 17.5v-400z" />
    <glyph glyph-name="Chi" unicode="&#x3a7;" horiz-adv-x="465" 
d="M5 0l196 346l-179 321h61l149 -277l150 277h59l-179 -318l198 -349h-63l-166 306l-168 -306h-58z" />
    <glyph glyph-name="Psi" unicode="&#x3a8;" horiz-adv-x="674" 
d="M312 0l0.00195312 201.998c-86 3.33301 -149.5 25.333 -190.5 66s-61.5 104.334 -61.5 191.001v208h52v-209c0 -38 5 -70.167 15 -96.5s23.833 -47.666 41.5 -63.999s38.667 -28 63 -35s51.166 -10.5 80.499 -10.5v415h52v-415c41.333 0 77.666 8.33301 108.999 25
s53.833 41 67.5 73s20.5 66.333 20.5 103v214h53v-214c0 -76.667 -20.5 -136.5 -61.5 -179.5s-103.833 -66.833 -188.5 -71.5v-202h-52z" />
    <glyph glyph-name="uni03A9" unicode="&#x3a9;" horiz-adv-x="657" 
d="M56 0l-0.00488281 48.9971h143c-18 14.667 -35.333 31.5 -52 50.5s-31.5 40.833 -44.5 65.5s-23.333 52.5 -31 83.5s-11.5 65.5 -11.5 103.5c0 70 13.167 131.333 39.5 184s60.333 90 102 112s84.167 33 127.5 33c64 0 117 -17.5 159 -52.5s70.667 -77.667 86 -128
s23 -98.166 23 -143.499c0 -55.333 -8.16699 -104.666 -24.5 -147.999s-35.166 -77.333 -56.499 -102s-40.666 -44 -57.999 -58h143v-49h-211v51c44.667 30 81.167 70.5 109.5 121.5s42.5 111.167 42.5 180.5c0 62 -10.167 115 -30.5 159s-47.166 75 -80.499 93
s-67 27 -101 27c-34.667 0 -65.5 -7.16699 -92.5 -21.5s-49.667 -34.166 -68 -59.499s-32.166 -55 -41.499 -89s-14 -71 -14 -111c0 -34.667 4 -66.834 12 -96.501s18.833 -57 32.5 -82s29.834 -47.667 48.501 -68s39 -38.166 61 -53.499v-51h-212z" />
    <glyph glyph-name="Iotadieresis" unicode="&#x3aa;" horiz-adv-x="206" 
d="M76 0v667h52v-667h-52zM20 767c-10 0 -18.5 3.33301 -25.5 10s-10.5 16.667 -10.5 30c0 12 3.5 21.5 10.5 28.5s15.5 10.5 25.5 10.5s18.5 -3.5 25.5 -10.5s10.5 -16.5 10.5 -28.5c0 -13.333 -3.5 -23.333 -10.5 -30s-15.5 -10 -25.5 -10zM191 767
c-10 0 -18.5 3.33301 -25.5 10s-10.5 16.667 -10.5 30c0 12 3.5 21.5 10.5 28.5s15.5 10.5 25.5 10.5s18.5 -3.5 25.5 -10.5s10.5 -16.5 10.5 -28.5c0 -13.333 -3.5 -23.333 -10.5 -30s-15.5 -10 -25.5 -10z" />
    <glyph glyph-name="Upsilondieresis" unicode="&#x3ab;" horiz-adv-x="517" 
d="M176 752c-10 0 -18.5 3.33301 -25.5 10s-10.5 16.667 -10.5 30c0 12 3.5 21.5 10.5 28.5s15.5 10.5 25.5 10.5s18.5 -3.5 25.5 -10.5s10.5 -16.5 10.5 -28.5c0 -13.333 -3.5 -23.333 -10.5 -30s-15.5 -10 -25.5 -10zM347 752c-10 0 -18.5 3.33301 -25.5 10
s-10.5 16.667 -10.5 30c0 12 3.5 21.5 10.5 28.5s15.5 10.5 25.5 10.5s18.5 -3.5 25.5 -10.5s10.5 -16.5 10.5 -28.5c0 -13.333 -3.5 -23.333 -10.5 -30s-15.5 -10 -25.5 -10zM229 0l0.000976562 160c0 29.333 -1 53.666 -3 72.999c-6 52.667 -21.833 107.834 -47.5 165.501
s-54 106.667 -85 147s-58.833 71.166 -83.5 92.499l33 39c23.333 -20 46.666 -44.333 69.999 -73s45 -59.667 65 -93s37.167 -67.666 51.5 -102.999s23.833 -69.333 28.5 -102c11.333 51.333 31.666 105.166 60.999 161.499s57.833 100.833 85.5 133.5s51.834 58 72.501 76
l30 -37c-34.667 -29.333 -69.167 -70.166 -103.5 -122.499s-61 -102.833 -80 -151.5s-30.833 -91 -35.5 -127c-4.66699 -32.667 -7 -64.667 -7 -96v-143h-52z" />
    <glyph glyph-name="alphatonos" unicode="&#x3ac;" horiz-adv-x="521" 
d="M226 -11c-25.333 0 -48.9971 4.99805 -70.9971 14.998s-41 25 -57 45s-28.667 44.833 -38 74.5s-14 64.167 -14 103.5c0 54.667 9 103 27 145s41.833 72 71.5 90s61.5 27 95.5 27c40.667 0 73.5 -11 98.5 -33s42.833 -48.667 53.5 -80c2 19.333 5.83301 39.333 11.5 60
s12.167 38.334 19.5 53.001l49 -14c-16 -38 -28.333 -79.5 -37 -124.5s-13.667 -96.833 -15 -155.5c0 -45.333 1.66699 -77.333 5 -96c3.33301 -21.333 9.16602 -37.333 17.499 -48s20.833 -16 37.5 -16c6 0 13 1 21 3l4 -45c-10.667 -2.66699 -21.334 -4 -32.001 -4
c-28 0 -50.167 8.33301 -66.5 25s-25.5 40.334 -27.5 71.001c-6.66699 -13.333 -14.334 -25 -23.001 -35c-19.333 -21.333 -39.5 -36.833 -60.5 -46.5s-44.167 -14.5 -69.5 -14.5zM233.003 32.998c22.667 0 43.668 5.49805 63.001 16.498s34.666 25.833 45.999 44.5
s19 38.334 23 59.001c6.66699 36 10 70.333 10 103c0 34 -4.83301 65.333 -14.5 94s-25.5 51 -47.5 67s-46.667 24 -74 24c-32 0 -59.333 -10.333 -82 -31s-38.5 -47.667 -47.5 -81s-13.5 -68 -13.5 -104c0 -63.333 13 -111.166 39 -143.499s58.667 -48.5 98 -48.5z
M265.004 538.996l-35 16l94 194l52 -21z" />
    <glyph glyph-name="epsilontonos" unicode="&#x3ad;" horiz-adv-x="446" 
d="M244 -11c-58 0 -103.667 11.335 -137 34.002s-50 58 -50 106c0 30.667 9.66699 56.667 29 78s43.666 35.666 72.999 42.999c-27.333 7.33301 -49 20.666 -65 39.999s-24 42.333 -24 69c0 40 14.667 71.667 44 95s69 35 119 35c38 0 69.667 -5 95 -15s47 -20.667 65 -32
l-16 -43c-23.333 15.333 -47.166 26.833 -71.499 34.5s-47.166 11.5 -68.499 11.5c-39.333 0 -68.5 -8.16699 -87.5 -24.5s-28.5 -37.5 -28.5 -63.5c0 -21.333 7 -39 21 -53s33.667 -23.333 59 -28c20 -2.66699 52 -4 96 -4h44v-43h-52c-28.667 0 -57 -1 -85 -3
c-30 -2.66699 -53.667 -12.834 -71 -30.501s-26 -38.5 -26 -62.5c0 -30 11 -54.333 33 -73s58.333 -28 109 -28c27.333 0 52.666 3.66699 75.999 11s45 16 65 26l8 -44c-18 -11.333 -41.333 -20.166 -70 -26.499s-56.667 -9.5 -84 -9.5zM238 539.002l-35 16l94 194l52 -21z
" />
    <glyph glyph-name="etatonos" unicode="&#x3ae;" horiz-adv-x="512" 
d="M401 -189l0.000976562 483.001c0 22 -1.33301 41.667 -4 59c-4.66699 27.333 -16.334 49.166 -35.001 65.499s-47.334 24.5 -86.001 24.5c-34 0 -64 -7.83301 -90 -23.5s-43 -35.167 -51 -58.5c-4.66699 -12.667 -7 -34.667 -7 -66v-295h-49v389
c0 17.333 -2.66699 29.666 -8 36.999s-13 11 -23 11c-8 0 -17.667 -2 -29 -6l-9 43c14.667 7.33301 31.334 11 50.001 11c36.667 0 58.667 -21.667 66 -65c38 46 91.333 69 160 69c51.333 0 90.333 -12.333 117 -37s41.667 -57.667 45 -99
c1.33301 -11.333 2 -31.666 2 -60.999v-481h-49zM267.001 539.001l-35 16l94 194l52 -21z" />
    <glyph glyph-name="iotatonos" unicode="&#x3af;" horiz-adv-x="235" 
d="M164 -11c-28.667 0 -51.332 8.16797 -67.999 24.501s-25 43.166 -25 80.499v382h50v-374c0 -24 4 -41.333 12 -52s20.667 -16 38 -16s35 4 53 12l8 -43c-20.667 -9.33301 -43.334 -14 -68.001 -14zM89.002 539.001l-35 16l94 194l52 -21z" />
    <glyph glyph-name="upsilondieresistonos" unicode="&#x3b0;" horiz-adv-x="496" 
d="M244 -11c-54 0 -94.668 15.832 -122.001 47.499s-41 80.834 -41 147.501v162c0 22 -0.333008 36.333 -1 43c-0.666992 31.333 -13 47 -37 47c-6 0 -14.667 -1.66699 -26 -5l-7 45c16 6 30.667 9 44 9c26 0 44 -7.5 54 -22.5s16.667 -36.167 20 -63.5
c1.33301 -13.333 2 -39 2 -77v-132c0 -50.667 9.16699 -89.334 27.5 -116.001s48.833 -40 91.5 -40c40 0 69.833 12.5 89.5 37.5s31.834 58.5 36.501 100.5c3.33301 28.667 5 64 5 106c0 46.667 -6.33301 112 -19 196l51 7c11.333 -72.667 17 -140 17 -202
c0 -51.333 -1.33301 -87.666 -4 -108.999c-7.33301 -55.333 -25 -99.333 -53 -132s-70.667 -49 -128 -49zM195.999 538.999l-35 16l94 194l52 -21zM116.999 600.999c-10.667 0 -19.834 4.16699 -27.501 12.5s-11.5 18.833 -11.5 31.5c0 12 3.83301 22.333 11.5 31
s16.834 13 27.501 13s19.667 -4.33301 27 -13s11 -19 11 -31c0 -12.667 -3.66699 -23.167 -11 -31.5s-16.333 -12.5 -27 -12.5zM348.999 600.999c-10.667 0 -19.834 4.16699 -27.501 12.5s-11.5 18.833 -11.5 31.5c0 12 3.83301 22.333 11.5 31s16.834 13 27.501 13
s19.667 -4.33301 27 -13s11 -19 11 -31c0 -12.667 -3.66699 -23.167 -11 -31.5s-16.333 -12.5 -27 -12.5z" />
    <glyph glyph-name="alpha" unicode="&#x3b1;" horiz-adv-x="521" 
d="M226 -11c-25.333 0 -48.9971 4.99805 -70.9971 14.998s-41 25 -57 45s-28.667 44.833 -38 74.5s-14 64.167 -14 103.5c0 54.667 9 103 27 145s41.833 72 71.5 90s61.5 27 95.5 27c40.667 0 73.5 -11 98.5 -33s42.833 -48.667 53.5 -80c2 19.333 5.83301 39.333 11.5 60
s12.167 38.334 19.5 53.001l49 -14c-16 -38 -28.333 -79.5 -37 -124.5s-13.667 -96.833 -15 -155.5c0 -45.333 1.66699 -77.333 5 -96c3.33301 -21.333 9.16602 -37.333 17.499 -48s20.833 -16 37.5 -16c6 0 13 1 21 3l4 -45c-10.667 -2.66699 -21.334 -4 -32.001 -4
c-28 0 -50.167 8.33301 -66.5 25s-25.5 40.334 -27.5 71.001c-6.66699 -13.333 -14.334 -25 -23.001 -35c-19.333 -21.333 -39.5 -36.833 -60.5 -46.5s-44.167 -14.5 -69.5 -14.5zM233.003 32.998c22.667 0 43.668 5.49805 63.001 16.498s34.666 25.833 45.999 44.5
s19 38.334 23 59.001c6.66699 36 10 70.333 10 103c0 34 -4.83301 65.333 -14.5 94s-25.5 51 -47.5 67s-46.667 24 -74 24c-32 0 -59.333 -10.333 -82 -31s-38.5 -47.667 -47.5 -81s-13.5 -68 -13.5 -104c0 -63.333 13 -111.166 39 -143.499s58.667 -48.5 98 -48.5z" />
    <glyph glyph-name="beta" unicode="&#x3b2;" horiz-adv-x="542" 
d="M76 -190l-0.000976562 646.002c0 19.333 1.33301 39 4 59c4.66699 32 15 60.167 31 84.5s38 43.166 66 56.499s58.333 20 91 20c38.667 0 71.5 -8.33301 98.5 -25s45.5 -36.834 55.5 -60.501s15 -46.834 15 -69.501c0 -30.667 -7.66699 -57.667 -23 -81
s-32.333 -40.666 -51 -51.999s-34 -18.666 -46 -21.999c32.667 -3.33301 63.334 -13.5 92.001 -30.5s50 -39.667 64 -68s21 -57.833 21 -88.5c0 -42 -9.33301 -78.5 -28 -109.5s-42.5 -52.167 -71.5 -63.5s-58.167 -17 -87.5 -17c-32 0 -61.5 5.66699 -88.5 17
s-48 23.166 -63 35.499s-25.833 22.5 -32.5 30.5v-262h-47zM305.999 33.002c30 0 56.0029 6.33301 78.0029 19s37.5 30.5 46.5 53.5s13.5 47.833 13.5 74.5c0 35.333 -10.5 66 -31.5 92s-46.5 43.667 -76.5 53s-59.333 14 -88 14v47c26.667 0 51.667 6.33301 75 19
s40.166 28.834 50.499 48.501s15.5 40.5 15.5 62.5c0 24 -5.5 45 -16.5 63s-26.333 31.333 -46 40s-39.834 13 -60.501 13c-25.333 0 -46.333 -4.16699 -63 -12.5s-30.334 -19 -41.001 -32s-18.5 -27.5 -23.5 -43.5s-8.5 -31.333 -10.5 -46c-2 -12 -3 -29 -3 -51v-323
c16 -18 34.333 -34.333 55 -49s41.5 -25.334 62.5 -32.001s42.167 -10 63.5 -10z" />
    </font>
</defs>
</svg>
